STARTFONT 2.1
FONT -FontForge-Roboto Condensed-Book-R-Condensed---28-280-72-72-P-138-ISO10646-1
SIZE 28 72 72
FONTBOUNDINGBOX 49 37 -21 -8
COMMENT "Generated by fontforge, http://fontforge.sourceforge.net"
COMMENT "Copyright 2011 Google Inc. All Rights Reserved."
STARTPROPERTIES 41
FOUNDRY "FontForge"
FAMILY_NAME "Roboto Condensed"
WEIGHT_NAME "Book"
SLANT "R"
SETWIDTH_NAME "Condensed"
ADD_STYLE_NAME ""
PIXEL_SIZE 28
POINT_SIZE 280
RESOLUTION_X 72
RESOLUTION_Y 72
SPACING "P"
AVERAGE_WIDTH 138
CHARSET_REGISTRY "ISO10646"
CHARSET_ENCODING "1"
FONTNAME_REGISTRY ""
CHARSET_COLLECTIONS "ISO8859-2 ISO8859-5 ISO8859-7 ISO8859-9 ISO8859-4 ISO10646-1"
FONT_NAME "RobotoCondensed-Regular"
FACE_NAME "Roboto Condensed"
COPYRIGHT "Copyright 2011 Google Inc. All Rights Reserved."
FONT_VERSION "2.137; 2017"
FONT_ASCENT 21
FONT_DESCENT 7
UNDERLINE_POSITION -3
UNDERLINE_THICKNESS 2
X_HEIGHT 14
CAP_HEIGHT 19
DEFAULT_CHAR 1
RAW_ASCENT 750
RAW_DESCENT 250
NORM_SPACE 6
RELATIVE_WEIGHT 40
RELATIVE_SETWIDTH 50
SUPERSCRIPT_X 0
SUPERSCRIPT_Y 13
SUPERSCRIPT_SIZE 18
SUBSCRIPT_X 0
SUBSCRIPT_Y 3
SUBSCRIPT_SIZE 18
FIGURE_WIDTH 14
AVG_LOWERCASE_WIDTH 134
AVG_UPPERCASE_WIDTH 161
ENDPROPERTIES
CHARS 1296
STARTCHAR uni0000
ENCODING 0
SWIDTH 0 0
DWIDTH 0 0
BBX 1 1 0 0
BITMAP
00
ENDCHAR
STARTCHAR uni0002
ENCODING 2
SWIDTH 0 0
DWIDTH 0 0
BBX 1 1 0 0
BITMAP
00
ENDCHAR
STARTCHAR uni000D
ENCODING 13
SWIDTH 229 0
DWIDTH 6 0
BBX 1 1 0 0
BITMAP
00
ENDCHAR
STARTCHAR space
ENCODING 32
SWIDTH 229 0
DWIDTH 6 0
BBX 1 1 0 0
BITMAP
00
ENDCHAR
STARTCHAR exclam
ENCODING 33
SWIDTH 245 0
DWIDTH 7 0
BBX 3 20 2 0
BITMAP
E0
E0
E0
E0
E0
E0
E0
E0
E0
E0
E0
E0
E0
E0
00
00
00
E0
E0
E0
ENDCHAR
STARTCHAR quotedbl
ENCODING 34
SWIDTH 319 0
DWIDTH 9 0
BBX 5 7 2 14
BITMAP
C8
C8
C8
C8
C8
C8
88
ENDCHAR
STARTCHAR numbersign
ENCODING 35
SWIDTH 547 0
DWIDTH 15 0
BBX 13 20 2 0
BITMAP
0660
0460
0C60
0C60
0C40
7FF8
7FF8
18C0
18C0
18C0
18C0
1980
FFF0
FFF0
3180
3180
3180
3100
3300
2300
ENDCHAR
STARTCHAR dollar
ENCODING 36
SWIDTH 493 0
DWIDTH 14 0
BBX 10 26 2 -3
BITMAP
0C00
0C00
0C00
1F00
7F80
7180
E1C0
E0C0
E0C0
E000
6000
7800
3E00
1F00
0380
01C0
00C0
C0C0
C0C0
E0C0
E1C0
7F80
3F00
0C00
0C00
0C00
ENDCHAR
STARTCHAR percent
ENCODING 37
SWIDTH 632 0
DWIDTH 18 0
BBX 15 20 1 0
BITMAP
3C00
7E00
6610
C238
C230
C260
6660
7EC0
3CC0
0180
0180
033C
027E
0666
04C2
0CC2
1842
0866
007E
003C
ENDCHAR
STARTCHAR ampersand
ENCODING 38
SWIDTH 543 0
DWIDTH 15 0
BBX 14 20 1 0
BITMAP
0F00
1F80
39C0
30C0
30C0
30C0
3980
3B80
1F00
1E00
3E00
7718
6398
E1B8
E1F0
E0F0
6070
71F0
3FF8
1F1C
ENDCHAR
STARTCHAR quotesingle
ENCODING 39
SWIDTH 174 0
DWIDTH 5 0
BBX 2 7 1 14
BITMAP
C0
C0
C0
C0
C0
C0
C0
ENDCHAR
STARTCHAR parenleft
ENCODING 40
SWIDTH 313 0
DWIDTH 9 0
BBX 6 28 2 -6
BITMAP
04
0C
18
18
30
30
60
60
E0
E0
C0
C0
C0
C0
C0
C0
C0
C0
E0
E0
60
60
30
30
18
18
0C
04
ENDCHAR
STARTCHAR parenright
ENCODING 41
SWIDTH 318 0
DWIDTH 9 0
BBX 6 28 1 -6
BITMAP
80
C0
60
60
30
30
18
18
18
1C
1C
0C
0C
0C
0C
0C
0C
1C
1C
18
18
18
30
30
60
60
C0
80
ENDCHAR
STARTCHAR asterisk
ENCODING 42
SWIDTH 430 0
DWIDTH 12 0
BBX 12 11 0 9
BITMAP
0600
0600
0600
4620
7EE0
FFF0
0E00
0F00
1980
39C0
30C0
ENDCHAR
STARTCHAR plus
ENCODING 43
SWIDTH 496 0
DWIDTH 14 0
BBX 12 14 1 3
BITMAP
0600
0600
0600
0600
0600
0600
FFF0
FFF0
0600
0600
0600
0600
0600
0600
ENDCHAR
STARTCHAR comma
ENCODING 44
SWIDTH 196 0
DWIDTH 6 0
BBX 4 7 0 -4
BITMAP
30
30
30
30
70
60
C0
ENDCHAR
STARTCHAR hyphen
ENCODING 45
SWIDTH 248 0
DWIDTH 7 0
BBX 5 2 1 7
BITMAP
F8
F8
ENDCHAR
STARTCHAR period
ENCODING 46
SWIDTH 263 0
DWIDTH 7 0
BBX 3 3 2 0
BITMAP
E0
E0
E0
ENDCHAR
STARTCHAR slash
ENCODING 47
SWIDTH 370 0
DWIDTH 10 0
BBX 9 22 0 -2
BITMAP
0180
0180
0180
0300
0300
0300
0600
0600
0600
0C00
0C00
0C00
1C00
1800
1800
3800
3000
3000
3000
6000
6000
E000
ENDCHAR
STARTCHAR zero
ENCODING 48
SWIDTH 493 0
DWIDTH 14 0
BBX 10 20 2 0
BITMAP
1E00
7F80
6380
E1C0
C1C0
C0C0
C0C0
C0C0
C0C0
C0C0
C0C0
C0C0
C0C0
C0C0
C0C0
C1C0
E1C0
6380
7F80
1E00
ENDCHAR
STARTCHAR one
ENCODING 49
SWIDTH 493 0
DWIDTH 14 0
BBX 7 20 2 0
BITMAP
06
1E
7E
FE
8E
0E
0E
0E
0E
0E
0E
0E
0E
0E
0E
0E
0E
0E
0E
0E
ENDCHAR
STARTCHAR two
ENCODING 50
SWIDTH 493 0
DWIDTH 14 0
BBX 12 20 1 0
BITMAP
1F00
3FC0
71C0
60E0
E0E0
E060
00E0
00E0
00C0
01C0
0380
0300
0700
0E00
1C00
1800
3800
7000
7FF0
7FF0
ENDCHAR
STARTCHAR three
ENCODING 51
SWIDTH 493 0
DWIDTH 14 0
BBX 11 20 1 0
BITMAP
1F00
3F80
71C0
60E0
60E0
00E0
00E0
00C0
01C0
0F80
0F80
01C0
00E0
0060
0060
E060
60E0
71C0
3FC0
1F00
ENDCHAR
STARTCHAR four
ENCODING 52
SWIDTH 493 0
DWIDTH 14 0
BBX 12 20 1 0
BITMAP
01C0
03C0
03C0
07C0
07C0
0FC0
0DC0
1DC0
19C0
31C0
31C0
61C0
E1C0
FFF0
FFF0
01C0
01C0
01C0
01C0
01C0
ENDCHAR
STARTCHAR five
ENCODING 53
SWIDTH 493 0
DWIDTH 14 0
BBX 11 20 2 0
BITMAP
7FC0
7FC0
6000
6000
6000
6000
6000
6F00
7F80
61C0
20C0
00C0
00E0
00E0
C0E0
C0C0
E0C0
71C0
3F80
1F00
ENDCHAR
STARTCHAR six
ENCODING 54
SWIDTH 493 0
DWIDTH 14 0
BBX 11 20 2 0
BITMAP
0700
1F00
3800
7000
6000
6000
E000
CF00
FF80
F1C0
E0C0
C0C0
C0C0
C0E0
C0C0
E0C0
60C0
71C0
3F80
1F00
ENDCHAR
STARTCHAR seven
ENCODING 55
SWIDTH 493 0
DWIDTH 14 0
BBX 12 20 1 0
BITMAP
FFF0
FFF0
0060
00E0
00C0
00C0
01C0
0180
0180
0380
0300
0700
0700
0600
0E00
0C00
0C00
1C00
1800
3800
ENDCHAR
STARTCHAR eight
ENCODING 56
SWIDTH 493 0
DWIDTH 14 0
BBX 10 20 2 0
BITMAP
1E00
7F80
7380
E1C0
E1C0
C0C0
E1C0
E1C0
7380
3F00
3F00
6180
E1C0
C0C0
C0C0
C0C0
C0C0
E1C0
7F80
1F00
ENDCHAR
STARTCHAR nine
ENCODING 57
SWIDTH 493 0
DWIDTH 14 0
BBX 10 20 2 0
BITMAP
3E00
7F00
E380
E180
C1C0
C1C0
C0C0
C0C0
C0C0
C1C0
E3C0
7FC0
3CC0
01C0
01C0
0180
0380
0700
3E00
3800
ENDCHAR
STARTCHAR colon
ENCODING 58
SWIDTH 233 0
DWIDTH 7 0
BBX 3 15 2 0
BITMAP
E0
E0
E0
00
00
00
00
00
00
00
00
00
E0
E0
E0
ENDCHAR
STARTCHAR semicolon
ENCODING 59
SWIDTH 202 0
DWIDTH 6 0
BBX 4 19 1 -4
BITMAP
60
70
60
00
00
00
00
00
00
00
00
00
60
60
60
60
E0
C0
C0
ENDCHAR
STARTCHAR less
ENCODING 60
SWIDTH 445 0
DWIDTH 12 0
BBX 9 12 1 3
BITMAP
0080
0180
0780
1F00
7C00
F000
E000
7C00
1F00
0780
0180
0080
ENDCHAR
STARTCHAR equal
ENCODING 61
SWIDTH 479 0
DWIDTH 13 0
BBX 10 8 2 6
BITMAP
FFC0
FFC0
0000
0000
0000
0000
FFC0
FFC0
ENDCHAR
STARTCHAR greater
ENCODING 62
SWIDTH 459 0
DWIDTH 13 0
BBX 10 12 2 3
BITMAP
8000
E000
F800
3E00
0F80
03C0
03C0
0F80
3E00
F800
E000
8000
ENDCHAR
STARTCHAR question
ENCODING 63
SWIDTH 421 0
DWIDTH 12 0
BBX 10 20 1 0
BITMAP
1E00
7F80
7380
E1C0
E1C0
01C0
01C0
0180
0380
0700
0E00
0C00
1C00
1C00
0000
0000
0000
0C00
1C00
0C00
ENDCHAR
STARTCHAR at
ENCODING 64
SWIDTH 769 0
DWIDTH 22 0
BBX 18 26 2 -6
BITMAP
01F000
07FC00
0E0E00
180300
300180
300080
60F0C0
61F8C0
C398C0
C31840
C61840
C61840
C61840
C61840
C61840
C610C0
C638C0
C63980
C7DF80
638F00
600000
700000
380000
1C1800
0FF800
03E000
ENDCHAR
STARTCHAR A
ENCODING 65
SWIDTH 576 0
DWIDTH 16 0
BBX 15 20 1 0
BITMAP
0300
0780
0780
0780
0FC0
0CC0
0CC0
0CC0
1CE0
1860
1860
3870
3030
3FF0
7FF8
6018
6018
E01C
E01C
C00E
ENDCHAR
STARTCHAR B
ENCODING 66
SWIDTH 545 0
DWIDTH 15 0
BBX 12 20 2 0
BITMAP
FF80
FFC0
E0E0
E0E0
E060
E060
E060
E0E0
E1C0
FF80
FFC0
E0E0
E060
E070
E070
E070
E060
E0E0
FFC0
FF80
ENDCHAR
STARTCHAR C
ENCODING 67
SWIDTH 566 0
DWIDTH 16 0
BBX 13 20 2 0
BITMAP
0F80
3FE0
78F0
6070
E030
E038
C038
C000
C000
C000
C000
C000
C000
C000
E038
E030
6070
70F0
3FE0
0F80
ENDCHAR
STARTCHAR D
ENCODING 68
SWIDTH 570 0
DWIDTH 16 0
BBX 12 20 2 0
BITMAP
FF00
FFC0
E1E0
E060
E070
E070
E030
E030
E030
E030
E030
E030
E030
E030
E070
E070
E0E0
E1E0
FFC0
FF00
ENDCHAR
STARTCHAR E
ENCODING 69
SWIDTH 496 0
DWIDTH 14 0
BBX 11 20 2 0
BITMAP
FFE0
FFE0
E000
E000
E000
E000
E000
E000
E000
FFC0
FFC0
E000
E000
E000
E000
E000
E000
E000
FFE0
FFE0
ENDCHAR
STARTCHAR F
ENCODING 70
SWIDTH 480 0
DWIDTH 13 0
BBX 11 20 2 0
BITMAP
FFE0
FFE0
E000
E000
E000
E000
E000
E000
E000
FF80
FF80
E000
E000
E000
E000
E000
E000
E000
E000
E000
ENDCHAR
STARTCHAR G
ENCODING 71
SWIDTH 590 0
DWIDTH 17 0
BBX 13 20 2 0
BITMAP
0F80
3FE0
7870
6030
E038
E038
E000
C000
C000
C000
C1F8
C1F8
C038
E038
E038
E038
7038
7878
3FF0
0FC0
ENDCHAR
STARTCHAR H
ENCODING 72
SWIDTH 620 0
DWIDTH 17 0
BBX 13 20 2 0
BITMAP
C038
C038
C038
C038
C038
C038
C038
C038
C038
FFF8
FFF8
C038
C038
C038
C038
C038
C038
C038
C038
C038
ENDCHAR
STARTCHAR I
ENCODING 73
SWIDTH 250 0
DWIDTH 7 0
BBX 3 20 2 0
BITMAP
E0
E0
E0
E0
E0
E0
E0
E0
E0
E0
E0
E0
E0
E0
E0
E0
E0
E0
E0
E0
ENDCHAR
STARTCHAR J
ENCODING 74
SWIDTH 483 0
DWIDTH 14 0
BBX 11 20 1 0
BITMAP
00E0
00E0
00E0
00E0
00E0
00E0
00E0
00E0
00E0
00E0
00E0
00E0
00E0
00E0
C0E0
C0C0
E1C0
71C0
7F80
1F00
ENDCHAR
STARTCHAR K
ENCODING 75
SWIDTH 544 0
DWIDTH 15 0
BBX 13 20 2 0
BITMAP
E078
E0E0
E0E0
E1C0
E380
E380
E700
EE00
FC00
FC00
FE00
F700
E700
E380
E1C0
E1C0
E0E0
E060
E070
E038
ENDCHAR
STARTCHAR L
ENCODING 76
SWIDTH 475 0
DWIDTH 13 0
BBX 10 20 2 0
BITMAP
E000
E000
E000
E000
E000
E000
E000
E000
E000
E000
E000
E000
E000
E000
E000
E000
E000
E000
FFC0
FFC0
ENDCHAR
STARTCHAR M
ENCODING 77
SWIDTH 755 0
DWIDTH 21 0
BBX 17 20 2 0
BITMAP
F00380
F00780
F00780
F00780
F80F80
D80D80
D80D80
FC1D80
EC1980
EC1980
EE3980
E63380
E63380
E77380
E36380
E36380
E3E380
E1C380
E1C380
E1C380
ENDCHAR
STARTCHAR N
ENCODING 78
SWIDTH 619 0
DWIDTH 17 0
BBX 13 20 2 0
BITMAP
E038
E038
F038
F038
F838
D838
DC38
CC38
CE38
C638
C738
C338
C3B8
C1B8
C0F8
C0F8
C078
C078
C038
C038
ENDCHAR
STARTCHAR O
ENCODING 79
SWIDTH 600 0
DWIDTH 17 0
BBX 13 20 2 0
BITMAP
0F80
3FE0
7870
6030
E038
E038
C018
C018
C018
C018
C018
C018
C018
C018
E038
E038
6030
7870
3FE0
0F80
ENDCHAR
STARTCHAR P
ENCODING 80
SWIDTH 554 0
DWIDTH 16 0
BBX 13 20 2 0
BITMAP
FF80
FFE0
E070
E030
E038
E038
E038
E038
E030
E070
FFE0
FFC0
E000
E000
E000
E000
E000
E000
E000
E000
ENDCHAR
STARTCHAR Q
ENCODING 81
SWIDTH 600 0
DWIDTH 17 0
BBX 13 23 2 -3
BITMAP
0F80
3FE0
70F0
6070
E038
C038
C038
C018
C018
C018
C018
C018
C018
C038
C038
E038
6070
70F0
3FE0
0FE0
0070
0038
0010
ENDCHAR
STARTCHAR R
ENCODING 82
SWIDTH 530 0
DWIDTH 15 0
BBX 12 20 2 0
BITMAP
FF80
FFC0
E0E0
E060
E070
E070
E070
E070
E060
E0E0
FFC0
FF80
E380
E1C0
E1C0
E0C0
E0E0
E060
E070
E030
ENDCHAR
STARTCHAR S
ENCODING 83
SWIDTH 518 0
DWIDTH 15 0
BBX 13 20 1 0
BITMAP
0F80
1FE0
3870
7030
7030
6038
7000
7800
3C00
1F80
07E0
01F0
0070
0030
E038
6038
7030
7870
3FE0
0FC0
ENDCHAR
STARTCHAR T
ENCODING 84
SWIDTH 520 0
DWIDTH 15 0
BBX 13 20 1 0
BITMAP
FFF8
FFF8
0700
0700
0700
0700
0700
0700
0700
0700
0700
0700
0700
0700
0700
0700
0700
0700
0700
0700
ENDCHAR
STARTCHAR U
ENCODING 85
SWIDTH 561 0
DWIDTH 16 0
BBX 12 20 2 0
BITMAP
C030
C030
C030
C030
C030
C030
C030
C030
C030
C030
C030
C030
C030
C030
C030
E070
E070
70E0
3FC0
1F80
ENDCHAR
STARTCHAR V
ENCODING 86
SWIDTH 560 0
DWIDTH 16 0
BBX 14 20 1 0
BITMAP
E01C
E01C
601C
6018
7038
7038
3030
3870
3870
1860
1860
1CE0
0CC0
0CC0
0FC0
07C0
0780
0780
0780
0300
ENDCHAR
STARTCHAR W
ENCODING 87
SWIDTH 761 0
DWIDTH 21 0
BBX 20 20 1 0
BITMAP
E06070
E0E060
E0E060
60F0E0
60F0E0
60F0E0
71B0C0
7198C0
3198C0
3199C0
3319C0
3B1980
3B0D80
1B0D80
1F0D80
1E0F80
1E0700
1E0700
0E0700
0C0700
ENDCHAR
STARTCHAR X
ENCODING 88
SWIDTH 550 0
DWIDTH 15 0
BBX 14 20 1 0
BITMAP
E038
7038
7070
3870
38E0
1CE0
1DC0
0FC0
0780
0700
0780
0F80
0FC0
1DC0
1CE0
38E0
3870
7070
7038
E03C
ENDCHAR
STARTCHAR Y
ENCODING 89
SWIDTH 524 0
DWIDTH 15 0
BBX 14 20 0 0
BITMAP
E01C
701C
3038
3838
3830
1870
1C60
0CE0
0EC0
06C0
07C0
0380
0380
0380
0380
0380
0380
0380
0380
0380
ENDCHAR
STARTCHAR Z
ENCODING 90
SWIDTH 522 0
DWIDTH 15 0
BBX 12 20 1 0
BITMAP
FFF0
FFF0
0070
00E0
00E0
01C0
0180
0380
0300
0700
0600
0E00
1C00
1C00
3800
3000
7000
6000
FFF0
FFF0
ENDCHAR
STARTCHAR bracketleft
ENCODING 91
SWIDTH 250 0
DWIDTH 7 0
BBX 4 27 2 -4
BITMAP
F0
F0
C0
C0
C0
C0
C0
C0
C0
C0
C0
C0
C0
C0
C0
C0
C0
C0
C0
C0
C0
C0
C0
C0
C0
F0
F0
ENDCHAR
STARTCHAR backslash
ENCODING 92
SWIDTH 369 0
DWIDTH 10 0
BBX 9 22 1 -2
BITMAP
C000
C000
E000
6000
6000
7000
3000
3000
3800
1800
1800
1C00
0C00
0C00
0E00
0600
0600
0700
0300
0300
0300
0180
ENDCHAR
STARTCHAR bracketright
ENCODING 93
SWIDTH 250 0
DWIDTH 7 0
BBX 5 27 0 -4
BITMAP
F8
F8
18
18
18
18
18
18
18
18
18
18
18
18
18
18
18
18
18
18
18
18
18
18
18
F8
F8
ENDCHAR
STARTCHAR asciicircum
ENCODING 94
SWIDTH 371 0
DWIDTH 10 0
BBX 8 10 1 10
BITMAP
18
18
3C
3C
3C
66
66
66
C3
C3
ENDCHAR
STARTCHAR underscore
ENCODING 95
SWIDTH 404 0
DWIDTH 11 0
BBX 11 2 0 -2
BITMAP
FFE0
FFE0
ENDCHAR
STARTCHAR grave
ENCODING 96
SWIDTH 309 0
DWIDTH 9 0
BBX 5 4 1 17
BITMAP
E0
70
38
18
ENDCHAR
STARTCHAR a
ENCODING 97
SWIDTH 479 0
DWIDTH 13 0
BBX 11 15 1 0
BITMAP
1F00
3F80
71C0
60C0
00C0
00C0
1FC0
3FC0
70C0
60C0
E0C0
E0C0
61C0
7FC0
3CE0
ENDCHAR
STARTCHAR b
ENCODING 98
SWIDTH 493 0
DWIDTH 14 0
BBX 11 21 2 0
BITMAP
C000
C000
C000
C000
C000
C000
CF00
DF80
F1C0
E0C0
C0C0
C0E0
C0E0
C0E0
C0E0
C0E0
C0C0
E0C0
E1C0
DF80
CF00
ENDCHAR
STARTCHAR c
ENCODING 99
SWIDTH 461 0
DWIDTH 13 0
BBX 11 15 1 0
BITMAP
1F00
3FC0
70C0
60E0
6060
E000
E000
E000
E000
E000
6060
60E0
70C0
3FC0
1F00
ENDCHAR
STARTCHAR d
ENCODING 100
SWIDTH 496 0
DWIDTH 14 0
BBX 11 21 1 0
BITMAP
0060
0060
0060
0060
0060
0060
1E60
3F60
70E0
60E0
6060
E060
E060
E060
E060
E060
6060
60E0
70E0
3F60
1E60
ENDCHAR
STARTCHAR e
ENCODING 101
SWIDTH 468 0
DWIDTH 13 0
BBX 11 15 1 0
BITMAP
1F00
3FC0
71C0
60E0
60E0
E060
FFE0
FFE0
E000
E000
E000
6040
70E0
3FC0
1F80
ENDCHAR
STARTCHAR f
ENCODING 102
SWIDTH 316 0
DWIDTH 9 0
BBX 8 21 1 0
BITMAP
0F
1F
38
38
30
30
FE
FE
30
30
30
30
30
30
30
30
30
30
30
30
30
ENDCHAR
STARTCHAR g
ENCODING 103
SWIDTH 492 0
DWIDTH 14 0
BBX 11 21 1 -6
BITMAP
1E60
3FE0
70E0
6060
6060
E060
E060
E060
E060
E060
6060
60E0
70E0
3FE0
1E60
0060
0060
20E0
31C0
7FC0
1F00
ENDCHAR
STARTCHAR h
ENCODING 104
SWIDTH 482 0
DWIDTH 14 0
BBX 10 21 2 0
BITMAP
C000
C000
C000
C000
C000
C000
CF00
DF80
F1C0
E1C0
C0C0
C0C0
C0C0
C0C0
C0C0
C0C0
C0C0
C0C0
C0C0
C0C0
C0C0
ENDCHAR
STARTCHAR i
ENCODING 105
SWIDTH 229 0
DWIDTH 6 0
BBX 2 20 2 0
BITMAP
C0
C0
C0
00
00
C0
C0
C0
C0
C0
C0
C0
C0
C0
C0
C0
C0
C0
C0
C0
ENDCHAR
STARTCHAR j
ENCODING 106
SWIDTH 223 0
DWIDTH 6 0
BBX 4 26 0 -6
BITMAP
30
30
30
00
00
30
30
30
30
30
30
30
30
30
30
30
30
30
30
30
30
30
30
70
F0
E0
ENDCHAR
STARTCHAR k
ENCODING 107
SWIDTH 450 0
DWIDTH 13 0
BBX 11 21 2 0
BITMAP
C000
C000
C000
C000
C000
C000
C1C0
C380
C700
C600
CE00
DC00
F800
FC00
FE00
EE00
C700
C300
C380
C1C0
C1E0
ENDCHAR
STARTCHAR l
ENCODING 108
SWIDTH 229 0
DWIDTH 6 0
BBX 2 21 2 0
BITMAP
C0
C0
C0
C0
C0
C0
C0
C0
C0
C0
C0
C0
C0
C0
C0
C0
C0
C0
C0
C0
C0
ENDCHAR
STARTCHAR m
ENCODING 109
SWIDTH 752 0
DWIDTH 21 0
BBX 17 15 2 0
BITMAP
CF1E00
FFBF00
E3E380
C1C180
C1C180
C1C180
C1C180
C1C180
C1C180
C1C180
C1C180
C1C180
C1C180
C1C180
C1C180
ENDCHAR
STARTCHAR n
ENCODING 110
SWIDTH 483 0
DWIDTH 14 0
BBX 10 15 2 0
BITMAP
CF00
DF80
F1C0
E1C0
C0C0
C0C0
C0C0
C0C0
C0C0
C0C0
C0C0
C0C0
C0C0
C0C0
C0C0
ENDCHAR
STARTCHAR o
ENCODING 111
SWIDTH 501 0
DWIDTH 14 0
BBX 12 15 1 0
BITMAP
0F00
3FC0
70E0
60E0
E060
E070
E070
E070
E070
E070
E060
6060
70E0
3FC0
0F00
ENDCHAR
STARTCHAR p
ENCODING 112
SWIDTH 493 0
DWIDTH 14 0
BBX 11 21 2 -6
BITMAP
CF00
FF80
E1C0
C0C0
C0C0
C0E0
C0E0
C0E0
C0E0
C0E0
C0C0
C0C0
E1C0
FF80
CF00
C000
C000
C000
C000
C000
C000
ENDCHAR
STARTCHAR q
ENCODING 113
SWIDTH 500 0
DWIDTH 14 0
BBX 11 21 1 -6
BITMAP
1E60
3FE0
71E0
60E0
E060
E060
E060
E060
E060
E060
E060
60E0
70E0
3FE0
1E60
0060
0060
0060
0060
0060
0060
ENDCHAR
STARTCHAR r
ENCODING 114
SWIDTH 304 0
DWIDTH 9 0
BBX 6 15 2 0
BITMAP
CC
DC
F0
E0
C0
C0
C0
C0
C0
C0
C0
C0
C0
C0
C0
ENDCHAR
STARTCHAR s
ENCODING 115
SWIDTH 455 0
DWIDTH 13 0
BBX 11 15 1 0
BITMAP
1F00
3F80
71C0
60C0
6000
7000
3C00
1F00
07C0
01C0
E0E0
60E0
71C0
3FC0
1F00
ENDCHAR
STARTCHAR t
ENCODING 116
SWIDTH 295 0
DWIDTH 8 0
BBX 7 19 0 0
BITMAP
38
38
38
38
FE
FE
38
38
38
38
38
38
38
38
38
38
18
1E
0E
ENDCHAR
STARTCHAR u
ENCODING 117
SWIDTH 483 0
DWIDTH 14 0
BBX 10 15 2 0
BITMAP
C1C0
C1C0
C1C0
C1C0
C1C0
C1C0
C1C0
C1C0
C1C0
C1C0
C1C0
E1C0
E3C0
7FC0
3CC0
ENDCHAR
STARTCHAR v
ENCODING 118
SWIDTH 427 0
DWIDTH 12 0
BBX 10 15 1 0
BITMAP
C0C0
C1C0
E1C0
6180
6180
7380
3300
3300
3300
3F00
1E00
1E00
1E00
0C00
0C00
ENDCHAR
STARTCHAR w
ENCODING 119
SWIDTH 649 0
DWIDTH 18 0
BBX 16 15 1 0
BITMAP
C183
C183
E3C7
E3C7
63C6
63C6
6666
766E
366C
366C
3C3C
3C3C
1C38
1C38
1818
ENDCHAR
STARTCHAR x
ENCODING 120
SWIDTH 438 0
DWIDTH 12 0
BBX 11 15 1 0
BITMAP
E1C0
61C0
7380
3380
3B00
1E00
1E00
0C00
1E00
1F00
3B00
3380
7180
61C0
E1E0
ENDCHAR
STARTCHAR y
ENCODING 121
SWIDTH 416 0
DWIDTH 12 0
BBX 10 21 1 -6
BITMAP
C0C0
E1C0
E1C0
6180
6180
7380
3300
3300
3300
3F00
1E00
1E00
1E00
0C00
0C00
0C00
0C00
1800
1800
F000
E000
ENDCHAR
STARTCHAR z
ENCODING 122
SWIDTH 438 0
DWIDTH 12 0
BBX 10 15 1 0
BITMAP
FFC0
FFC0
0180
0380
0300
0700
0E00
0C00
1C00
1800
3800
7000
6000
FFC0
FFC0
ENDCHAR
STARTCHAR braceleft
ENCODING 123
SWIDTH 306 0
DWIDTH 9 0
BBX 7 27 1 -5
BITMAP
02
0E
1C
18
18
18
18
18
18
38
38
30
F0
F0
30
38
38
18
18
18
18
18
18
18
1C
0E
02
ENDCHAR
STARTCHAR bar
ENCODING 124
SWIDTH 243 0
DWIDTH 7 0
BBX 2 24 2 -4
BITMAP
C0
C0
C0
C0
C0
C0
C0
C0
C0
C0
C0
C0
C0
C0
C0
C0
C0
C0
C0
C0
C0
C0
C0
C0
ENDCHAR
STARTCHAR braceright
ENCODING 125
SWIDTH 306 0
DWIDTH 9 0
BBX 7 27 1 -5
BITMAP
80
E0
70
30
30
30
30
30
30
30
38
18
1E
1E
18
38
30
30
30
30
30
30
30
30
60
E0
80
ENDCHAR
STARTCHAR asciitilde
ENCODING 126
SWIDTH 589 0
DWIDTH 17 0
BBX 13 5 2 6
BITMAP
3818
FE18
C730
C3F0
01E0
ENDCHAR
STARTCHAR uni00A0
ENCODING 160
SWIDTH 229 0
DWIDTH 6 0
BBX 1 1 0 0
BITMAP
00
ENDCHAR
STARTCHAR exclamdown
ENCODING 161
SWIDTH 231 0
DWIDTH 6 0
BBX 2 20 2 -5
BITMAP
C0
C0
C0
00
00
00
C0
C0
C0
C0
C0
C0
C0
C0
C0
C0
C0
C0
C0
C0
ENDCHAR
STARTCHAR cent
ENCODING 162
SWIDTH 479 0
DWIDTH 13 0
BBX 11 21 1 -3
BITMAP
0E00
0E00
0E00
1F00
3F80
71C0
60E0
E0E0
E000
E000
E000
E000
E000
E0E0
60E0
71C0
3F80
1F00
0E00
0E00
0E00
ENDCHAR
STARTCHAR sterling
ENCODING 163
SWIDTH 510 0
DWIDTH 14 0
BBX 12 20 1 0
BITMAP
0780
1FE0
1CE0
3870
3070
3000
3000
3000
3000
FF00
FF00
3800
3800
3800
3800
3800
3000
7000
FFF0
FFF0
ENDCHAR
STARTCHAR currency
ENCODING 164
SWIDTH 712 0
DWIDTH 20 0
BBX 18 17 1 0
BITMAP
63F180
FFFFC0
7E1F80
380700
380300
700380
700180
600180
600180
600180
700180
700380
380300
380700
7E1F80
FFFFC0
23F180
ENDCHAR
STARTCHAR yen
ENCODING 165
SWIDTH 463 0
DWIDTH 13 0
BBX 13 20 0 0
BITMAP
E038
7070
7070
38E0
38E0
18C0
1DC0
0D80
0D80
0F80
3FE0
3FE0
0700
0700
3FE0
3FE0
0700
0700
0700
0700
ENDCHAR
STARTCHAR brokenbar
ENCODING 166
SWIDTH 239 0
DWIDTH 7 0
BBX 3 24 2 -4
BITMAP
E0
E0
E0
E0
E0
E0
E0
E0
E0
E0
E0
00
00
E0
E0
E0
E0
E0
E0
E0
E0
E0
E0
E0
ENDCHAR
STARTCHAR section
ENCODING 167
SWIDTH 537 0
DWIDTH 15 0
BBX 13 27 1 -7
BITMAP
0F80
3FE0
78E0
7070
6030
6030
7000
7800
3E00
7F80
63E0
E0F0
E070
E030
6038
7030
3C70
1FE0
03E0
00E0
0070
E030
E030
6070
70E0
3FE0
0F80
ENDCHAR
STARTCHAR dieresis
ENCODING 168
SWIDTH 417 0
DWIDTH 12 0
BBX 9 3 1 17
BITMAP
6180
E380
6180
ENDCHAR
STARTCHAR copyright
ENCODING 169
SWIDTH 785 0
DWIDTH 22 0
BBX 20 20 1 0
BITMAP
01F800
07FE00
1E0700
380180
30F0C0
63F860
630C60
460C20
C60030
C60030
C60030
C60030
460C20
630C60
63FC60
31F0C0
180180
1E0700
07FE00
01F800
ENDCHAR
STARTCHAR ordfeminine
ENCODING 170
SWIDTH 395 0
DWIDTH 11 0
BBX 7 11 2 9
BITMAP
38
7C
E6
C6
06
7E
FE
C6
C6
FE
76
ENDCHAR
STARTCHAR guillemotleft
ENCODING 171
SWIDTH 417 0
DWIDTH 12 0
BBX 9 11 1 2
BITMAP
1D80
1980
3300
3700
6600
EE00
6600
3700
3300
1980
1D80
ENDCHAR
STARTCHAR logicalnot
ENCODING 172
SWIDTH 487 0
DWIDTH 14 0
BBX 9 6 2 5
BITMAP
FF80
FF80
0180
0180
0180
0180
ENDCHAR
STARTCHAR uni00AD
ENCODING 173
SWIDTH 248 0
DWIDTH 7 0
BBX 5 2 1 7
BITMAP
F8
F8
ENDCHAR
STARTCHAR registered
ENCODING 174
SWIDTH 786 0
DWIDTH 22 0
BBX 20 20 1 0
BITMAP
01F800
07FE00
1E0700
380180
33F0C0
63FC60
630C60
C30C20
C30C20
C3F830
C3F830
C30C20
C30C20
630C60
630C60
3000C0
380180
1E0700
07FE00
01F800
ENDCHAR
STARTCHAR macron
ENCODING 175
SWIDTH 414 0
DWIDTH 12 0
BBX 8 2 2 18
BITMAP
FF
FF
ENDCHAR
STARTCHAR degree
ENCODING 176
SWIDTH 373 0
DWIDTH 10 0
BBX 7 7 2 13
BITMAP
78
FC
C6
C6
C6
FC
78
ENDCHAR
STARTCHAR plusminus
ENCODING 177
SWIDTH 469 0
DWIDTH 13 0
BBX 11 18 1 0
BITMAP
0600
0600
0600
0600
0600
0600
FFE0
FFE0
0600
0600
0600
0600
0600
0600
0000
0000
7FC0
7FC0
ENDCHAR
STARTCHAR uni00B2
ENCODING 178
SWIDTH 329 0
DWIDTH 9 0
BBX 7 11 1 9
BITMAP
38
FC
CE
C6
0C
0C
18
30
60
FE
FE
ENDCHAR
STARTCHAR uni00B3
ENCODING 179
SWIDTH 329 0
DWIDTH 9 0
BBX 7 11 1 9
BITMAP
7C
FE
C6
04
38
3C
06
06
C6
FC
78
ENDCHAR
STARTCHAR acute
ENCODING 180
SWIDTH 313 0
DWIDTH 9 0
BBX 5 4 2 17
BITMAP
38
70
E0
C0
ENDCHAR
STARTCHAR mu
ENCODING 181
SWIDTH 498 0
DWIDTH 14 0
BBX 10 21 2 -6
BITMAP
C0C0
C0C0
C0C0
C0C0
C0C0
C0C0
C0C0
C0C0
C0C0
C0C0
E0C0
E1C0
E1C0
FFC0
DEC0
C000
C000
C000
C000
C000
C000
ENDCHAR
STARTCHAR paragraph
ENCODING 182
SWIDTH 434 0
DWIDTH 12 0
BBX 9 20 1 0
BITMAP
1F80
3F80
7F80
FF80
FF80
FF80
FF80
FF80
FF80
FF80
7F80
3F80
1F80
0380
0380
0380
0380
0380
0380
0380
ENDCHAR
STARTCHAR periodcentered
ENCODING 183
SWIDTH 243 0
DWIDTH 7 0
BBX 3 3 2 9
BITMAP
E0
E0
E0
ENDCHAR
STARTCHAR cedilla
ENCODING 184
SWIDTH 229 0
DWIDTH 6 0
BBX 4 6 1 -6
BITMAP
60
60
B0
30
30
E0
ENDCHAR
STARTCHAR uni00B9
ENCODING 185
SWIDTH 329 0
DWIDTH 9 0
BBX 4 11 2 9
BITMAP
10
70
F0
B0
30
30
30
30
30
30
30
ENDCHAR
STARTCHAR ordmasculine
ENCODING 186
SWIDTH 402 0
DWIDTH 11 0
BBX 9 11 1 9
BITMAP
1C00
7F00
6300
6300
E380
E380
E380
6300
6300
7F00
1C00
ENDCHAR
STARTCHAR guillemotright
ENCODING 187
SWIDTH 417 0
DWIDTH 12 0
BBX 10 11 1 2
BITMAP
C600
6600
3300
3380
1980
1DC0
1980
3380
3300
6600
E600
ENDCHAR
STARTCHAR onequarter
ENCODING 188
SWIDTH 637 0
DWIDTH 18 0
BBX 16 20 1 0
BITMAP
1800
7800
F810
D818
1830
1860
1860
18C0
18C0
198E
198E
031E
0216
0636
0466
0C66
08FF
18FF
0006
0006
ENDCHAR
STARTCHAR onehalf
ENCODING 189
SWIDTH 677 0
DWIDTH 19 0
BBX 16 20 1 0
BITMAP
1800
7800
F810
D830
1860
1860
18C0
18C0
1980
199E
1B3F
0273
0663
0403
0C06
080C
1818
1030
007F
007F
ENDCHAR
STARTCHAR threequarters
ENCODING 190
SWIDTH 673 0
DWIDTH 19 0
BBX 17 20 1 0
BITMAP
3C0000
7E0000
660800
060C00
1E1800
1E1800
063000
063000
E66000
7E4700
3CC700
008F00
019B00
031B00
033300
063300
067F80
047F80
000300
000300
ENDCHAR
STARTCHAR questiondown
ENCODING 191
SWIDTH 421 0
DWIDTH 12 0
BBX 10 20 1 -5
BITMAP
0C00
0C00
0C00
0000
0000
0000
0C00
0C00
1C00
1800
3800
7000
6000
E000
E000
C1C0
E1C0
6380
7F00
1E00
ENDCHAR
STARTCHAR Agrave
ENCODING 192
SWIDTH 576 0
DWIDTH 16 0
BBX 15 26 1 0
BITMAP
1C00
0E00
0700
0380
0000
0000
0300
0780
0780
0780
0FC0
0CC0
0CC0
0CC0
1CE0
1860
1860
3870
3030
3FF0
7FF8
6018
6018
E01C
E01C
C00E
ENDCHAR
STARTCHAR Aacute
ENCODING 193
SWIDTH 576 0
DWIDTH 16 0
BBX 15 26 1 0
BITMAP
00E0
01C0
0380
0300
0000
0000
0300
0780
0780
0780
0FC0
0CC0
0CC0
0CC0
1CE0
1860
1860
3870
3030
3FF0
7FF8
6018
6018
E01C
E01C
C00E
ENDCHAR
STARTCHAR Acircumflex
ENCODING 194
SWIDTH 576 0
DWIDTH 16 0
BBX 15 26 1 0
BITMAP
0300
0780
0EC0
0CE0
0000
0000
0300
0780
0780
0780
0FC0
0CC0
0CC0
0CC0
1CE0
1860
1860
3870
3030
3FF0
7FF8
6018
6018
E01C
E01C
C00E
ENDCHAR
STARTCHAR Atilde
ENCODING 195
SWIDTH 576 0
DWIDTH 16 0
BBX 15 25 1 0
BITMAP
0E60
1FE0
19C0
0000
0000
0300
0780
0780
0780
0FC0
0CC0
0CC0
0CC0
1CE0
1860
1860
3870
3030
3FF0
7FF8
6018
6018
E01C
E01C
C00E
ENDCHAR
STARTCHAR Adieresis
ENCODING 196
SWIDTH 576 0
DWIDTH 16 0
BBX 15 25 1 0
BITMAP
1860
1C70
1860
0000
0000
0300
0780
0780
0780
0FC0
0CC0
0CC0
0CC0
1CE0
1860
1860
3870
3030
3FF0
7FF8
6018
6018
E01C
E01C
C00E
ENDCHAR
STARTCHAR Aring
ENCODING 197
SWIDTH 576 0
DWIDTH 16 0
BBX 15 26 1 0
BITMAP
0780
0C80
08C0
08C0
0CC0
0780
0300
0780
0780
0780
0FC0
0CC0
0CC0
0CC0
1CE0
1860
1860
3870
3030
3FF0
7FF8
6018
6018
E01C
E01C
C00E
ENDCHAR
STARTCHAR AE
ENCODING 198
SWIDTH 812 0
DWIDTH 23 0
BBX 22 20 0 0
BITMAP
003FF8
007FF8
007800
00FC00
00DC00
01DC00
019C00
039C00
031C00
071FF0
071FF0
0E1C00
0E1C00
1FFC00
1FFC00
380C00
380C00
700C00
700FFC
E00FFC
ENDCHAR
STARTCHAR Ccedilla
ENCODING 199
SWIDTH 566 0
DWIDTH 16 0
BBX 13 26 2 -6
BITMAP
0F80
3FE0
78F0
6070
E030
E038
C038
C000
C000
C000
C000
C000
C000
C000
E038
E030
6070
70F0
3FE0
0F80
0600
0700
0300
0300
0300
0600
ENDCHAR
STARTCHAR Egrave
ENCODING 200
SWIDTH 496 0
DWIDTH 14 0
BBX 11 26 2 0
BITMAP
7800
3800
1C00
0E00
0000
0000
FFE0
FFE0
E000
E000
E000
E000
E000
E000
E000
FFC0
FFC0
E000
E000
E000
E000
E000
E000
E000
FFE0
FFE0
ENDCHAR
STARTCHAR Eacute
ENCODING 201
SWIDTH 496 0
DWIDTH 14 0
BBX 11 26 2 0
BITMAP
03C0
0700
0600
0E00
0000
0000
FFE0
FFE0
E000
E000
E000
E000
E000
E000
E000
FFC0
FFC0
E000
E000
E000
E000
E000
E000
E000
FFE0
FFE0
ENDCHAR
STARTCHAR Ecircumflex
ENCODING 202
SWIDTH 496 0
DWIDTH 14 0
BBX 11 26 2 0
BITMAP
0E00
1E00
1B00
3180
0000
0000
FFE0
FFE0
E000
E000
E000
E000
E000
E000
E000
FFC0
FFC0
E000
E000
E000
E000
E000
E000
E000
FFE0
FFE0
ENDCHAR
STARTCHAR Edieresis
ENCODING 203
SWIDTH 496 0
DWIDTH 14 0
BBX 11 25 2 0
BITMAP
7180
71C0
71C0
0000
0000
FFE0
FFE0
E000
E000
E000
E000
E000
E000
E000
FFC0
FFC0
E000
E000
E000
E000
E000
E000
E000
FFE0
FFE0
ENDCHAR
STARTCHAR Igrave
ENCODING 204
SWIDTH 250 0
DWIDTH 7 0
BBX 6 26 -1 0
BITMAP
F0
30
38
1C
00
00
1C
1C
1C
1C
1C
1C
1C
1C
1C
1C
1C
1C
1C
1C
1C
1C
1C
1C
1C
1C
ENDCHAR
STARTCHAR Iacute
ENCODING 205
SWIDTH 250 0
DWIDTH 7 0
BBX 6 26 2 0
BITMAP
3C
30
70
E0
00
00
E0
E0
E0
E0
E0
E0
E0
E0
E0
E0
E0
E0
E0
E0
E0
E0
E0
E0
E0
E0
ENDCHAR
STARTCHAR Icircumflex
ENCODING 206
SWIDTH 250 0
DWIDTH 7 0
BBX 7 26 0 0
BITMAP
38
78
6C
C6
00
00
38
38
38
38
38
38
38
38
38
38
38
38
38
38
38
38
38
38
38
38
ENDCHAR
STARTCHAR Idieresis
ENCODING 207
SWIDTH 250 0
DWIDTH 7 0
BBX 9 25 -1 0
BITMAP
E380
E380
E380
0000
0000
1C00
1C00
1C00
1C00
1C00
1C00
1C00
1C00
1C00
1C00
1C00
1C00
1C00
1C00
1C00
1C00
1C00
1C00
1C00
1C00
ENDCHAR
STARTCHAR Eth
ENCODING 208
SWIDTH 585 0
DWIDTH 16 0
BBX 14 20 0 0
BITMAP
3FC0
3FF0
3878
3818
381C
380C
380C
380C
380C
FE0C
FE0C
380C
380C
380C
380C
381C
3818
3878
3FF0
3FC0
ENDCHAR
STARTCHAR Ntilde
ENCODING 209
SWIDTH 619 0
DWIDTH 17 0
BBX 13 25 2 0
BITMAP
0E60
1FC0
31C0
0000
0000
E038
E038
F038
F038
F838
D838
DC38
CC38
CE38
C638
C738
C338
C3B8
C1B8
C0F8
C0F8
C078
C078
C038
C038
ENDCHAR
STARTCHAR Ograve
ENCODING 210
SWIDTH 600 0
DWIDTH 17 0
BBX 13 26 2 0
BITMAP
3C00
0C00
0E00
0700
0000
0000
0F80
3FE0
7870
6030
E038
E038
C018
C018
C018
C018
C018
C018
C018
C018
E038
E038
6030
7870
3FE0
0F80
ENDCHAR
STARTCHAR Oacute
ENCODING 211
SWIDTH 600 0
DWIDTH 17 0
BBX 13 26 2 0
BITMAP
01E0
0180
0300
0700
0000
0000
0F80
3FE0
7870
6030
E038
E038
C018
C018
C018
C018
C018
C018
C018
C018
E038
E038
6030
7870
3FE0
0F80
ENDCHAR
STARTCHAR Ocircumflex
ENCODING 212
SWIDTH 600 0
DWIDTH 17 0
BBX 13 26 2 0
BITMAP
0700
0F00
0D80
18C0
0000
0000
0F80
3FE0
7870
6030
E038
E038
C018
C018
C018
C018
C018
C018
C018
C018
E038
E038
6030
7870
3FE0
0F80
ENDCHAR
STARTCHAR Otilde
ENCODING 213
SWIDTH 600 0
DWIDTH 17 0
BBX 13 25 2 0
BITMAP
1C60
1FC0
3380
0000
0000
0F80
3FE0
7870
6030
E038
E038
C018
C018
C018
C018
C018
C018
C018
C018
E038
E038
6030
7870
3FE0
0F80
ENDCHAR
STARTCHAR Odieresis
ENCODING 214
SWIDTH 600 0
DWIDTH 17 0
BBX 13 25 2 0
BITMAP
38E0
38E0
38E0
0000
0000
0F80
3FE0
7870
6030
E038
E038
C018
C018
C018
C018
C018
C018
C018
C018
E038
E038
6030
7870
3FE0
0F80
ENDCHAR
STARTCHAR multiply
ENCODING 215
SWIDTH 470 0
DWIDTH 13 0
BBX 11 12 1 3
BITMAP
4040
E0E0
71C0
3B80
1F00
0E00
0E00
1F00
3B80
71C0
E0E0
4040
ENDCHAR
STARTCHAR Oslash
ENCODING 216
SWIDTH 600 0
DWIDTH 17 0
BBX 14 22 2 -1
BITMAP
000C
0F98
3FF0
38F0
7070
E070
E0F8
C0D8
C198
C198
C318
C318
C618
C618
CC18
EC38
F838
7070
38E0
3FE0
6F80
C000
ENDCHAR
STARTCHAR Ugrave
ENCODING 217
SWIDTH 561 0
DWIDTH 16 0
BBX 12 26 2 0
BITMAP
3800
1C00
0E00
0600
0000
0000
C030
C030
C030
C030
C030
C030
C030
C030
C030
C030
C030
C030
C030
C030
C030
E070
E070
70E0
3FC0
1F80
ENDCHAR
STARTCHAR Uacute
ENCODING 218
SWIDTH 561 0
DWIDTH 16 0
BBX 12 26 2 0
BITMAP
01C0
0380
0700
0E00
0000
0000
C030
C030
C030
C030
C030
C030
C030
C030
C030
C030
C030
C030
C030
C030
C030
E070
E070
70E0
3FC0
1F80
ENDCHAR
STARTCHAR Ucircumflex
ENCODING 219
SWIDTH 561 0
DWIDTH 16 0
BBX 12 26 2 0
BITMAP
0600
0F00
1B80
3980
0000
0000
C030
C030
C030
C030
C030
C030
C030
C030
C030
C030
C030
C030
C030
C030
C030
E070
E070
70E0
3FC0
1F80
ENDCHAR
STARTCHAR Udieresis
ENCODING 220
SWIDTH 561 0
DWIDTH 16 0
BBX 12 25 2 0
BITMAP
30C0
71C0
30C0
0000
0000
C030
C030
C030
C030
C030
C030
C030
C030
C030
C030
C030
C030
C030
C030
C030
E070
E070
70E0
3FC0
1F80
ENDCHAR
STARTCHAR Yacute
ENCODING 221
SWIDTH 524 0
DWIDTH 15 0
BBX 14 26 0 0
BITMAP
00F0
01C0
0180
0380
0000
0000
E01C
701C
3038
3838
3830
1870
1C60
0CE0
0EC0
06C0
07C0
0380
0380
0380
0380
0380
0380
0380
0380
0380
ENDCHAR
STARTCHAR Thorn
ENCODING 222
SWIDTH 515 0
DWIDTH 14 0
BBX 11 20 2 0
BITMAP
C000
C000
C000
C000
FF00
FF80
C1C0
C0E0
C0E0
C060
C0E0
C0E0
C0E0
C1C0
FF80
FF00
C000
C000
C000
C000
ENDCHAR
STARTCHAR germandbls
ENCODING 223
SWIDTH 521 0
DWIDTH 15 0
BBX 12 21 2 0
BITMAP
1E00
7F00
6380
E180
E180
C180
C380
C300
C700
C700
C700
C300
C380
C1C0
C0E0
C060
C070
C070
C8E0
CFE0
CF80
ENDCHAR
STARTCHAR agrave
ENCODING 224
SWIDTH 479 0
DWIDTH 13 0
BBX 11 21 1 0
BITMAP
3800
1C00
0E00
0600
0000
0000
1F00
3F80
71C0
60C0
00C0
00C0
1FC0
3FC0
70C0
60C0
E0C0
E0C0
61C0
7FC0
3CE0
ENDCHAR
STARTCHAR aacute
ENCODING 225
SWIDTH 479 0
DWIDTH 13 0
BBX 11 21 1 0
BITMAP
01C0
0380
0700
0600
0000
0000
1F00
3F80
71C0
60C0
00C0
00C0
1FC0
3FC0
70C0
60C0
E0C0
E0C0
61C0
7FC0
3CE0
ENDCHAR
STARTCHAR acircumflex
ENCODING 226
SWIDTH 479 0
DWIDTH 13 0
BBX 11 21 1 0
BITMAP
0600
0F00
1980
39C0
0000
0000
1F00
3F80
71C0
60C0
00C0
00C0
1FC0
3FC0
70C0
60C0
E0C0
E0C0
61C0
7FC0
3CE0
ENDCHAR
STARTCHAR atilde
ENCODING 227
SWIDTH 479 0
DWIDTH 13 0
BBX 11 20 1 0
BITMAP
1CC0
3FC0
3380
0000
0000
1F00
3F80
71C0
60C0
00C0
00C0
1FC0
3FC0
70C0
60C0
E0C0
E0C0
61C0
7FC0
3CE0
ENDCHAR
STARTCHAR adieresis
ENCODING 228
SWIDTH 479 0
DWIDTH 13 0
BBX 11 20 1 0
BITMAP
30C0
39C0
30C0
0000
0000
1F00
3F80
71C0
60C0
00C0
00C0
1FC0
3FC0
70C0
60C0
E0C0
E0C0
61C0
7FC0
3CE0
ENDCHAR
STARTCHAR aring
ENCODING 229
SWIDTH 479 0
DWIDTH 13 0
BBX 11 23 1 0
BITMAP
0E00
1900
1180
1180
1900
0E00
0000
0000
1F00
3F80
71C0
60C0
00C0
00C0
1FC0
3FC0
70C0
60C0
E0C0
E0C0
61C0
7FC0
3CE0
ENDCHAR
STARTCHAR ae
ENCODING 230
SWIDTH 728 0
DWIDTH 20 0
BBX 18 15 1 0
BITMAP
1F1E00
7FBF80
71F180
E1E1C0
00C0C0
00C0C0
3FFFC0
7FFFC0
F0C000
E0C000
C0C000
C1E000
E3F0C0
7F3FC0
3E1F00
ENDCHAR
STARTCHAR ccedilla
ENCODING 231
SWIDTH 461 0
DWIDTH 13 0
BBX 11 21 1 -6
BITMAP
1F00
3FC0
70C0
60E0
6060
E000
E000
E000
E000
E000
6060
60E0
70C0
3FC0
1F00
0C00
0E00
0700
0300
0600
0C00
ENDCHAR
STARTCHAR egrave
ENCODING 232
SWIDTH 468 0
DWIDTH 13 0
BBX 11 21 1 0
BITMAP
7800
1C00
0C00
0600
0000
0000
1F00
3FC0
71C0
60E0
60E0
E060
FFE0
FFE0
E000
E000
E000
6040
70E0
3FC0
1F80
ENDCHAR
STARTCHAR eacute
ENCODING 233
SWIDTH 468 0
DWIDTH 13 0
BBX 11 21 1 0
BITMAP
01C0
0380
0700
0E00
0000
0000
1F00
3FC0
71C0
60E0
60E0
E060
FFE0
FFE0
E000
E000
E000
6040
70E0
3FC0
1F80
ENDCHAR
STARTCHAR ecircumflex
ENCODING 234
SWIDTH 468 0
DWIDTH 13 0
BBX 11 21 1 0
BITMAP
0600
0F00
1B80
3180
0000
0000
1F00
3FC0
71C0
60E0
60E0
E060
FFE0
FFE0
E000
E000
E000
6040
70E0
3FC0
1F80
ENDCHAR
STARTCHAR edieresis
ENCODING 235
SWIDTH 468 0
DWIDTH 13 0
BBX 11 20 1 0
BITMAP
30C0
71C0
30C0
0000
0000
1F00
3FC0
71C0
60E0
60E0
E060
FFE0
FFE0
E000
E000
E000
6040
70E0
3FC0
1F80
ENDCHAR
STARTCHAR igrave
ENCODING 236
SWIDTH 234 0
DWIDTH 7 0
BBX 6 21 -1 0
BITMAP
E0
70
38
1C
00
00
18
18
18
18
18
18
18
18
18
18
18
18
18
18
18
ENDCHAR
STARTCHAR iacute
ENCODING 237
SWIDTH 234 0
DWIDTH 7 0
BBX 6 21 2 0
BITMAP
3C
70
60
C0
00
00
C0
C0
C0
C0
C0
C0
C0
C0
C0
C0
C0
C0
C0
C0
C0
ENDCHAR
STARTCHAR icircumflex
ENCODING 238
SWIDTH 234 0
DWIDTH 7 0
BBX 7 21 0 0
BITMAP
30
78
EC
C6
00
00
30
30
30
30
30
30
30
30
30
30
30
30
30
30
30
ENDCHAR
STARTCHAR idieresis
ENCODING 239
SWIDTH 234 0
DWIDTH 7 0
BBX 9 20 -1 0
BITMAP
E300
E380
E300
0000
0000
1800
1800
1800
1800
1800
1800
1800
1800
1800
1800
1800
1800
1800
1800
1800
ENDCHAR
STARTCHAR eth
ENCODING 240
SWIDTH 513 0
DWIDTH 14 0
BBX 11 21 1 0
BITMAP
3000
3C40
1FC0
0780
0780
1DC0
08C0
00E0
0FE0
3FE0
78E0
7060
6060
E060
E060
E060
6060
70E0
79C0
3F80
0F00
ENDCHAR
STARTCHAR ntilde
ENCODING 241
SWIDTH 483 0
DWIDTH 14 0
BBX 10 20 2 0
BITMAP
3980
7F80
4700
0000
0000
CF00
DF80
F1C0
E1C0
C0C0
C0C0
C0C0
C0C0
C0C0
C0C0
C0C0
C0C0
C0C0
C0C0
C0C0
ENDCHAR
STARTCHAR ograve
ENCODING 242
SWIDTH 501 0
DWIDTH 14 0
BBX 12 21 1 0
BITMAP
3800
1C00
0E00
0600
0000
0000
0F00
3FC0
70E0
60E0
E060
E070
E070
E070
E070
E070
E060
6060
70E0
3FC0
0F00
ENDCHAR
STARTCHAR oacute
ENCODING 243
SWIDTH 501 0
DWIDTH 14 0
BBX 12 21 1 0
BITMAP
01C0
0380
0700
0E00
0000
0000
0F00
3FC0
70E0
60E0
E060
E070
E070
E070
E070
E070
E060
6060
70E0
3FC0
0F00
ENDCHAR
STARTCHAR ocircumflex
ENCODING 244
SWIDTH 501 0
DWIDTH 14 0
BBX 12 21 1 0
BITMAP
0600
0F00
1B80
3980
0000
0000
0F00
3FC0
70E0
60E0
E060
E070
E070
E070
E070
E070
E060
6060
70E0
3FC0
0F00
ENDCHAR
STARTCHAR otilde
ENCODING 245
SWIDTH 501 0
DWIDTH 14 0
BBX 12 20 1 0
BITMAP
1CC0
3FC0
3380
0000
0000
0F00
3FC0
70E0
60E0
E060
E070
E070
E070
E070
E070
E060
6060
70E0
3FC0
0F00
ENDCHAR
STARTCHAR odieresis
ENCODING 246
SWIDTH 501 0
DWIDTH 14 0
BBX 12 20 1 0
BITMAP
30C0
71C0
30C0
0000
0000
0F00
3FC0
70E0
60E0
E060
E070
E070
E070
E070
E070
E060
6060
70E0
3FC0
0F00
ENDCHAR
STARTCHAR divide
ENCODING 247
SWIDTH 500 0
DWIDTH 14 0
BBX 12 14 1 3
BITMAP
0600
0E00
0600
0000
0000
0000
FFF0
FFF0
0000
0000
0000
0600
0E00
0600
ENDCHAR
STARTCHAR oslash
ENCODING 248
SWIDTH 498 0
DWIDTH 14 0
BBX 12 18 1 -2
BITMAP
0060
0FC0
3FC0
39C0
71E0
6160
E370
E270
E670
E670
EC70
6C60
78E0
38C0
3FC0
3F00
3000
2000
ENDCHAR
STARTCHAR ugrave
ENCODING 249
SWIDTH 483 0
DWIDTH 14 0
BBX 10 21 2 0
BITMAP
F000
3800
1800
0C00
0000
0000
C1C0
C1C0
C1C0
C1C0
C1C0
C1C0
C1C0
C1C0
C1C0
C1C0
C1C0
E1C0
E3C0
7FC0
3CC0
ENDCHAR
STARTCHAR uacute
ENCODING 250
SWIDTH 483 0
DWIDTH 14 0
BBX 10 21 2 0
BITMAP
0380
0700
0E00
1C00
0000
0000
C1C0
C1C0
C1C0
C1C0
C1C0
C1C0
C1C0
C1C0
C1C0
C1C0
C1C0
E1C0
E3C0
7FC0
3CC0
ENDCHAR
STARTCHAR ucircumflex
ENCODING 251
SWIDTH 483 0
DWIDTH 14 0
BBX 10 21 2 0
BITMAP
0C00
1E00
3700
6300
0000
0000
C1C0
C1C0
C1C0
C1C0
C1C0
C1C0
C1C0
C1C0
C1C0
C1C0
C1C0
E1C0
E3C0
7FC0
3CC0
ENDCHAR
STARTCHAR udieresis
ENCODING 252
SWIDTH 483 0
DWIDTH 14 0
BBX 10 20 2 0
BITMAP
6180
E380
6180
0000
0000
C1C0
C1C0
C1C0
C1C0
C1C0
C1C0
C1C0
C1C0
C1C0
C1C0
C1C0
E1C0
E3C0
7FC0
3CC0
ENDCHAR
STARTCHAR yacute
ENCODING 253
SWIDTH 416 0
DWIDTH 12 0
BBX 10 27 1 -6
BITMAP
0380
0700
0E00
0C00
0000
0000
C0C0
E1C0
E1C0
6180
6180
7380
3300
3300
3300
3F00
1E00
1E00
1E00
0C00
0C00
0C00
0C00
1800
1800
F000
E000
ENDCHAR
STARTCHAR thorn
ENCODING 254
SWIDTH 508 0
DWIDTH 14 0
BBX 11 27 2 -6
BITMAP
C000
C000
C000
C000
C000
C000
DF00
FF80
E3C0
C1C0
C0C0
C0C0
C0C0
C0E0
C0C0
C0C0
C0C0
C1C0
E380
FF80
DF00
C000
C000
C000
C000
C000
C000
ENDCHAR
STARTCHAR ydieresis
ENCODING 255
SWIDTH 416 0
DWIDTH 12 0
BBX 10 26 1 -6
BITMAP
6180
71C0
6180
0000
0000
C0C0
E1C0
E1C0
6180
6180
7380
3300
3300
3300
3F00
1E00
1E00
1E00
0C00
0C00
0C00
0C00
1800
1800
F000
E000
ENDCHAR
STARTCHAR Amacron
ENCODING 256
SWIDTH 576 0
DWIDTH 16 0
BBX 15 24 1 0
BITMAP
1FE0
1FE0
0000
0000
0300
0780
0780
0780
0FC0
0CC0
0CC0
0CC0
1CE0
1860
1860
3870
3030
3FF0
7FF8
6018
6018
E01C
E01C
C00E
ENDCHAR
STARTCHAR amacron
ENCODING 257
SWIDTH 479 0
DWIDTH 13 0
BBX 11 20 1 0
BITMAP
3FC0
3FC0
0000
0000
0000
1F00
3F80
71C0
60C0
00C0
00C0
1FC0
3FC0
70C0
60C0
E0C0
E0C0
61C0
7FC0
3CE0
ENDCHAR
STARTCHAR Abreve
ENCODING 258
SWIDTH 576 0
DWIDTH 16 0
BBX 15 25 1 0
BITMAP
1860
1C60
0FC0
0780
0000
0300
0780
0780
0780
0FC0
0CC0
0CC0
0CC0
1CE0
1860
1860
3870
3030
3FF0
7FF8
6018
6018
E01C
E01C
C00E
ENDCHAR
STARTCHAR abreve
ENCODING 259
SWIDTH 479 0
DWIDTH 13 0
BBX 11 20 1 0
BITMAP
30C0
39C0
1F80
0F00
0000
1F00
3F80
71C0
60C0
00C0
00C0
1FC0
3FC0
70C0
60C0
E0C0
E0C0
61C0
7FC0
3CE0
ENDCHAR
STARTCHAR Aogonek
ENCODING 260
SWIDTH 576 0
DWIDTH 16 0
BBX 15 26 1 -6
BITMAP
0300
0780
0780
0780
0FC0
0CC0
0CC0
0CC0
1CE0
1860
1860
3870
3030
3FF0
7FF8
6018
6018
E01C
E01C
C00C
001A
0038
0030
0030
003C
001C
ENDCHAR
STARTCHAR aogonek
ENCODING 261
SWIDTH 479 0
DWIDTH 13 0
BBX 11 21 1 -6
BITMAP
1F00
3F80
71C0
60C0
00C0
00C0
1FC0
3FC0
70C0
60C0
E0C0
E0C0
61C0
7FC0
3CE0
00C0
0180
0300
0300
03C0
01C0
ENDCHAR
STARTCHAR Cacute
ENCODING 262
SWIDTH 566 0
DWIDTH 16 0
BBX 13 26 2 0
BITMAP
01C0
0380
0700
0600
0000
0000
0F80
3FE0
78F0
6070
E030
E038
C038
C000
C000
C000
C000
C000
C000
C000
E038
E030
6070
70F0
3FE0
0F80
ENDCHAR
STARTCHAR cacute
ENCODING 263
SWIDTH 461 0
DWIDTH 13 0
BBX 11 21 1 0
BITMAP
03C0
0700
0600
0C00
0000
0000
1F00
3FC0
70C0
60E0
6060
E000
E000
E000
E000
E000
6060
60E0
70C0
3FC0
1F00
ENDCHAR
STARTCHAR Ccircumflex
ENCODING 264
SWIDTH 566 0
DWIDTH 16 0
BBX 13 26 2 0
BITMAP
0600
0F00
1980
39C0
0000
0000
0F80
3FE0
78F0
6070
E030
E038
C038
C000
C000
C000
C000
C000
C000
C000
E038
E030
6070
70F0
3FE0
0F80
ENDCHAR
STARTCHAR ccircumflex
ENCODING 265
SWIDTH 461 0
DWIDTH 13 0
BBX 11 21 1 0
BITMAP
0C00
1E00
3B00
3180
0000
0000
1F00
3FC0
70C0
60E0
6060
E000
E000
E000
E000
E000
6060
60E0
70C0
3FC0
1F00
ENDCHAR
STARTCHAR Cdotaccent
ENCODING 266
SWIDTH 566 0
DWIDTH 16 0
BBX 13 25 2 0
BITMAP
0600
0700
0600
0000
0000
0F80
3FE0
78F0
6070
E030
E038
C038
C000
C000
C000
C000
C000
C000
C000
E038
E030
6070
70F0
3FE0
0F80
ENDCHAR
STARTCHAR cdotaccent
ENCODING 267
SWIDTH 461 0
DWIDTH 13 0
BBX 11 20 1 0
BITMAP
0E00
0E00
0E00
0000
0000
1F00
3FC0
70C0
60E0
6060
E000
E000
E000
E000
E000
6060
60E0
70C0
3FC0
1F00
ENDCHAR
STARTCHAR Ccaron
ENCODING 268
SWIDTH 566 0
DWIDTH 16 0
BBX 13 26 2 0
BITMAP
39C0
1980
0F00
0600
0000
0000
0F80
3FE0
78F0
6070
E030
E038
C038
C000
C000
C000
C000
C000
C000
C000
E038
E030
6070
70F0
3FE0
0F80
ENDCHAR
STARTCHAR ccaron
ENCODING 269
SWIDTH 461 0
DWIDTH 13 0
BBX 11 21 1 0
BITMAP
3180
1B00
1E00
0C00
0000
0000
1F00
3FC0
70C0
60E0
6060
E000
E000
E000
E000
E000
6060
60E0
70C0
3FC0
1F00
ENDCHAR
STARTCHAR Dcaron
ENCODING 270
SWIDTH 570 0
DWIDTH 16 0
BBX 12 26 2 0
BITMAP
3180
1B00
1E00
0C00
0000
0000
FF00
FFC0
E1E0
E060
E070
E070
E030
E030
E030
E030
E030
E030
E030
E030
E070
E070
E0E0
E1E0
FFC0
FF00
ENDCHAR
STARTCHAR dcaron
ENCODING 271
SWIDTH 569 0
DWIDTH 16 0
BBX 15 21 1 0
BITMAP
0066
0066
006E
006C
006C
0060
1E60
3F60
70E0
60E0
6060
E060
E060
E060
E060
E060
6060
60E0
70E0
3F60
1E60
ENDCHAR
STARTCHAR Dcroat
ENCODING 272
SWIDTH 585 0
DWIDTH 16 0
BBX 14 20 0 0
BITMAP
3FC0
3FF0
3878
3818
381C
380C
380C
380C
380C
FE0C
FE0C
380C
380C
380C
380C
381C
3818
3878
3FF0
3FC0
ENDCHAR
STARTCHAR dcroat
ENCODING 273
SWIDTH 529 0
DWIDTH 15 0
BBX 13 21 1 0
BITMAP
0060
0060
03F8
03F8
0060
0060
1E60
3FE0
70E0
70E0
6060
E060
E060
E060
E060
6060
6060
70E0
70E0
3FE0
1F60
ENDCHAR
STARTCHAR Emacron
ENCODING 274
SWIDTH 496 0
DWIDTH 14 0
BBX 11 25 2 0
BITMAP
3FC0
3FC0
0000
0000
0000
FFE0
FFE0
E000
E000
E000
E000
E000
E000
E000
FFC0
FFC0
E000
E000
E000
E000
E000
E000
E000
FFE0
FFE0
ENDCHAR
STARTCHAR emacron
ENCODING 275
SWIDTH 468 0
DWIDTH 13 0
BBX 11 20 1 0
BITMAP
3FC0
3FC0
0000
0000
0000
1F00
3FC0
71C0
60E0
60E0
E060
FFE0
FFE0
E000
E000
E000
6040
70E0
3FC0
1F80
ENDCHAR
STARTCHAR Ebreve
ENCODING 276
SWIDTH 496 0
DWIDTH 14 0
BBX 11 25 2 0
BITMAP
61C0
3180
3F80
1F00
0000
FFE0
FFE0
E000
E000
E000
E000
E000
E000
E000
FFC0
FFC0
E000
E000
E000
E000
E000
E000
E000
FFE0
FFE0
ENDCHAR
STARTCHAR ebreve
ENCODING 277
SWIDTH 468 0
DWIDTH 13 0
BBX 11 20 1 0
BITMAP
30C0
31C0
3F80
0F00
0000
1F00
3FC0
71C0
60E0
60E0
E060
FFE0
FFE0
E000
E000
E000
6040
70E0
3FC0
1F80
ENDCHAR
STARTCHAR Edotaccent
ENCODING 278
SWIDTH 496 0
DWIDTH 14 0
BBX 11 25 2 0
BITMAP
0E00
0E00
0E00
0000
0000
FFE0
FFE0
E000
E000
E000
E000
E000
E000
E000
FFC0
FFC0
E000
E000
E000
E000
E000
E000
E000
FFE0
FFE0
ENDCHAR
STARTCHAR edotaccent
ENCODING 279
SWIDTH 468 0
DWIDTH 13 0
BBX 11 20 1 0
BITMAP
0600
0E00
0600
0000
0000
1F00
3FC0
71C0
60E0
60E0
E060
FFE0
FFE0
E000
E000
E000
6040
70E0
3FC0
1F80
ENDCHAR
STARTCHAR Eogonek
ENCODING 280
SWIDTH 496 0
DWIDTH 14 0
BBX 11 26 2 -6
BITMAP
FFE0
FFE0
E000
E000
E000
E000
E000
E000
E000
FFC0
FFC0
E000
E000
E000
E000
E000
E000
E000
FFE0
FFE0
01C0
0180
0300
0300
03C0
01C0
ENDCHAR
STARTCHAR eogonek
ENCODING 281
SWIDTH 468 0
DWIDTH 13 0
BBX 11 21 1 -6
BITMAP
1F00
3FC0
71C0
60E0
60E0
E060
FFE0
FFE0
E000
E000
E000
6040
70E0
3FC0
1F80
0600
0600
0600
0E00
0780
0780
ENDCHAR
STARTCHAR Ecaron
ENCODING 282
SWIDTH 496 0
DWIDTH 14 0
BBX 11 26 2 0
BITMAP
3180
1B00
0E00
0C00
0000
0000
FFE0
FFE0
E000
E000
E000
E000
E000
E000
E000
FFC0
FFC0
E000
E000
E000
E000
E000
E000
E000
FFE0
FFE0
ENDCHAR
STARTCHAR ecaron
ENCODING 283
SWIDTH 468 0
DWIDTH 13 0
BBX 11 21 1 0
BITMAP
3180
1B00
0F00
0600
0000
0000
1F00
3FC0
71C0
60E0
60E0
E060
FFE0
FFE0
E000
E000
E000
6040
70E0
3FC0
1F80
ENDCHAR
STARTCHAR Gcircumflex
ENCODING 284
SWIDTH 590 0
DWIDTH 17 0
BBX 13 26 2 0
BITMAP
0600
0F00
1980
39C0
0000
0000
0F80
3FE0
7870
6030
E038
E038
E000
C000
C000
C000
C1F8
C1F8
C038
E038
E038
E038
7038
7878
3FF0
0FC0
ENDCHAR
STARTCHAR gcircumflex
ENCODING 285
SWIDTH 492 0
DWIDTH 14 0
BBX 11 27 1 -6
BITMAP
0E00
0F00
1B00
3180
0000
0000
1E60
3FE0
70E0
6060
6060
E060
E060
E060
E060
E060
6060
60E0
70E0
3FE0
1E60
0060
0060
20E0
31C0
7FC0
1F00
ENDCHAR
STARTCHAR Gbreve
ENCODING 286
SWIDTH 590 0
DWIDTH 17 0
BBX 13 25 2 0
BITMAP
30C0
31C0
1F80
0F00
0000
0F80
3FE0
7870
6030
E038
E038
E000
C000
C000
C000
C1F8
C1F8
C038
E038
E038
E038
7038
7878
3FF0
0FC0
ENDCHAR
STARTCHAR gbreve
ENCODING 287
SWIDTH 492 0
DWIDTH 14 0
BBX 11 26 1 -6
BITMAP
30C0
31C0
3F80
0F00
0000
1E60
3FE0
70E0
6060
6060
E060
E060
E060
E060
E060
6060
60E0
70E0
3FE0
1E60
0060
0060
20E0
31C0
7FC0
1F00
ENDCHAR
STARTCHAR Gdotaccent
ENCODING 288
SWIDTH 590 0
DWIDTH 17 0
BBX 13 25 2 0
BITMAP
0600
0E00
0700
0000
0000
0F80
3FE0
7870
6030
E038
E038
E000
C000
C000
C000
C1F8
C1F8
C038
E038
E038
E038
7038
7878
3FF0
0FC0
ENDCHAR
STARTCHAR gdotaccent
ENCODING 289
SWIDTH 492 0
DWIDTH 14 0
BBX 11 26 1 -6
BITMAP
0600
0E00
0600
0000
0000
1E60
3FE0
70E0
6060
6060
E060
E060
E060
E060
E060
6060
60E0
70E0
3FE0
1E60
0060
0060
20E0
31C0
7FC0
1F00
ENDCHAR
STARTCHAR uni0122
ENCODING 290
SWIDTH 590 0
DWIDTH 17 0
BBX 13 27 2 -7
BITMAP
0F80
3FE0
7870
6030
E038
E038
E000
C000
C000
C000
C1F8
C1F8
C038
E038
E038
E038
7038
7878
3FF0
0FC0
0000
0000
0300
0300
0700
0600
0600
ENDCHAR
STARTCHAR uni0123
ENCODING 291
SWIDTH 492 0
DWIDTH 14 0
BBX 11 29 1 -6
BITMAP
0200
0700
0600
0E00
0E00
0E00
0000
0000
1E60
3FE0
70E0
6060
6060
E060
E060
E060
E060
E060
6060
60E0
70E0
3FE0
1E60
0060
0060
20E0
31C0
7FC0
1F00
ENDCHAR
STARTCHAR Hcircumflex
ENCODING 292
SWIDTH 620 0
DWIDTH 17 0
BBX 13 26 2 0
BITMAP
0700
0F00
0D80
18C0
0000
0000
C038
C038
C038
C038
C038
C038
C038
C038
C038
FFF8
FFF8
C038
C038
C038
C038
C038
C038
C038
C038
C038
ENDCHAR
STARTCHAR hcircumflex
ENCODING 293
SWIDTH 482 0
DWIDTH 14 0
BBX 10 26 2 0
BITMAP
1800
3C00
6600
E700
0000
C000
C000
C000
C000
C000
C000
CF00
DF80
F1C0
E1C0
C0C0
C0C0
C0C0
C0C0
C0C0
C0C0
C0C0
C0C0
C0C0
C0C0
C0C0
ENDCHAR
STARTCHAR Hbar
ENCODING 294
SWIDTH 611 0
DWIDTH 17 0
BBX 16 20 1 0
BITMAP
700C
700C
700C
700C
FFFF
FFFF
700C
700C
700C
7FFC
7FFC
700C
700C
700C
700C
700C
700C
700C
700C
700C
ENDCHAR
STARTCHAR hbar
ENCODING 295
SWIDTH 497 0
DWIDTH 14 0
BBX 12 21 0 0
BITMAP
3800
3800
FE00
FE00
3800
3800
3BC0
3FE0
3C70
3830
3830
3830
3830
3830
3830
3830
3830
3830
3830
3830
3830
ENDCHAR
STARTCHAR Itilde
ENCODING 296
SWIDTH 250 0
DWIDTH 7 0
BBX 9 25 -1 0
BITMAP
7180
7F00
CF00
0000
0000
1C00
1C00
1C00
1C00
1C00
1C00
1C00
1C00
1C00
1C00
1C00
1C00
1C00
1C00
1C00
1C00
1C00
1C00
1C00
1C00
ENDCHAR
STARTCHAR itilde
ENCODING 297
SWIDTH 234 0
DWIDTH 7 0
BBX 8 20 -1 0
BITMAP
71
FF
CE
00
00
18
18
18
18
18
18
18
18
18
18
18
18
18
18
18
ENDCHAR
STARTCHAR Imacron
ENCODING 298
SWIDTH 250 0
DWIDTH 7 0
BBX 8 25 0 0
BITMAP
FF
FF
00
00
00
38
38
38
38
38
38
38
38
38
38
38
38
38
38
38
38
38
38
38
38
ENDCHAR
STARTCHAR imacron
ENCODING 299
SWIDTH 234 0
DWIDTH 7 0
BBX 8 20 -1 0
BITMAP
FF
FF
00
00
00
18
18
18
18
18
18
18
18
18
18
18
18
18
18
18
ENDCHAR
STARTCHAR Ibreve
ENCODING 300
SWIDTH 250 0
DWIDTH 7 0
BBX 9 25 -1 0
BITMAP
E180
6300
7F00
3E00
0000
1C00
1C00
1C00
1C00
1C00
1C00
1C00
1C00
1C00
1C00
1C00
1C00
1C00
1C00
1C00
1C00
1C00
1C00
1C00
1C00
ENDCHAR
STARTCHAR ibreve
ENCODING 301
SWIDTH 234 0
DWIDTH 7 0
BBX 8 20 -1 0
BITMAP
C3
E3
7F
3C
00
18
18
18
18
18
18
18
18
18
18
18
18
18
18
18
ENDCHAR
STARTCHAR Iogonek
ENCODING 302
SWIDTH 250 0
DWIDTH 7 0
BBX 5 26 0 -6
BITMAP
38
38
38
38
38
38
38
38
38
38
38
38
38
38
38
38
38
38
38
38
30
60
60
E0
78
70
ENDCHAR
STARTCHAR iogonek
ENCODING 303
SWIDTH 229 0
DWIDTH 6 0
BBX 4 26 0 -6
BITMAP
30
30
30
00
00
30
30
30
30
30
30
30
30
30
30
30
30
30
30
30
70
60
C0
C0
F0
70
ENDCHAR
STARTCHAR Idotaccent
ENCODING 304
SWIDTH 250 0
DWIDTH 7 0
BBX 3 25 2 0
BITMAP
E0
E0
E0
00
00
E0
E0
E0
E0
E0
E0
E0
E0
E0
E0
E0
E0
E0
E0
E0
E0
E0
E0
E0
E0
ENDCHAR
STARTCHAR dotlessi
ENCODING 305
SWIDTH 234 0
DWIDTH 7 0
BBX 2 15 2 0
BITMAP
C0
C0
C0
C0
C0
C0
C0
C0
C0
C0
C0
C0
C0
C0
C0
ENDCHAR
STARTCHAR IJ
ENCODING 306
SWIDTH 733 0
DWIDTH 21 0
BBX 17 20 2 0
BITMAP
E00380
E00380
E00380
E00380
E00380
E00380
E00380
E00380
E00380
E00380
E00380
E00380
E00380
E00380
E30380
E30300
E38700
E1C700
E1FE00
E07C00
ENDCHAR
STARTCHAR ij
ENCODING 307
SWIDTH 452 0
DWIDTH 13 0
BBX 9 26 2 -6
BITMAP
C300
C380
C300
0000
0000
C380
C380
C380
C380
C380
C380
C380
C380
C380
C380
C380
C380
C380
C380
C380
0380
0380
0380
0300
0F00
0E00
ENDCHAR
STARTCHAR Jcircumflex
ENCODING 308
SWIDTH 483 0
DWIDTH 14 0
BBX 13 26 1 0
BITMAP
00C0
01E0
0330
0738
0000
0000
00E0
00E0
00E0
00E0
00E0
00E0
00E0
00E0
00E0
00E0
00E0
00E0
00E0
00E0
C0E0
C0C0
E1C0
71C0
7F80
1F00
ENDCHAR
STARTCHAR jcircumflex
ENCODING 309
SWIDTH 237 0
DWIDTH 7 0
BBX 7 27 0 -6
BITMAP
38
78
6C
C6
00
00
38
38
38
38
38
38
38
38
38
38
38
38
38
38
38
38
38
38
30
F0
E0
ENDCHAR
STARTCHAR uni0136
ENCODING 310
SWIDTH 544 0
DWIDTH 15 0
BBX 13 26 2 -6
BITMAP
E078
E0E0
E0E0
E1C0
E380
E380
E700
EE00
FC00
FC00
FE00
F700
E700
E380
E1C0
E1C0
E0E0
E060
E070
E038
0000
0600
0600
0600
0E00
0400
ENDCHAR
STARTCHAR uni0137
ENCODING 311
SWIDTH 450 0
DWIDTH 13 0
BBX 11 27 2 -6
BITMAP
C000
C000
C000
C000
C000
C000
C1C0
C380
C700
C600
CE00
DC00
F800
FC00
FE00
EE00
C700
C300
C380
C1C0
C1C0
0020
1C00
1C00
1800
1800
1000
ENDCHAR
STARTCHAR kgreenlandic
ENCODING 312
SWIDTH 491 0
DWIDTH 14 0
BBX 11 15 2 0
BITMAP
C1E0
C180
C380
C700
CE00
CC00
FC00
FC00
CE00
CE00
C700
C380
C380
C1C0
C0E0
ENDCHAR
STARTCHAR Lacute
ENCODING 313
SWIDTH 475 0
DWIDTH 13 0
BBX 10 26 2 0
BITMAP
3C00
7000
6000
C000
0000
0000
E000
E000
E000
E000
E000
E000
E000
E000
E000
E000
E000
E000
E000
E000
E000
E000
E000
E000
FFC0
FFC0
ENDCHAR
STARTCHAR lacute
ENCODING 314
SWIDTH 229 0
DWIDTH 6 0
BBX 6 27 2 0
BITMAP
3C
70
60
C0
00
00
C0
C0
C0
C0
C0
C0
C0
C0
C0
C0
C0
C0
C0
C0
C0
C0
C0
C0
C0
C0
C0
ENDCHAR
STARTCHAR uni013B
ENCODING 315
SWIDTH 475 0
DWIDTH 13 0
BBX 10 27 2 -7
BITMAP
E000
E000
E000
E000
E000
E000
E000
E000
E000
E000
E000
E000
E000
E000
E000
E000
E000
E000
FFC0
FFC0
0000
0000
0E00
0E00
0E00
0C00
0800
ENDCHAR
STARTCHAR uni013C
ENCODING 316
SWIDTH 229 0
DWIDTH 6 0
BBX 4 28 1 -7
BITMAP
60
60
60
60
60
60
60
60
60
60
60
60
60
60
60
60
60
60
60
60
60
00
00
70
70
60
60
C0
ENDCHAR
STARTCHAR Lcaron
ENCODING 317
SWIDTH 475 0
DWIDTH 13 0
BBX 10 20 2 0
BITMAP
E300
E300
E300
E700
E200
E000
E000
E000
E000
E000
E000
E000
E000
E000
E000
E000
E000
E000
FFC0
FFC0
ENDCHAR
STARTCHAR lcaron
ENCODING 318
SWIDTH 302 0
DWIDTH 8 0
BBX 7 21 2 0
BITMAP
CE
CE
CE
CC
C8
C0
C0
C0
C0
C0
C0
C0
C0
C0
C0
C0
C0
C0
C0
C0
C0
ENDCHAR
STARTCHAR Ldot
ENCODING 319
SWIDTH 475 0
DWIDTH 13 0
BBX 10 20 2 0
BITMAP
E000
E000
E000
E000
E000
E000
E000
E000
E700
E700
E700
E000
E000
E000
E000
E000
E000
E000
FFC0
FFC0
ENDCHAR
STARTCHAR ldot
ENCODING 320
SWIDTH 336 0
DWIDTH 9 0
BBX 7 21 2 0
BITMAP
C0
C0
C0
C0
C0
C0
C0
C0
C0
CC
CE
CC
C0
C0
C0
C0
C0
C0
C0
C0
C0
ENDCHAR
STARTCHAR Lslash
ENCODING 321
SWIDTH 475 0
DWIDTH 13 0
BBX 11 20 1 0
BITMAP
7000
7000
7000
7000
7000
7000
7000
7600
7E00
F800
F000
F000
7000
7000
7000
7000
7000
7000
7FE0
7FE0
ENDCHAR
STARTCHAR lslash
ENCODING 322
SWIDTH 250 0
DWIDTH 7 0
BBX 5 21 1 0
BITMAP
70
70
70
70
70
70
70
70
78
78
F0
F0
F0
70
70
70
70
70
70
70
70
ENDCHAR
STARTCHAR Nacute
ENCODING 323
SWIDTH 619 0
DWIDTH 17 0
BBX 13 26 2 0
BITMAP
01E0
01C0
0380
0700
0000
0000
E038
E038
F038
F038
F838
D838
DC38
CC38
CE38
C638
C738
C338
C3B8
C1B8
C0F8
C0F8
C078
C078
C038
C038
ENDCHAR
STARTCHAR nacute
ENCODING 324
SWIDTH 483 0
DWIDTH 14 0
BBX 10 21 2 0
BITMAP
0380
0700
0E00
1C00
0000
0000
CF00
DF80
F1C0
E1C0
C0C0
C0C0
C0C0
C0C0
C0C0
C0C0
C0C0
C0C0
C0C0
C0C0
C0C0
ENDCHAR
STARTCHAR uni0145
ENCODING 325
SWIDTH 619 0
DWIDTH 17 0
BBX 13 27 2 -7
BITMAP
E038
E038
F038
F038
F838
D838
DC38
CC38
CE38
C638
C738
C338
C3B8
C1B8
C0F8
C0F8
C078
C078
C038
C038
0000
0000
0300
0300
0700
0600
0600
ENDCHAR
STARTCHAR uni0146
ENCODING 326
SWIDTH 483 0
DWIDTH 14 0
BBX 10 22 2 -7
BITMAP
CF00
DF80
F1C0
E1C0
C0C0
C0C0
C0C0
C0C0
C0C0
C0C0
C0C0
C0C0
C0C0
C0C0
C0C0
0000
0000
0C00
0C00
0C00
1800
1800
ENDCHAR
STARTCHAR Ncaron
ENCODING 327
SWIDTH 619 0
DWIDTH 17 0
BBX 13 26 2 0
BITMAP
18C0
0D80
0700
0300
0000
0000
E038
E038
F038
F038
F838
D838
DC38
CC38
CE38
C638
C738
C338
C3B8
C1B8
C0F8
C0F8
C078
C078
C038
C038
ENDCHAR
STARTCHAR ncaron
ENCODING 328
SWIDTH 483 0
DWIDTH 14 0
BBX 10 21 2 0
BITMAP
7380
3600
1E00
0C00
0000
0000
CF00
DF80
F1C0
E1C0
C0C0
C0C0
C0C0
C0C0
C0C0
C0C0
C0C0
C0C0
C0C0
C0C0
C0C0
ENDCHAR
STARTCHAR napostrophe
ENCODING 329
SWIDTH 483 0
DWIDTH 14 0
BBX 12 21 0 0
BITMAP
E000
E000
E000
C000
C000
0000
33C0
37E0
3C70
3870
3030
3030
3030
3030
3030
3030
3030
3030
3030
3030
3030
ENDCHAR
STARTCHAR Eng
ENCODING 330
SWIDTH 599 0
DWIDTH 17 0
BBX 13 26 2 -6
BITMAP
E038
E038
F038
F038
F838
FC38
FC38
EE38
EE38
E738
E338
E3B8
E1B8
E1F8
E0F8
E0F8
E078
E078
E038
E038
0038
0038
0038
0038
00F0
00E0
ENDCHAR
STARTCHAR eng
ENCODING 331
SWIDTH 498 0
DWIDTH 14 0
BBX 10 21 2 -6
BITMAP
CF00
DF80
E180
C1C0
C0C0
C0C0
C0C0
C0C0
C0C0
C0C0
C0C0
C0C0
C0C0
C0C0
C0C0
00C0
00C0
01C0
01C0
0780
0700
ENDCHAR
STARTCHAR Omacron
ENCODING 332
SWIDTH 600 0
DWIDTH 17 0
BBX 13 24 2 0
BITMAP
1FE0
1FE0
0000
0000
0F80
3FE0
7870
6030
E038
E038
C018
C018
C018
C018
C018
C018
C018
C018
E038
E038
6030
7870
3FE0
0F80
ENDCHAR
STARTCHAR omacron
ENCODING 333
SWIDTH 501 0
DWIDTH 14 0
BBX 12 20 1 0
BITMAP
3FC0
3FC0
0000
0000
0000
0F00
3FC0
70E0
60E0
E060
E070
E070
E070
E070
E070
E060
6060
70E0
3FC0
0F00
ENDCHAR
STARTCHAR Obreve
ENCODING 334
SWIDTH 600 0
DWIDTH 17 0
BBX 13 25 2 0
BITMAP
30E0
18C0
1FC0
0F80
0000
0F80
3FE0
7870
6030
E038
E038
C018
C018
C018
C018
C018
C018
C018
C018
E038
E038
6030
7870
3FE0
0F80
ENDCHAR
STARTCHAR obreve
ENCODING 335
SWIDTH 501 0
DWIDTH 14 0
BBX 12 20 1 0
BITMAP
30C0
31C0
1F80
0F00
0000
0F00
3FC0
70E0
60E0
E060
E070
E070
E070
E070
E070
E060
6060
70E0
3FC0
0F00
ENDCHAR
STARTCHAR Ohungarumlaut
ENCODING 336
SWIDTH 600 0
DWIDTH 17 0
BBX 13 25 2 0
BITMAP
0770
0EE0
0DC0
1D80
0000
0F80
3FE0
7870
6030
E038
E038
C018
C018
C018
C018
C018
C018
C018
C018
E038
E038
6030
7870
3FE0
0F80
ENDCHAR
STARTCHAR ohungarumlaut
ENCODING 337
SWIDTH 501 0
DWIDTH 14 0
BBX 12 21 1 0
BITMAP
0EE0
0CC0
1DC0
1B80
0000
0000
0F00
3FC0
70E0
60E0
E060
E070
E070
E070
E070
E070
E060
6060
70E0
3FC0
0F00
ENDCHAR
STARTCHAR OE
ENCODING 338
SWIDTH 826 0
DWIDTH 23 0
BBX 20 20 1 0
BITMAP
0FFFF0
1FFFF0
387000
707000
607000
607000
E07000
E07000
E07000
E07FE0
E07FE0
E07000
E07000
E07000
607000
607000
707000
387000
1FFFF0
0FFFF0
ENDCHAR
STARTCHAR oe
ENCODING 339
SWIDTH 777 0
DWIDTH 22 0
BBX 20 15 1 0
BITMAP
0F0780
3FDFC0
38D8E0
70F860
607070
607070
607FF0
E07FF0
607000
607000
607000
70F800
38DC60
3FDFF0
0F07C0
ENDCHAR
STARTCHAR Racute
ENCODING 340
SWIDTH 530 0
DWIDTH 15 0
BBX 12 26 2 0
BITMAP
03C0
0700
0600
0C00
0000
0000
FF80
FFC0
E0E0
E060
E070
E070
E070
E070
E060
E0E0
FFC0
FF80
E380
E1C0
E1C0
E0C0
E0E0
E060
E070
E030
ENDCHAR
STARTCHAR racute
ENCODING 341
SWIDTH 304 0
DWIDTH 9 0
BBX 7 21 2 0
BITMAP
0E
1C
38
30
00
00
CC
DC
F0
E0
C0
C0
C0
C0
C0
C0
C0
C0
C0
C0
C0
ENDCHAR
STARTCHAR uni0156
ENCODING 342
SWIDTH 530 0
DWIDTH 15 0
BBX 12 27 2 -7
BITMAP
FF80
FFC0
E0E0
E060
E070
E070
E070
E070
E060
E0E0
FFC0
FF80
E380
E1C0
E1C0
E0C0
E0E0
E060
E070
E030
0000
0000
0E00
0E00
0C00
0C00
1800
ENDCHAR
STARTCHAR uni0157
ENCODING 343
SWIDTH 304 0
DWIDTH 9 0
BBX 7 22 1 -7
BITMAP
66
6E
78
70
60
60
60
60
60
60
60
60
60
60
60
00
00
70
70
60
60
C0
ENDCHAR
STARTCHAR Rcaron
ENCODING 344
SWIDTH 530 0
DWIDTH 15 0
BBX 12 26 2 0
BITMAP
3180
1B00
1E00
0C00
0000
0000
FF80
FFC0
E0E0
E060
E070
E070
E070
E070
E060
E0E0
FFC0
FF80
E380
E1C0
E1C0
E0C0
E0E0
E060
E070
E030
ENDCHAR
STARTCHAR rcaron
ENCODING 345
SWIDTH 304 0
DWIDTH 9 0
BBX 8 21 1 0
BITMAP
E7
66
3C
18
00
00
66
6E
78
70
60
60
60
60
60
60
60
60
60
60
60
ENDCHAR
STARTCHAR Sacute
ENCODING 346
SWIDTH 518 0
DWIDTH 15 0
BBX 13 26 1 0
BITMAP
01E0
0180
0300
0700
0000
0000
0F80
1FE0
3870
7030
7030
6038
7000
7800
3C00
1F80
07E0
01F0
0070
0030
E038
6038
7030
7870
3FE0
0FC0
ENDCHAR
STARTCHAR sacute
ENCODING 347
SWIDTH 455 0
DWIDTH 13 0
BBX 11 21 1 0
BITMAP
01C0
0380
0700
0E00
0000
0000
1F00
3F80
71C0
60C0
6000
7000
3C00
1F00
07C0
01C0
E0E0
60E0
71C0
3FC0
1F00
ENDCHAR
STARTCHAR Scircumflex
ENCODING 348
SWIDTH 518 0
DWIDTH 15 0
BBX 13 26 1 0
BITMAP
0700
0F00
0D80
18C0
0000
0000
0F80
1FE0
3870
7030
7030
6038
7000
7800
3C00
1F80
07E0
01F0
0070
0030
E038
6038
7030
7870
3FE0
0FC0
ENDCHAR
STARTCHAR scircumflex
ENCODING 349
SWIDTH 455 0
DWIDTH 13 0
BBX 11 21 1 0
BITMAP
0600
0F00
1B80
3980
0000
0000
1F00
3F80
71C0
60C0
6000
7000
3C00
1F00
07C0
01C0
E0E0
60E0
71C0
3FC0
1F00
ENDCHAR
STARTCHAR Scedilla
ENCODING 350
SWIDTH 518 0
DWIDTH 15 0
BBX 13 26 1 -6
BITMAP
0F80
1FE0
3870
7030
7030
6038
7000
7800
3C00
1F80
07E0
01F0
0070
0030
E038
6038
7030
7870
3FE0
0FC0
0600
0700
0180
0180
0100
0700
ENDCHAR
STARTCHAR scedilla
ENCODING 351
SWIDTH 455 0
DWIDTH 13 0
BBX 11 21 1 -6
BITMAP
1F00
3F80
71C0
60C0
6000
7000
3C00
1F00
07C0
01C0
E0E0
60E0
71C0
3FC0
1F00
0400
0600
0B00
0300
0300
0600
ENDCHAR
STARTCHAR Scaron
ENCODING 352
SWIDTH 518 0
DWIDTH 15 0
BBX 13 26 1 0
BITMAP
18C0
0D80
0700
0600
0000
0000
0F80
1FE0
3870
7030
7030
6038
7000
7800
3C00
1F80
07E0
01F0
0070
0030
E038
6038
7030
7870
3FE0
0FC0
ENDCHAR
STARTCHAR scaron
ENCODING 353
SWIDTH 455 0
DWIDTH 13 0
BBX 11 21 1 0
BITMAP
39C0
1B00
0F00
0600
0000
0000
1F00
3F80
71C0
60C0
6000
7000
3C00
1F00
07C0
01C0
E0E0
60E0
71C0
3FC0
1F00
ENDCHAR
STARTCHAR uni0162
ENCODING 354
SWIDTH 520 0
DWIDTH 15 0
BBX 13 26 1 -6
BITMAP
FFF8
FFF8
0700
0700
0700
0700
0700
0700
0700
0700
0700
0700
0700
0700
0700
0700
0700
0700
0700
0700
0600
0700
0380
0180
0300
0600
ENDCHAR
STARTCHAR uni0163
ENCODING 355
SWIDTH 295 0
DWIDTH 8 0
BBX 8 25 0 -6
BITMAP
38
38
38
38
FE
FE
38
38
38
38
38
38
38
38
38
38
18
1E
0E
0C
0E
03
03
03
0E
ENDCHAR
STARTCHAR Tcaron
ENCODING 356
SWIDTH 520 0
DWIDTH 15 0
BBX 13 26 1 0
BITMAP
18C0
0D80
0F00
0600
0000
0000
FFF8
FFF8
0700
0700
0700
0700
0700
0700
0700
0700
0700
0700
0700
0700
0700
0700
0700
0700
0700
0700
ENDCHAR
STARTCHAR tcaron
ENCODING 357
SWIDTH 314 0
DWIDTH 9 0
BBX 9 22 0 0
BITMAP
0180
0180
0180
3980
3B00
3800
3800
FE00
FE00
3800
3800
3800
3800
3800
3800
3800
3800
3800
3800
1800
1E00
0E00
ENDCHAR
STARTCHAR Tbar
ENCODING 358
SWIDTH 520 0
DWIDTH 15 0
BBX 13 20 1 0
BITMAP
FFF8
FFF8
0700
0700
0700
0700
0700
1FC0
1FC0
0700
0700
0700
0700
0700
0700
0700
0700
0700
0700
0700
ENDCHAR
STARTCHAR tbar
ENCODING 359
SWIDTH 295 0
DWIDTH 8 0
BBX 7 19 0 0
BITMAP
18
18
18
18
FE
FE
18
18
FE
FE
18
18
18
18
18
18
18
1E
0E
ENDCHAR
STARTCHAR Utilde
ENCODING 360
SWIDTH 561 0
DWIDTH 16 0
BBX 12 25 2 0
BITMAP
1CC0
3FC0
2380
0000
0000
C030
C030
C030
C030
C030
C030
C030
C030
C030
C030
C030
C030
C030
C030
C030
E070
E070
70E0
3FC0
1F80
ENDCHAR
STARTCHAR utilde
ENCODING 361
SWIDTH 483 0
DWIDTH 14 0
BBX 10 20 2 0
BITMAP
3980
7F80
4700
0000
0000
C1C0
C1C0
C1C0
C1C0
C1C0
C1C0
C1C0
C1C0
C1C0
C1C0
C1C0
E1C0
E3C0
7FC0
3CC0
ENDCHAR
STARTCHAR Umacron
ENCODING 362
SWIDTH 561 0
DWIDTH 16 0
BBX 12 24 2 0
BITMAP
3FC0
3FC0
0000
0000
C030
C030
C030
C030
C030
C030
C030
C030
C030
C030
C030
C030
C030
C030
C030
E070
E070
70E0
3FC0
1F80
ENDCHAR
STARTCHAR umacron
ENCODING 363
SWIDTH 483 0
DWIDTH 14 0
BBX 10 20 2 0
BITMAP
7F80
7F80
0000
0000
0000
C1C0
C1C0
C1C0
C1C0
C1C0
C1C0
C1C0
C1C0
C1C0
C1C0
C1C0
E1C0
E3C0
7FC0
3CC0
ENDCHAR
STARTCHAR Ubreve
ENCODING 364
SWIDTH 561 0
DWIDTH 16 0
BBX 12 25 2 0
BITMAP
30C0
31C0
1F80
0F00
0000
C030
C030
C030
C030
C030
C030
C030
C030
C030
C030
C030
C030
C030
C030
C030
E070
E070
70E0
3FC0
1F80
ENDCHAR
STARTCHAR ubreve
ENCODING 365
SWIDTH 483 0
DWIDTH 14 0
BBX 10 20 2 0
BITMAP
6180
6380
7F00
1E00
0000
C1C0
C1C0
C1C0
C1C0
C1C0
C1C0
C1C0
C1C0
C1C0
C1C0
C1C0
E1C0
E3C0
7FC0
3CC0
ENDCHAR
STARTCHAR Uring
ENCODING 366
SWIDTH 561 0
DWIDTH 16 0
BBX 12 26 2 0
BITMAP
0E00
1B00
1180
1180
1B00
0E00
C030
C030
C030
C030
C030
C030
C030
C030
C030
C030
C030
C030
C030
C030
C030
E070
E070
70E0
3FC0
1F80
ENDCHAR
STARTCHAR uring
ENCODING 367
SWIDTH 483 0
DWIDTH 14 0
BBX 10 23 2 0
BITMAP
1C00
3600
2200
2300
3600
1C00
0000
0000
C1C0
C1C0
C1C0
C1C0
C1C0
C1C0
C1C0
C1C0
C1C0
C1C0
C1C0
E1C0
E3C0
7FC0
3CC0
ENDCHAR
STARTCHAR Uhungarumlaut
ENCODING 368
SWIDTH 561 0
DWIDTH 16 0
BBX 12 26 2 0
BITMAP
0EE0
0CC0
1D80
1B80
0000
0000
C030
C030
C030
C030
C030
C030
C030
C030
C030
C030
C030
C030
C030
C030
C030
E070
E070
70E0
3FC0
1F80
ENDCHAR
STARTCHAR uhungarumlaut
ENCODING 369
SWIDTH 483 0
DWIDTH 14 0
BBX 10 21 2 0
BITMAP
1DC0
1980
3B00
3700
0000
0000
C1C0
C1C0
C1C0
C1C0
C1C0
C1C0
C1C0
C1C0
C1C0
C1C0
C1C0
E1C0
E3C0
7FC0
3CC0
ENDCHAR
STARTCHAR Uogonek
ENCODING 370
SWIDTH 561 0
DWIDTH 16 0
BBX 12 25 2 -5
BITMAP
C030
C030
C030
C030
C030
C030
C030
C030
C030
C030
C030
C030
C030
C030
C030
E070
E070
70E0
3FC0
1F80
0300
0600
0600
0780
0380
ENDCHAR
STARTCHAR uogonek
ENCODING 371
SWIDTH 483 0
DWIDTH 14 0
BBX 10 21 2 -6
BITMAP
C1C0
C1C0
C1C0
C1C0
C1C0
C1C0
C1C0
C1C0
C1C0
C1C0
C1C0
E1C0
E3C0
7FC0
3CC0
0180
0300
0300
0300
03C0
01C0
ENDCHAR
STARTCHAR Wcircumflex
ENCODING 372
SWIDTH 761 0
DWIDTH 21 0
BBX 20 26 1 0
BITMAP
006000
00F000
01B800
039800
000000
000000
E06070
E0E060
E0E060
60F0E0
60F0E0
60F0E0
71B0C0
7198C0
3198C0
3199C0
3319C0
3B1980
3B0D80
1B0D80
1F0D80
1E0F80
1E0700
1E0700
0E0700
0C0700
ENDCHAR
STARTCHAR wcircumflex
ENCODING 373
SWIDTH 649 0
DWIDTH 18 0
BBX 16 21 1 0
BITMAP
0180
03C0
0660
0E70
0000
0000
C183
C183
E3C7
E3C7
63C6
63C6
6666
766E
366C
366C
3C3C
3C3C
1C38
1C38
1818
ENDCHAR
STARTCHAR Ycircumflex
ENCODING 374
SWIDTH 524 0
DWIDTH 15 0
BBX 14 26 0 0
BITMAP
0380
0780
06C0
0C60
0000
0000
E01C
701C
3038
3838
3830
1870
1C60
0CE0
0EC0
06C0
07C0
0380
0380
0380
0380
0380
0380
0380
0380
0380
ENDCHAR
STARTCHAR ycircumflex
ENCODING 375
SWIDTH 416 0
DWIDTH 12 0
BBX 10 27 1 -6
BITMAP
0C00
1E00
3300
7380
0000
0000
C0C0
E1C0
E1C0
6180
6180
7380
3300
3300
3300
3F00
1E00
1E00
1E00
0C00
0C00
0C00
0C00
1800
1800
F000
E000
ENDCHAR
STARTCHAR Ydieresis
ENCODING 376
SWIDTH 524 0
DWIDTH 15 0
BBX 14 25 0 0
BITMAP
1C60
1C70
1C70
0000
0000
E01C
701C
3038
3838
3830
1870
1C60
0CE0
0EC0
06C0
07C0
0380
0380
0380
0380
0380
0380
0380
0380
0380
ENDCHAR
STARTCHAR Zacute
ENCODING 377
SWIDTH 522 0
DWIDTH 15 0
BBX 12 26 1 0
BITMAP
01E0
0380
0300
0600
0000
0000
FFF0
FFF0
0070
00E0
00E0
01C0
0180
0380
0300
0700
0600
0E00
1C00
1C00
3800
3000
7000
6000
FFF0
FFF0
ENDCHAR
STARTCHAR zacute
ENCODING 378
SWIDTH 438 0
DWIDTH 12 0
BBX 10 21 1 0
BITMAP
03C0
0700
0600
0C00
0000
0000
FFC0
FFC0
0180
0380
0300
0700
0E00
0C00
1C00
1800
3800
7000
6000
FFC0
FFC0
ENDCHAR
STARTCHAR Zdotaccent
ENCODING 379
SWIDTH 522 0
DWIDTH 15 0
BBX 12 25 1 0
BITMAP
0700
0700
0700
0000
0000
FFF0
FFF0
0070
00E0
00E0
01C0
0180
0380
0300
0700
0600
0E00
1C00
1C00
3800
3000
7000
6000
FFF0
FFF0
ENDCHAR
STARTCHAR zdotaccent
ENCODING 380
SWIDTH 438 0
DWIDTH 12 0
BBX 10 20 1 0
BITMAP
0C00
0E00
0C00
0000
0000
FFC0
FFC0
0180
0380
0300
0700
0E00
0C00
1C00
1800
3800
7000
6000
FFC0
FFC0
ENDCHAR
STARTCHAR Zcaron
ENCODING 381
SWIDTH 522 0
DWIDTH 15 0
BBX 12 26 1 0
BITMAP
18C0
0D80
0F00
0600
0000
0000
FFF0
FFF0
0070
00E0
00E0
01C0
0180
0380
0300
0700
0600
0E00
1C00
1C00
3800
3000
7000
6000
FFF0
FFF0
ENDCHAR
STARTCHAR zcaron
ENCODING 382
SWIDTH 438 0
DWIDTH 12 0
BBX 10 21 1 0
BITMAP
3380
1B00
1E00
0C00
0000
0000
FFC0
FFC0
0180
0380
0300
0700
0E00
0C00
1C00
1800
3800
7000
6000
FFC0
FFC0
ENDCHAR
STARTCHAR longs
ENCODING 383
SWIDTH 234 0
DWIDTH 7 0
BBX 6 21 2 0
BITMAP
3C
7C
60
E0
E0
E0
E0
E0
E0
E0
E0
E0
E0
E0
E0
E0
E0
E0
E0
E0
E0
ENDCHAR
STARTCHAR uni018F
ENCODING 399
SWIDTH 597 0
DWIDTH 17 0
BBX 14 20 1 0
BITMAP
1F80
3FE0
3070
0038
0018
001C
001C
000C
000C
FFFC
FFFC
E00C
E00C
601C
601C
6018
7038
3870
1FE0
07C0
ENDCHAR
STARTCHAR florin
ENCODING 402
SWIDTH 309 0
DWIDTH 9 0
BBX 9 27 0 -6
BITMAP
0780
0F00
1C00
1800
1800
1800
7E00
7E00
1800
1800
1800
1800
1800
1800
1800
1800
1800
1800
1800
1800
1800
1800
1800
1800
3800
F800
F000
ENDCHAR
STARTCHAR Ohorn
ENCODING 416
SWIDTH 592 0
DWIDTH 17 0
BBX 16 22 1 0
BITMAP
0003
0003
07C7
1FE6
387E
303C
7018
701C
601C
600C
E00C
E00C
E00C
E00C
601C
601C
601C
7018
3038
3C70
1FE0
07C0
ENDCHAR
STARTCHAR ohorn
ENCODING 417
SWIDTH 502 0
DWIDTH 14 0
BBX 13 16 1 0
BITMAP
0018
0F18
3F98
31F0
70F0
6060
E060
E070
E070
E070
E070
6060
70E0
71E0
3FC0
0F00
ENDCHAR
STARTCHAR Uhorn
ENCODING 431
SWIDTH 608 0
DWIDTH 17 0
BBX 16 21 2 0
BITMAP
0003
C073
C073
C077
C07E
C07C
C070
C070
C070
C070
C070
C070
C070
C070
C070
C070
E070
E060
70E0
3FC0
1F00
ENDCHAR
STARTCHAR uhorn
ENCODING 432
SWIDTH 549 0
DWIDTH 15 0
BBX 13 16 2 0
BITMAP
0018
C198
C198
C1F0
C1F0
C180
C180
C180
C180
C180
C180
C180
C180
E380
FF80
3D80
ENDCHAR
STARTCHAR uni01F0
ENCODING 496
SWIDTH 237 0
DWIDTH 7 0
BBX 7 27 0 -6
BITMAP
C6
6C
38
38
00
00
38
38
38
38
38
38
38
38
38
38
38
38
38
38
38
38
38
38
30
F0
E0
ENDCHAR
STARTCHAR Aringacute
ENCODING 506
SWIDTH 576 0
DWIDTH 16 0
BBX 15 28 1 0
BITMAP
00E0
0180
0180
0000
0300
0480
0480
0480
0300
0780
0780
0780
0FC0
0CC0
0CC0
0CC0
1CE0
1860
1860
3870
3030
3FF0
7FF8
6018
6018
E01C
E01C
C00E
ENDCHAR
STARTCHAR aringacute
ENCODING 507
SWIDTH 479 0
DWIDTH 13 0
BBX 11 24 1 0
BITMAP
01C0
0300
0600
0000
0600
0900
0900
0900
0600
1F00
3F80
71C0
60C0
00C0
00C0
1FC0
3FC0
70C0
60C0
E0C0
E0C0
61C0
7FC0
3CE0
ENDCHAR
STARTCHAR AEacute
ENCODING 508
SWIDTH 812 0
DWIDTH 23 0
BBX 22 26 0 0
BITMAP
000E00
001C00
003800
003000
000000
000000
003FF8
007FF8
007800
00FC00
00DC00
01DC00
019C00
039C00
031C00
071FF0
071FF0
0E1C00
0E1C00
1FFC00
1FFC00
380C00
380C00
700C00
700FFC
E00FFC
ENDCHAR
STARTCHAR aeacute
ENCODING 509
SWIDTH 728 0
DWIDTH 20 0
BBX 18 21 1 0
BITMAP
003800
007000
00E000
00C000
000000
000000
1F1E00
7FBF80
71F180
E1E1C0
00C0C0
00C0C0
3FFFC0
7FFFC0
F0C000
E0C000
C0C000
C1E000
E3F0C0
7F3FC0
3E1F00
ENDCHAR
STARTCHAR Oslashacute
ENCODING 510
SWIDTH 600 0
DWIDTH 17 0
BBX 14 27 2 -1
BITMAP
01E0
0180
0380
0700
0000
000C
0F98
3FF0
38F0
7070
E070
E0F8
C0D8
C198
C198
C318
C318
C618
C618
CC18
EC38
F838
7070
38E0
3FE0
6F80
C000
ENDCHAR
STARTCHAR oslashacute
ENCODING 511
SWIDTH 498 0
DWIDTH 14 0
BBX 12 23 1 -2
BITMAP
03C0
0300
0700
0E00
0000
0060
0FC0
3FC0
39C0
71E0
6160
E370
E270
E670
E670
EC70
6C60
78E0
38C0
3FC0
3F00
3000
2000
ENDCHAR
STARTCHAR uni0218
ENCODING 536
SWIDTH 518 0
DWIDTH 15 0
BBX 13 27 1 -7
BITMAP
0F80
1FE0
3870
7030
7030
6038
7000
7800
3C00
1F80
07E0
01F0
0070
0030
E038
6038
7030
7870
3FE0
0FC0
0000
0000
0300
0700
0700
0600
0600
ENDCHAR
STARTCHAR uni0219
ENCODING 537
SWIDTH 455 0
DWIDTH 13 0
BBX 11 22 1 -7
BITMAP
1F00
3F80
71C0
60C0
6000
7000
3C00
1F00
07C0
01C0
E0E0
60E0
71C0
3FC0
1F00
0000
0000
0600
0600
0600
0E00
0400
ENDCHAR
STARTCHAR uni021A
ENCODING 538
SWIDTH 520 0
DWIDTH 15 0
BBX 13 27 1 -7
BITMAP
FFF8
FFF8
0700
0700
0700
0700
0700
0700
0700
0700
0700
0700
0700
0700
0700
0700
0700
0700
0700
0700
0000
0000
0700
0700
0600
0600
0400
ENDCHAR
STARTCHAR uni021B
ENCODING 539
SWIDTH 295 0
DWIDTH 8 0
BBX 7 26 0 -7
BITMAP
38
38
38
38
FE
FE
38
38
38
38
38
38
38
38
38
38
18
1E
0E
00
00
06
06
0E
0C
0C
ENDCHAR
STARTCHAR uni0237
ENCODING 567
SWIDTH 237 0
DWIDTH 7 0
BBX 5 21 0 -6
BITMAP
38
38
38
38
38
38
38
38
38
38
38
38
38
38
38
38
38
38
30
F0
E0
ENDCHAR
STARTCHAR uni0259
ENCODING 601
SWIDTH 465 0
DWIDTH 13 0
BBX 11 15 1 0
BITMAP
1F00
7F80
61C0
00C0
00E0
00E0
00E0
FFE0
FFE0
E0E0
60C0
60C0
71C0
3F80
1E00
ENDCHAR
STARTCHAR uni02BC
ENCODING 700
SWIDTH 194 0
DWIDTH 5 0
BBX 3 7 1 14
BITMAP
60
60
60
E0
C0
C0
80
ENDCHAR
STARTCHAR circumflex
ENCODING 710
SWIDTH 428 0
DWIDTH 12 0
BBX 7 4 2 17
BITMAP
18
3C
6E
E6
ENDCHAR
STARTCHAR caron
ENCODING 711
SWIDTH 403 0
DWIDTH 11 0
BBX 7 4 2 17
BITMAP
C6
6C
38
38
ENDCHAR
STARTCHAR uni02C9
ENCODING 713
SWIDTH 414 0
DWIDTH 12 0
BBX 8 2 2 18
BITMAP
FF
FF
ENDCHAR
STARTCHAR breve
ENCODING 728
SWIDTH 426 0
DWIDTH 12 0
BBX 8 4 2 16
BITMAP
C3
C7
7E
3C
ENDCHAR
STARTCHAR dotaccent
ENCODING 729
SWIDTH 242 0
DWIDTH 7 0
BBX 3 3 2 17
BITMAP
E0
E0
E0
ENDCHAR
STARTCHAR ring
ENCODING 730
SWIDTH 334 0
DWIDTH 9 0
BBX 6 6 1 16
BITMAP
38
6C
44
C4
6C
38
ENDCHAR
STARTCHAR ogonek
ENCODING 731
SWIDTH 253 0
DWIDTH 7 0
BBX 4 7 1 -6
BITMAP
20
70
C0
C0
C0
F0
70
ENDCHAR
STARTCHAR tilde
ENCODING 732
SWIDTH 427 0
DWIDTH 12 0
BBX 8 3 2 17
BITMAP
73
FF
CE
ENDCHAR
STARTCHAR hungarumlaut
ENCODING 733
SWIDTH 331 0
DWIDTH 9 0
BBX 9 4 1 17
BITMAP
3B80
7700
6E00
CC00
ENDCHAR
STARTCHAR uni02F3
ENCODING 755
SWIDTH 263 0
DWIDTH 7 0
BBX 4 4 2 -5
BITMAP
E0
B0
B0
E0
ENDCHAR
STARTCHAR gravecomb
ENCODING 768
SWIDTH 0 0
DWIDTH 0 0
BBX 5 4 -10 17
BITMAP
E0
70
38
18
ENDCHAR
STARTCHAR acutecomb
ENCODING 769
SWIDTH 0 0
DWIDTH 0 0
BBX 5 4 -7 17
BITMAP
78
60
E0
C0
ENDCHAR
STARTCHAR tildecomb
ENCODING 771
SWIDTH 0 0
DWIDTH 0 0
BBX 8 3 -10 17
BITMAP
73
FF
CE
ENDCHAR
STARTCHAR hookabovecomb
ENCODING 777
SWIDTH 0 0
DWIDTH 0 0
BBX 4 6 -8 17
BITMAP
60
F0
30
30
60
40
ENDCHAR
STARTCHAR uni030F
ENCODING 783
SWIDTH 0 0
DWIDTH 0 0
BBX 9 4 -11 17
BITMAP
EE00
7700
3B00
1F80
ENDCHAR
STARTCHAR dotbelowcomb
ENCODING 803
SWIDTH 0 0
DWIDTH 0 0
BBX 3 3 -10 -5
BITMAP
60
E0
60
ENDCHAR
STARTCHAR tonos
ENCODING 900
SWIDTH 256 0
DWIDTH 7 0
BBX 4 5 2 17
BITMAP
70
60
60
60
C0
ENDCHAR
STARTCHAR dieresistonos
ENCODING 901
SWIDTH 452 0
DWIDTH 13 0
BBX 10 6 1 17
BITMAP
0600
0600
0C00
6DC0
E1C0
61C0
ENDCHAR
STARTCHAR Alphatonos
ENCODING 902
SWIDTH 576 0
DWIDTH 16 0
BBX 15 22 1 0
BITMAP
3000
3000
3300
6780
6780
0780
0FC0
0CC0
0CC0
0CC0
1CE0
1860
1860
3870
3030
3FF0
7FF8
6018
6018
E01C
E01C
C00E
ENDCHAR
STARTCHAR anoteleia
ENCODING 903
SWIDTH 243 0
DWIDTH 7 0
BBX 3 3 2 9
BITMAP
E0
E0
E0
ENDCHAR
STARTCHAR Epsilontonos
ENCODING 904
SWIDTH 496 0
DWIDTH 14 0
BBX 16 22 -3 0
BITMAP
7000
6000
67FF
67FF
C700
0700
0700
0700
0700
0700
0700
07FE
07FE
0700
0700
0700
0700
0700
0700
0700
07FF
07FF
ENDCHAR
STARTCHAR Etatonos
ENCODING 905
SWIDTH 620 0
DWIDTH 17 0
BBX 17 22 -2 0
BITMAP
E00000
C00000
CC0380
CC0380
8C0380
0C0380
0C0380
0C0380
0C0380
0C0380
0C0380
0FFF80
0FFF80
0C0380
0C0380
0C0380
0C0380
0C0380
0C0380
0C0380
0C0380
0C0380
ENDCHAR
STARTCHAR Iotatonos
ENCODING 906
SWIDTH 250 0
DWIDTH 7 0
BBX 7 22 -2 0
BITMAP
E0
C0
CE
CE
8E
0E
0E
0E
0E
0E
0E
0E
0E
0E
0E
0E
0E
0E
0E
0E
0E
0E
ENDCHAR
STARTCHAR Omicrontonos
ENCODING 908
SWIDTH 610 0
DWIDTH 17 0
BBX 15 22 0 0
BITMAP
E000
C000
C3F0
C7F8
8E1C
1C0E
180E
3806
3806
3806
3806
3806
3806
3806
3806
3806
3806
180E
1C0E
0E1C
07F8
03E0
ENDCHAR
STARTCHAR Upsilontonos
ENCODING 910
SWIDTH 573 0
DWIDTH 16 0
BBX 19 22 -3 0
BITMAP
600000
600000
6700E0
C701C0
C381C0
038380
018380
01C300
00C700
00E600
006E00
006C00
003C00
003800
003800
003800
003800
003800
003800
003800
003800
003800
ENDCHAR
STARTCHAR Omegatonos
ENCODING 911
SWIDTH 591 0
DWIDTH 17 0
BBX 15 22 0 0
BITMAP
E000
C000
C3C0
CFF0
9C38
1818
381C
380C
300C
300E
300E
300E
300E
300E
300C
300C
380C
181C
1C18
0E30
3F7E
3F7E
ENDCHAR
STARTCHAR iotadieresistonos
ENCODING 912
SWIDTH 299 0
DWIDTH 8 0
BBX 10 23 -1 0
BITMAP
0E00
0C00
0C00
ED80
E1C0
E180
0000
0000
0C00
0C00
0C00
0C00
0C00
0C00
0C00
0C00
0C00
0C00
0C00
0C00
0C00
0F00
0700
ENDCHAR
STARTCHAR Alpha
ENCODING 913
SWIDTH 576 0
DWIDTH 16 0
BBX 15 20 1 0
BITMAP
0300
0780
0780
0780
0FC0
0CC0
0CC0
0CC0
1CE0
1860
1860
3870
3030
3FF0
7FF8
6018
6018
E01C
E01C
C00E
ENDCHAR
STARTCHAR Beta
ENCODING 914
SWIDTH 545 0
DWIDTH 15 0
BBX 12 20 2 0
BITMAP
FF80
FFC0
E0E0
E0E0
E060
E060
E060
E0E0
E1C0
FF80
FFC0
E0E0
E060
E070
E070
E070
E060
E0E0
FFC0
FF80
ENDCHAR
STARTCHAR Gamma
ENCODING 915
SWIDTH 487 0
DWIDTH 14 0
BBX 11 20 2 0
BITMAP
FFE0
FFE0
E000
E000
E000
E000
E000
E000
E000
E000
E000
E000
E000
E000
E000
E000
E000
E000
E000
E000
ENDCHAR
STARTCHAR Delta.dup1
ENCODING 916
SWIDTH 614 0
DWIDTH 17 0
BBX 15 20 1 0
BITMAP
0380
0380
03C0
07C0
06C0
06E0
0E60
0C60
0C70
1C70
1830
1838
3838
3018
701C
701C
600C
E00E
FFFE
FFFE
ENDCHAR
STARTCHAR Epsilon
ENCODING 917
SWIDTH 496 0
DWIDTH 14 0
BBX 11 20 2 0
BITMAP
FFE0
FFE0
E000
E000
E000
E000
E000
E000
E000
FFC0
FFC0
E000
E000
E000
E000
E000
E000
E000
FFE0
FFE0
ENDCHAR
STARTCHAR Zeta
ENCODING 918
SWIDTH 522 0
DWIDTH 15 0
BBX 12 20 1 0
BITMAP
FFF0
FFF0
0070
00E0
00E0
01C0
0180
0380
0300
0700
0600
0E00
1C00
1C00
3800
3000
7000
6000
FFF0
FFF0
ENDCHAR
STARTCHAR Eta
ENCODING 919
SWIDTH 620 0
DWIDTH 17 0
BBX 13 20 2 0
BITMAP
C038
C038
C038
C038
C038
C038
C038
C038
C038
FFF8
FFF8
C038
C038
C038
C038
C038
C038
C038
C038
C038
ENDCHAR
STARTCHAR Theta
ENCODING 920
SWIDTH 593 0
DWIDTH 17 0
BBX 13 20 2 0
BITMAP
0F80
3FC0
78E0
7070
E030
E038
C038
C018
C018
CF98
CF98
C018
C018
C038
E038
E030
7070
78E0
3FC0
0F80
ENDCHAR
STARTCHAR Iota
ENCODING 921
SWIDTH 250 0
DWIDTH 7 0
BBX 3 20 2 0
BITMAP
E0
E0
E0
E0
E0
E0
E0
E0
E0
E0
E0
E0
E0
E0
E0
E0
E0
E0
E0
E0
ENDCHAR
STARTCHAR Kappa
ENCODING 922
SWIDTH 544 0
DWIDTH 15 0
BBX 13 20 2 0
BITMAP
E078
E0E0
E0E0
E1C0
E380
E380
E700
EE00
FC00
FC00
FE00
F700
E700
E380
E1C0
E1C0
E0E0
E060
E070
E038
ENDCHAR
STARTCHAR Lambda
ENCODING 923
SWIDTH 572 0
DWIDTH 16 0
BBX 14 20 1 0
BITMAP
0300
0780
0780
0780
0F80
0FC0
0CC0
0CC0
1CE0
18E0
1860
3870
3870
3030
7030
7038
6038
6018
E01C
E01C
ENDCHAR
STARTCHAR Mu
ENCODING 924
SWIDTH 755 0
DWIDTH 21 0
BBX 17 20 2 0
BITMAP
F00380
F00780
F00780
F00780
F80F80
D80D80
D80D80
FC1D80
EC1980
EC1980
EE3980
E63380
E63380
E77380
E36380
E36380
E3E380
E1C380
E1C380
E1C380
ENDCHAR
STARTCHAR Nu
ENCODING 925
SWIDTH 619 0
DWIDTH 17 0
BBX 13 20 2 0
BITMAP
E038
E038
F038
F038
F838
D838
DC38
CC38
CE38
C638
C738
C338
C3B8
C1B8
C0F8
C0F8
C078
C078
C038
C038
ENDCHAR
STARTCHAR Xi
ENCODING 926
SWIDTH 502 0
DWIDTH 14 0
BBX 11 20 2 0
BITMAP
FFC0
FFC0
0000
0000
0000
0000
0000
0000
0000
7F80
7F80
0000
0000
0000
0000
0000
0000
0000
FFE0
FFE0
ENDCHAR
STARTCHAR Omicron
ENCODING 927
SWIDTH 600 0
DWIDTH 17 0
BBX 13 20 2 0
BITMAP
0F80
3FE0
7870
6030
E038
E038
C018
C018
C018
C018
C018
C018
C018
C018
E038
E038
6030
7870
3FE0
0F80
ENDCHAR
STARTCHAR Pi
ENCODING 928
SWIDTH 620 0
DWIDTH 17 0
BBX 13 20 2 0
BITMAP
FFF8
FFF8
E018
E018
E018
E018
E018
E018
E018
E018
E018
E018
E018
E018
E018
E018
E018
E018
E018
E018
ENDCHAR
STARTCHAR Rho
ENCODING 929
SWIDTH 554 0
DWIDTH 16 0
BBX 13 20 2 0
BITMAP
FF80
FFE0
E070
E030
E038
E038
E038
E038
E030
E070
FFE0
FFC0
E000
E000
E000
E000
E000
E000
E000
E000
ENDCHAR
STARTCHAR Sigma
ENCODING 931
SWIDTH 502 0
DWIDTH 14 0
BBX 12 20 1 0
BITMAP
FFE0
FFE0
6000
7000
3800
1800
1C00
0E00
0E00
0700
0700
0E00
0E00
1C00
3800
3800
7000
6000
FFF0
FFF0
ENDCHAR
STARTCHAR Tau
ENCODING 932
SWIDTH 520 0
DWIDTH 15 0
BBX 13 20 1 0
BITMAP
FFF8
FFF8
0700
0700
0700
0700
0700
0700
0700
0700
0700
0700
0700
0700
0700
0700
0700
0700
0700
0700
ENDCHAR
STARTCHAR Upsilon
ENCODING 933
SWIDTH 524 0
DWIDTH 15 0
BBX 14 20 0 0
BITMAP
E01C
701C
3038
3838
3830
1870
1C60
0CE0
0EC0
06C0
07C0
0380
0380
0380
0380
0380
0380
0380
0380
0380
ENDCHAR
STARTCHAR Phi
ENCODING 934
SWIDTH 621 0
DWIDTH 17 0
BBX 15 20 1 0
BITMAP
0380
0380
0380
0FE0
3FF8
739C
638C
E38E
E386
C386
C386
E386
E38E
638C
739C
3FF8
0FE0
0380
0380
0380
ENDCHAR
STARTCHAR Chi
ENCODING 935
SWIDTH 550 0
DWIDTH 15 0
BBX 14 20 1 0
BITMAP
E038
7038
7070
3870
38E0
1CE0
1DC0
0FC0
0780
0700
0780
0F80
0FC0
1DC0
1CE0
38E0
3870
7070
7038
E03C
ENDCHAR
STARTCHAR Psi
ENCODING 936
SWIDTH 600 0
DWIDTH 17 0
BBX 15 20 1 0
BITMAP
E38E
E38E
E38E
E38E
E38E
E38E
E38E
E38E
E38C
E38C
639C
739C
3BB8
1FF0
0FC0
0380
0380
0380
0380
0380
ENDCHAR
STARTCHAR Omega.dup2
ENCODING 937
SWIDTH 581 0
DWIDTH 16 0
BBX 13 20 1 0
BITMAP
0780
1FE0
3870
7030
7038
6038
6018
E018
E018
E018
E018
E018
6018
6018
6038
7030
3070
1CE0
FCF8
FCF8
ENDCHAR
STARTCHAR Iotadieresis
ENCODING 938
SWIDTH 250 0
DWIDTH 7 0
BBX 9 25 -1 0
BITMAP
E380
E380
E380
0000
0000
1C00
1C00
1C00
1C00
1C00
1C00
1C00
1C00
1C00
1C00
1C00
1C00
1C00
1C00
1C00
1C00
1C00
1C00
1C00
1C00
ENDCHAR
STARTCHAR Upsilondieresis
ENCODING 939
SWIDTH 524 0
DWIDTH 15 0
BBX 14 25 0 0
BITMAP
1C60
1C70
1C70
0000
0000
E01C
701C
3038
3838
3830
1870
1C60
0CE0
0EC0
06C0
07C0
0380
0380
0380
0380
0380
0380
0380
0380
0380
ENDCHAR
STARTCHAR alphatonos
ENCODING 940
SWIDTH 494 0
DWIDTH 14 0
BBX 12 22 1 0
BITMAP
0380
0300
0300
0300
0600
0000
0000
1E60
3FE0
39E0
70E0
6060
6060
E060
E060
E060
6060
6060
70E0
71E0
3FF0
1E30
ENDCHAR
STARTCHAR epsilontonos
ENCODING 941
SWIDTH 470 0
DWIDTH 13 0
BBX 11 22 1 0
BITMAP
0700
0600
0600
0600
0400
0000
0000
1F00
7F80
71C0
60C0
E020
7000
3F00
3F00
7000
E000
E0E0
E0E0
71C0
7FC0
1F00
ENDCHAR
STARTCHAR etatonos
ENCODING 942
SWIDTH 498 0
DWIDTH 14 0
BBX 10 28 2 -6
BITMAP
0600
0E00
0C00
0C00
0C00
0000
0000
CF00
DF80
E1C0
E1C0
C0C0
C0C0
C0C0
C0C0
C0C0
C0C0
C0C0
C0C0
C0C0
C0C0
C0C0
00C0
00C0
00C0
00C0
00C0
00C0
ENDCHAR
STARTCHAR iotatonos
ENCODING 943
SWIDTH 299 0
DWIDTH 8 0
BBX 4 22 3 0
BITMAP
60
E0
C0
C0
C0
00
00
C0
C0
C0
C0
C0
C0
C0
C0
C0
C0
C0
C0
C0
F0
70
ENDCHAR
STARTCHAR upsilondieresistonos
ENCODING 944
SWIDTH 480 0
DWIDTH 13 0
BBX 10 23 2 0
BITMAP
0E00
0C00
0C00
C980
C180
E180
0000
0000
C380
C180
C180
C1C0
C1C0
C1C0
C1C0
C1C0
C1C0
C1C0
C180
C380
E380
7F00
3C00
ENDCHAR
STARTCHAR alpha
ENCODING 945
SWIDTH 494 0
DWIDTH 14 0
BBX 12 15 1 0
BITMAP
1E60
3FE0
39E0
70E0
6060
6060
E060
E060
E060
6060
6060
70E0
71E0
3FF0
1E30
ENDCHAR
STARTCHAR beta
ENCODING 946
SWIDTH 517 0
DWIDTH 14 0
BBX 11 25 2 -5
BITMAP
1E00
7F80
7380
E1C0
C0C0
C0C0
C1C0
C180
CF00
CF80
C1C0
C0C0
C0E0
C0E0
C0E0
C0E0
C0C0
E1C0
FF80
DF00
C000
C000
C000
C000
C000
ENDCHAR
STARTCHAR gamma
ENCODING 947
SWIDTH 444 0
DWIDTH 12 0
BBX 11 21 1 -6
BITMAP
C0E0
C0C0
E1C0
61C0
6180
7180
3380
3300
3300
3F00
1E00
1E00
1E00
0E00
0C00
0C00
0C00
0C00
0C00
0C00
0C00
ENDCHAR
STARTCHAR delta
ENCODING 948
SWIDTH 498 0
DWIDTH 14 0
BBX 12 21 1 0
BITMAP
0F80
1F80
3880
3000
3800
3C00
1F00
0F80
3FC0
31E0
70E0
6060
E070
E070
E070
6060
6060
70E0
30C0
3FC0
0F00
ENDCHAR
STARTCHAR epsilon
ENCODING 949
SWIDTH 470 0
DWIDTH 13 0
BBX 11 15 1 0
BITMAP
1F00
7F80
71C0
60C0
E020
7000
3F00
3F00
7000
E000
E0E0
E0E0
71C0
7FC0
1F00
ENDCHAR
STARTCHAR zeta
ENCODING 950
SWIDTH 462 0
DWIDTH 13 0
BBX 10 25 2 -5
BITMAP
FFC0
FFC0
0180
0300
0700
0E00
0C00
1C00
3800
3800
7000
7000
6000
6000
E000
6000
6000
7000
7C00
1F00
0380
0180
0180
0300
0200
ENDCHAR
STARTCHAR eta
ENCODING 951
SWIDTH 498 0
DWIDTH 14 0
BBX 10 21 2 -6
BITMAP
CF00
DF80
E1C0
E1C0
C0C0
C0C0
C0C0
C0C0
C0C0
C0C0
C0C0
C0C0
C0C0
C0C0
C0C0
00C0
00C0
00C0
00C0
00C0
00C0
ENDCHAR
STARTCHAR theta
ENCODING 952
SWIDTH 496 0
DWIDTH 14 0
BBX 10 20 2 0
BITMAP
1E00
3F00
7380
E1C0
C1C0
C0C0
C0C0
C0C0
C0C0
FFC0
FFC0
C0C0
C0C0
C0C0
C0C0
E1C0
E1C0
7380
3F00
1E00
ENDCHAR
STARTCHAR iota
ENCODING 953
SWIDTH 299 0
DWIDTH 8 0
BBX 4 15 3 0
BITMAP
C0
C0
C0
C0
C0
C0
C0
C0
C0
C0
C0
C0
C0
F0
70
ENDCHAR
STARTCHAR kappa
ENCODING 954
SWIDTH 491 0
DWIDTH 14 0
BBX 11 15 2 0
BITMAP
C1E0
C180
C380
C700
CE00
CC00
FC00
FC00
CE00
CE00
C700
C380
C380
C1C0
C0E0
ENDCHAR
STARTCHAR lambda
ENCODING 955
SWIDTH 485 0
DWIDTH 14 0
BBX 12 21 1 0
BITMAP
7000
7800
1800
1C00
1C00
0C00
0E00
0E00
0E00
1F00
1F00
1B00
3B80
3B80
3180
31C0
71C0
70C0
60E0
E070
E070
ENDCHAR
STARTCHAR uni03BC
ENCODING 956
SWIDTH 498 0
DWIDTH 14 0
BBX 10 21 2 -6
BITMAP
C0C0
C0C0
C0C0
C0C0
C0C0
C0C0
C0C0
C0C0
C0C0
C0C0
E0C0
E1C0
E1C0
FFC0
DEC0
C000
C000
C000
C000
C000
C000
ENDCHAR
STARTCHAR nu
ENCODING 957
SWIDTH 427 0
DWIDTH 12 0
BBX 10 15 1 0
BITMAP
C0C0
C1C0
E1C0
6180
6180
7380
3300
3300
3300
3F00
1E00
1E00
1E00
0C00
0C00
ENDCHAR
STARTCHAR xi
ENCODING 958
SWIDTH 431 0
DWIDTH 12 0
BBX 10 25 1 -5
BITMAP
0FC0
3F80
7880
7000
6000
7000
3800
1F80
1F80
3800
7000
6000
E000
E000
E000
6000
7000
7800
3F00
0F80
01C0
00C0
00C0
0180
0180
ENDCHAR
STARTCHAR omicron
ENCODING 959
SWIDTH 501 0
DWIDTH 14 0
BBX 12 15 1 0
BITMAP
0F00
3FC0
70E0
60E0
E060
E070
E070
E070
E070
E070
E060
6060
70E0
3FC0
0F00
ENDCHAR
STARTCHAR pi
ENCODING 960
SWIDTH 520 0
DWIDTH 15 0
BBX 13 15 1 0
BITMAP
FFF8
FFF8
3060
3060
3060
3060
3060
3060
3060
3060
3060
3060
3060
3078
3038
ENDCHAR
STARTCHAR rho
ENCODING 961
SWIDTH 498 0
DWIDTH 14 0
BBX 11 21 2 -6
BITMAP
1E00
3F80
7180
61C0
E0C0
C0C0
C0C0
C0E0
C0E0
C0C0
C0C0
E1C0
E1C0
FF80
CF00
C000
C000
C000
C000
C000
C000
ENDCHAR
STARTCHAR sigma1
ENCODING 962
SWIDTH 472 0
DWIDTH 13 0
BBX 11 20 1 -5
BITMAP
0F00
3F80
71C0
70C0
60E0
E000
E000
E000
E000
E000
6000
7000
3800
1F00
0F80
01C0
00C0
01C0
0180
0100
ENDCHAR
STARTCHAR sigma
ENCODING 963
SWIDTH 498 0
DWIDTH 14 0
BBX 13 15 1 0
BITMAP
0FF8
3FF8
31C0
70E0
6060
6060
E060
E070
E070
6060
6060
70E0
39C0
3FC0
0F00
ENDCHAR
STARTCHAR tau
ENCODING 964
SWIDTH 460 0
DWIDTH 13 0
BBX 11 15 1 0
BITMAP
FFE0
FFE0
0E00
0E00
0E00
0E00
0E00
0E00
0E00
0E00
0E00
0E00
0E00
0780
0780
ENDCHAR
STARTCHAR upsilon
ENCODING 965
SWIDTH 480 0
DWIDTH 13 0
BBX 10 15 2 0
BITMAP
C380
C180
C180
C1C0
C1C0
C1C0
C1C0
C1C0
C1C0
C1C0
C180
C380
E380
7F00
3C00
ENDCHAR
STARTCHAR phi
ENCODING 966
SWIDTH 617 0
DWIDTH 17 0
BBX 15 22 1 -7
BITMAP
21E0
71F8
739C
638C
E38E
E38E
C38E
C386
E38E
E38E
E38C
739C
3BB8
3FF0
0FE0
0380
0380
0380
0380
0380
0380
0380
ENDCHAR
STARTCHAR chi
ENCODING 967
SWIDTH 438 0
DWIDTH 12 0
BBX 12 21 1 -6
BITMAP
E0E0
F0C0
71C0
3180
1980
1B80
1F00
0F00
0E00
0E00
0E00
0E00
1F00
1B00
1B00
3B80
3180
7180
71C0
60F0
E060
ENDCHAR
STARTCHAR psi
ENCODING 968
SWIDTH 612 0
DWIDTH 17 0
BBX 15 21 1 -6
BITMAP
E39C
E38C
E38C
E38E
E38E
E38E
E38E
E38E
E38E
E38E
638C
739C
3BB8
1FF0
0FE0
0380
0380
0380
0380
0380
0380
ENDCHAR
STARTCHAR omega
ENCODING 969
SWIDTH 711 0
DWIDTH 20 0
BBX 16 15 2 0
BITMAP
700E
6006
E007
E007
C183
C183
C183
C183
C183
C183
C183
E3C7
63C6
7E7E
3C3C
ENDCHAR
STARTCHAR iotadieresis
ENCODING 970
SWIDTH 299 0
DWIDTH 8 0
BBX 9 20 -1 0
BITMAP
6180
E380
6180
0000
0000
0C00
0C00
0C00
0C00
0C00
0C00
0C00
0C00
0C00
0C00
0C00
0C00
0C00
0F00
0700
ENDCHAR
STARTCHAR upsilondieresis
ENCODING 971
SWIDTH 480 0
DWIDTH 13 0
BBX 10 20 2 0
BITMAP
E380
E380
E380
0000
0000
C380
C180
C180
C1C0
C1C0
C1C0
C1C0
C1C0
C1C0
C1C0
C180
C380
E380
7F00
3C00
ENDCHAR
STARTCHAR omicrontonos
ENCODING 972
SWIDTH 501 0
DWIDTH 14 0
BBX 12 22 1 0
BITMAP
0300
0700
0600
0600
0600
0000
0000
0F00
3FC0
70E0
60E0
E060
E070
E070
E070
E070
E070
E060
6060
70E0
3FC0
0F00
ENDCHAR
STARTCHAR upsilontonos
ENCODING 973
SWIDTH 480 0
DWIDTH 13 0
BBX 10 22 2 0
BITMAP
0E00
0C00
0C00
0C00
0800
0000
0000
C380
C180
C180
C1C0
C1C0
C1C0
C1C0
C1C0
C1C0
C1C0
C180
C380
E380
7F00
3C00
ENDCHAR
STARTCHAR omegatonos
ENCODING 974
SWIDTH 711 0
DWIDTH 20 0
BBX 16 22 2 0
BITMAP
00C0
01C0
0180
0180
0180
0000
0000
700E
6006
E007
E007
C183
C183
C183
C183
C183
C183
C183
E3C7
63C6
7E7E
3C3C
ENDCHAR
STARTCHAR theta1
ENCODING 977
SWIDTH 507 0
DWIDTH 14 0
BBX 11 20 2 0
BITMAP
0F00
1F80
3980
31C0
31C0
31C0
39C0
39C0
1DC0
DFC0
CFE0
C3E0
C1C0
C1C0
C1C0
C1C0
C180
E380
7F00
3E00
ENDCHAR
STARTCHAR Upsilon1
ENCODING 978
SWIDTH 465 0
DWIDTH 13 0
BBX 13 20 0 0
BITMAP
E038
F078
3060
3060
38E0
18C0
1CC0
0DC0
0D80
0F80
0700
0700
0700
0700
0700
0700
0700
0700
0700
0700
ENDCHAR
STARTCHAR omega1
ENCODING 982
SWIDTH 678 0
DWIDTH 19 0
BBX 17 15 1 0
BITMAP
FFFF80
FFFF80
700700
700700
600300
61C300
61C300
61C300
61C300
61C300
61C300
71C700
336600
3F7E00
1E3C00
ENDCHAR
STARTCHAR uni0400
ENCODING 1024
SWIDTH 496 0
DWIDTH 14 0
BBX 11 26 2 0
BITMAP
7800
3800
1C00
0E00
0000
0000
FFE0
FFE0
E000
E000
E000
E000
E000
E000
E000
FFC0
FFC0
E000
E000
E000
E000
E000
E000
E000
FFE0
FFE0
ENDCHAR
STARTCHAR uni0401
ENCODING 1025
SWIDTH 496 0
DWIDTH 14 0
BBX 11 25 2 0
BITMAP
7180
71C0
71C0
0000
0000
FFE0
FFE0
E000
E000
E000
E000
E000
E000
E000
FFC0
FFC0
E000
E000
E000
E000
E000
E000
E000
FFE0
FFE0
ENDCHAR
STARTCHAR uni0402
ENCODING 1026
SWIDTH 650 0
DWIDTH 18 0
BBX 16 20 1 0
BITMAP
FFF8
FFF8
0E00
0E00
0E00
0E00
0E00
0E00
0FF8
0FFC
0E0E
0E07
0E07
0E07
0E07
0E07
0E07
0E0E
0E3C
0E38
ENDCHAR
STARTCHAR uni0403
ENCODING 1027
SWIDTH 487 0
DWIDTH 14 0
BBX 11 26 2 0
BITMAP
03C0
0300
0700
0E00
0000
0000
FFE0
FFE0
E000
E000
E000
E000
E000
E000
E000
E000
E000
E000
E000
E000
E000
E000
E000
E000
E000
E000
ENDCHAR
STARTCHAR uni0404
ENCODING 1028
SWIDTH 589 0
DWIDTH 17 0
BBX 13 20 2 0
BITMAP
0F80
1FE0
3870
7030
6038
E038
E000
C000
C000
FF80
FF80
C000
C000
E000
E038
6038
7030
3870
1FE0
0F80
ENDCHAR
STARTCHAR uni0405
ENCODING 1029
SWIDTH 518 0
DWIDTH 15 0
BBX 13 20 1 0
BITMAP
0F80
1FE0
3870
7030
7030
6038
7000
7800
3C00
1F80
07E0
01F0
0070
0030
E038
6038
7030
7870
3FE0
0FC0
ENDCHAR
STARTCHAR uni0406
ENCODING 1030
SWIDTH 250 0
DWIDTH 7 0
BBX 3 20 2 0
BITMAP
E0
E0
E0
E0
E0
E0
E0
E0
E0
E0
E0
E0
E0
E0
E0
E0
E0
E0
E0
E0
ENDCHAR
STARTCHAR uni0407
ENCODING 1031
SWIDTH 250 0
DWIDTH 7 0
BBX 9 25 -1 0
BITMAP
E380
E380
E380
0000
0000
1C00
1C00
1C00
1C00
1C00
1C00
1C00
1C00
1C00
1C00
1C00
1C00
1C00
1C00
1C00
1C00
1C00
1C00
1C00
1C00
ENDCHAR
STARTCHAR uni0408
ENCODING 1032
SWIDTH 483 0
DWIDTH 14 0
BBX 11 20 1 0
BITMAP
00E0
00E0
00E0
00E0
00E0
00E0
00E0
00E0
00E0
00E0
00E0
00E0
00E0
00E0
C0E0
C0C0
E1C0
71C0
7F80
1F00
ENDCHAR
STARTCHAR uni0409
ENCODING 1033
SWIDTH 923 0
DWIDTH 26 0
BBX 24 20 1 0
BITMAP
1FFC00
1FFC00
1C0C00
1C0C00
1C0C00
1C0C00
1C0C00
1C0C00
1C0FF8
1C0FFC
1C0C0E
1C0C06
180C07
180C07
180C07
180C07
380C06
300C0E
F00FFC
E00FF8
ENDCHAR
STARTCHAR uni040A
ENCODING 1034
SWIDTH 927 0
DWIDTH 26 0
BBX 23 20 2 0
BITMAP
E01800
E01800
E01800
E01800
E01800
E01800
E01800
E01800
E01FF0
FFFFF8
FFF81C
E0180C
E0180E
E0180E
E0180E
E0180E
E0180C
E0181C
E01FF8
E01FF0
ENDCHAR
STARTCHAR uni040B
ENCODING 1035
SWIDTH 705 0
DWIDTH 20 0
BBX 17 20 1 0
BITMAP
FFF800
FFF800
060000
060000
060000
060000
060000
060000
07FC00
07FE00
060700
060300
060300
060380
060380
060380
060380
060380
060380
060380
ENDCHAR
STARTCHAR uni040C
ENCODING 1036
SWIDTH 544 0
DWIDTH 15 0
BBX 13 26 2 0
BITMAP
03C0
0700
0600
0C00
0000
0000
E078
E0E0
E0E0
E1C0
E380
E380
E700
EE00
FC00
FC00
FE00
F700
E700
E380
E1C0
E1C0
E0E0
E060
E070
E038
ENDCHAR
STARTCHAR uni040D
ENCODING 1037
SWIDTH 619 0
DWIDTH 17 0
BBX 13 26 2 0
BITMAP
3C00
0E00
0600
0300
0000
0000
E038
E038
E078
E078
E0F8
E0D8
E1D8
E198
E398
E318
E718
E618
EE18
EC18
FC18
F818
F818
F018
F018
E018
ENDCHAR
STARTCHAR uni040E
ENCODING 1038
SWIDTH 547 0
DWIDTH 15 0
BBX 13 25 1 0
BITMAP
1860
18E0
1FC0
0780
0000
E038
6038
7070
7070
3070
38E0
38E0
1CE0
1CC0
0DC0
0FC0
0F80
0780
0700
0700
0700
0600
0E00
3C00
3800
ENDCHAR
STARTCHAR uni040F
ENCODING 1039
SWIDTH 621 0
DWIDTH 17 0
BBX 13 25 2 -5
BITMAP
E018
E018
E018
E018
E018
E018
E018
E018
E018
E018
E018
E018
E018
E018
E018
E018
E018
E018
FFF8
FFF8
0700
0700
0700
0700
0700
ENDCHAR
STARTCHAR uni0410
ENCODING 1040
SWIDTH 576 0
DWIDTH 16 0
BBX 15 20 1 0
BITMAP
0300
0780
0780
0780
0FC0
0CC0
0CC0
0CC0
1CE0
1860
1860
3870
3030
3FF0
7FF8
6018
6018
E01C
E01C
C00E
ENDCHAR
STARTCHAR uni0411
ENCODING 1041
SWIDTH 549 0
DWIDTH 15 0
BBX 12 20 2 0
BITMAP
FFC0
FFC0
C000
C000
C000
C000
C000
C000
FF80
FFE0
C0E0
C070
C070
C030
C030
C070
C070
C0E0
FFC0
FF80
ENDCHAR
STARTCHAR uni0412
ENCODING 1042
SWIDTH 545 0
DWIDTH 15 0
BBX 12 20 2 0
BITMAP
FF80
FFC0
E0E0
E0E0
E060
E060
E060
E0E0
E1C0
FF80
FFC0
E0E0
E060
E070
E070
E070
E060
E0E0
FFC0
FF80
ENDCHAR
STARTCHAR uni0413
ENCODING 1043
SWIDTH 487 0
DWIDTH 14 0
BBX 11 20 2 0
BITMAP
FFE0
FFE0
E000
E000
E000
E000
E000
E000
E000
E000
E000
E000
E000
E000
E000
E000
E000
E000
E000
E000
ENDCHAR
STARTCHAR uni0414
ENCODING 1044
SWIDTH 660 0
DWIDTH 18 0
BBX 16 25 1 -5
BITMAP
0FFC
0FFC
0C0C
0C0C
0C0C
1C0C
1C0C
1C0C
1C0C
1C0C
1C0C
1C0C
180C
180C
180C
380C
300C
700C
FFFF
FFFF
C003
C003
C003
C003
C003
ENDCHAR
STARTCHAR uni0415
ENCODING 1045
SWIDTH 496 0
DWIDTH 14 0
BBX 11 20 2 0
BITMAP
FFE0
FFE0
E000
E000
E000
E000
E000
E000
E000
FFC0
FFC0
E000
E000
E000
E000
E000
E000
E000
FFE0
FFE0
ENDCHAR
STARTCHAR uni0416
ENCODING 1046
SWIDTH 791 0
DWIDTH 22 0
BBX 21 20 1 0
BITMAP
E06070
706070
7060E0
3860C0
3861C0
1C6180
1C6380
0C6300
066700
07FE00
07FF00
0E6700
0C6380
1C6380
1861C0
3861C0
7060E0
7060E0
E06070
E06078
ENDCHAR
STARTCHAR uni0417
ENCODING 1047
SWIDTH 517 0
DWIDTH 15 0
BBX 13 20 1 0
BITMAP
0F80
3FE0
78E0
7070
6030
0030
0030
0070
00E0
07C0
07E0
0070
0030
0030
E038
E030
7070
78F0
3FE0
0F80
ENDCHAR
STARTCHAR uni0418
ENCODING 1048
SWIDTH 619 0
DWIDTH 17 0
BBX 13 20 2 0
BITMAP
E038
E038
E078
E078
E0F8
E0D8
E1D8
E198
E398
E318
E718
E618
EE18
EC18
FC18
F818
F818
F018
F018
E018
ENDCHAR
STARTCHAR uni0419
ENCODING 1049
SWIDTH 619 0
DWIDTH 17 0
BBX 13 25 2 0
BITMAP
1860
18E0
1FC0
0780
0000
E038
E038
E078
E078
E0F8
E0D8
E1D8
E198
E398
E318
E718
E618
EE18
EC18
FC18
F818
F818
F018
F018
E018
ENDCHAR
STARTCHAR uni041A
ENCODING 1050
SWIDTH 560 0
DWIDTH 16 0
BBX 13 20 2 0
BITMAP
E038
E070
E0E0
E1E0
E1C0
E380
E700
E700
FE00
FE00
E700
E300
E380
E1C0
E1C0
E0E0
E0E0
E070
E038
E038
ENDCHAR
STARTCHAR uni041B
ENCODING 1051
SWIDTH 615 0
DWIDTH 17 0
BBX 14 20 1 0
BITMAP
1FFC
1FFC
1C1C
1C1C
1C1C
1C1C
1C1C
1C1C
1C1C
1C1C
181C
181C
181C
181C
181C
381C
381C
701C
F01C
E01C
ENDCHAR
STARTCHAR uni041C
ENCODING 1052
SWIDTH 755 0
DWIDTH 21 0
BBX 17 20 2 0
BITMAP
F00380
F00780
F00780
F00780
F80F80
D80D80
D80D80
FC1D80
EC1980
EC1980
EE3980
E63380
E63380
E77380
E36380
E36380
E3E380
E1C380
E1C380
E1C380
ENDCHAR
STARTCHAR uni041D
ENCODING 1053
SWIDTH 620 0
DWIDTH 17 0
BBX 13 20 2 0
BITMAP
C038
C038
C038
C038
C038
C038
C038
C038
C038
FFF8
FFF8
C038
C038
C038
C038
C038
C038
C038
C038
C038
ENDCHAR
STARTCHAR uni041E
ENCODING 1054
SWIDTH 600 0
DWIDTH 17 0
BBX 13 20 2 0
BITMAP
0F80
3FE0
7870
6030
E038
E038
C018
C018
C018
C018
C018
C018
C018
C018
E038
E038
6030
7870
3FE0
0F80
ENDCHAR
STARTCHAR uni041F
ENCODING 1055
SWIDTH 620 0
DWIDTH 17 0
BBX 13 20 2 0
BITMAP
FFF8
FFF8
E018
E018
E018
E018
E018
E018
E018
E018
E018
E018
E018
E018
E018
E018
E018
E018
E018
E018
ENDCHAR
STARTCHAR uni0420
ENCODING 1056
SWIDTH 554 0
DWIDTH 16 0
BBX 13 20 2 0
BITMAP
FF80
FFE0
E070
E030
E038
E038
E038
E038
E030
E070
FFE0
FFC0
E000
E000
E000
E000
E000
E000
E000
E000
ENDCHAR
STARTCHAR uni0421
ENCODING 1057
SWIDTH 566 0
DWIDTH 16 0
BBX 13 20 2 0
BITMAP
0F80
3FE0
78F0
6070
E030
E038
C038
C000
C000
C000
C000
C000
C000
C000
E038
E030
6070
70F0
3FE0
0F80
ENDCHAR
STARTCHAR uni0422
ENCODING 1058
SWIDTH 520 0
DWIDTH 15 0
BBX 13 20 1 0
BITMAP
FFF8
FFF8
0700
0700
0700
0700
0700
0700
0700
0700
0700
0700
0700
0700
0700
0700
0700
0700
0700
0700
ENDCHAR
STARTCHAR uni0423
ENCODING 1059
SWIDTH 547 0
DWIDTH 15 0
BBX 13 20 1 0
BITMAP
E038
6038
7070
7070
3070
38E0
38E0
1CE0
1CC0
0DC0
0FC0
0F80
0780
0700
0700
0700
0600
0E00
3C00
3800
ENDCHAR
STARTCHAR uni0424
ENCODING 1060
SWIDTH 676 0
DWIDTH 19 0
BBX 17 22 1 -1
BITMAP
01C000
01C000
01C000
07F000
1FFC00
39CE00
71C700
61C300
61C380
E1C380
E1C380
E1C380
E1C380
61C380
61C300
71C700
39CE00
1FFC00
07F000
01C000
01C000
01C000
ENDCHAR
STARTCHAR uni0425
ENCODING 1061
SWIDTH 550 0
DWIDTH 15 0
BBX 14 20 1 0
BITMAP
E038
7038
7070
3870
38E0
1CE0
1DC0
0FC0
0780
0700
0780
0F80
0FC0
1DC0
1CE0
38E0
3870
7070
7038
E03C
ENDCHAR
STARTCHAR uni0426
ENCODING 1062
SWIDTH 639 0
DWIDTH 18 0
BBX 15 25 2 -5
BITMAP
E018
E018
E018
E018
E018
E018
E018
E018
E018
E018
E018
E018
E018
E018
E018
E018
E018
E018
FFFE
FFFE
000E
000E
000E
000E
000E
ENDCHAR
STARTCHAR uni0427
ENCODING 1063
SWIDTH 600 0
DWIDTH 17 0
BBX 13 20 2 0
BITMAP
E038
E038
E038
E038
E038
E038
E038
E038
E038
7078
7FF8
1FB8
0038
0038
0038
0038
0038
0038
0038
0038
ENDCHAR
STARTCHAR uni0428
ENCODING 1064
SWIDTH 814 0
DWIDTH 23 0
BBX 19 20 2 0
BITMAP
E0E0E0
E0E0E0
E0E0E0
E0E0E0
E0E0E0
E0E0E0
E0E0E0
E0E0E0
E0E0E0
E0E0E0
E0E0E0
E0E0E0
E0E0E0
E0E0E0
E0E0E0
E0E0E0
E0E0E0
E0E0E0
FFFFE0
FFFFE0
ENDCHAR
STARTCHAR uni0429
ENCODING 1065
SWIDTH 841 0
DWIDTH 24 0
BBX 20 25 2 -5
BITMAP
E0E0E0
E0E0E0
E0E0E0
E0E0E0
E0E0E0
E0E0E0
E0E0E0
E0E0E0
E0E0E0
E0E0E0
E0E0E0
E0E0E0
E0E0E0
E0E0E0
E0E0E0
E0E0E0
E0E0E0
E0E0E0
FFFFF0
FFFFF0
000030
000030
000030
000030
000030
ENDCHAR
STARTCHAR uni042A
ENCODING 1066
SWIDTH 651 0
DWIDTH 18 0
BBX 17 20 0 0
BITMAP
FE0000
FE0000
060000
060000
060000
060000
060000
060000
07FC00
07FE00
060700
060380
060380
060180
060180
060380
060380
060700
07FE00
07FC00
ENDCHAR
STARTCHAR uni042B
ENCODING 1067
SWIDTH 755 0
DWIDTH 21 0
BBX 17 20 2 0
BITMAP
E00380
E00380
E00380
E00380
E00380
E00380
E00380
E00380
FF8380
FFE380
E0F380
E07380
E03380
E03380
E03380
E03380
E07380
E0F380
FFE380
FF8380
ENDCHAR
STARTCHAR uni042C
ENCODING 1068
SWIDTH 551 0
DWIDTH 15 0
BBX 12 20 2 0
BITMAP
C000
C000
C000
C000
C000
C000
C000
C000
FF80
FFC0
C0E0
C070
C070
C030
C030
C070
C070
C0E0
FFC0
FF80
ENDCHAR
STARTCHAR uni042D
ENCODING 1069
SWIDTH 589 0
DWIDTH 17 0
BBX 13 20 2 0
BITMAP
0F80
3FE0
78E0
7070
6038
E038
E018
0018
0018
0FF8
0FF8
0018
0018
0018
E038
6038
7070
78E0
3FE0
0F80
ENDCHAR
STARTCHAR uni042E
ENCODING 1070
SWIDTH 765 0
DWIDTH 21 0
BBX 18 20 2 0
BITMAP
E07C00
E1FF00
E3C780
E30180
E701C0
E701C0
E600C0
E600C0
E600C0
FE00C0
FE00C0
E600C0
E600C0
E600C0
E701C0
E701C0
E30180
E3C380
E1FF00
E07C00
ENDCHAR
STARTCHAR uni042F
ENCODING 1071
SWIDTH 562 0
DWIDTH 16 0
BBX 12 20 1 0
BITMAP
0FF0
1FF0
3830
7030
7030
7030
7030
7030
3030
3830
1FF0
0FF0
0C30
1C30
1830
3830
3830
3030
7030
E030
ENDCHAR
STARTCHAR uni0430
ENCODING 1072
SWIDTH 479 0
DWIDTH 13 0
BBX 11 15 1 0
BITMAP
1F00
3F80
71C0
60C0
00C0
00C0
1FC0
3FC0
70C0
60C0
E0C0
E0C0
61C0
7FC0
3CE0
ENDCHAR
STARTCHAR uni0431
ENCODING 1073
SWIDTH 484 0
DWIDTH 14 0
BBX 11 21 2 0
BITMAP
00C0
01C0
0F80
1F00
3800
6000
4000
CF00
FF80
F1C0
E0C0
C0E0
C0E0
C0E0
C0E0
C0E0
C0C0
E0C0
71C0
7F80
1F00
ENDCHAR
STARTCHAR uni0432
ENCODING 1074
SWIDTH 503 0
DWIDTH 14 0
BBX 11 15 2 0
BITMAP
FF00
FF80
C1C0
C0C0
C0C0
C1C0
FF80
FF80
C1C0
C0C0
C0E0
C0E0
C1C0
FFC0
FF00
ENDCHAR
STARTCHAR uni0433
ENCODING 1075
SWIDTH 371 0
DWIDTH 10 0
BBX 8 15 2 0
BITMAP
FF
FF
C0
C0
C0
C0
C0
C0
C0
C0
C0
C0
C0
C0
C0
ENDCHAR
STARTCHAR uni0434
ENCODING 1076
SWIDTH 536 0
DWIDTH 15 0
BBX 13 19 1 -4
BITMAP
1FE0
1FE0
1860
1860
1860
1860
1860
1860
1860
3860
3860
3060
7060
FFF8
FFF8
C018
C018
C018
C018
ENDCHAR
STARTCHAR uni0435
ENCODING 1077
SWIDTH 468 0
DWIDTH 13 0
BBX 11 15 1 0
BITMAP
1F00
3FC0
71C0
60E0
60E0
E060
FFE0
FFE0
E000
E000
E000
6040
70E0
3FC0
1F80
ENDCHAR
STARTCHAR uni0436
ENCODING 1078
SWIDTH 662 0
DWIDTH 19 0
BBX 18 15 0 0
BITMAP
70C3C0
38C380
38C700
18C700
1CC600
0CCE00
07FC00
0FFC00
0CCE00
1CC600
1CC700
38C700
38C380
70C380
F0C1C0
ENDCHAR
STARTCHAR uni0437
ENCODING 1079
SWIDTH 446 0
DWIDTH 13 0
BBX 10 15 1 0
BITMAP
1F00
3F80
71C0
60C0
00C0
01C0
1F80
1F80
01C0
00C0
E0C0
60C0
71C0
3F80
1F00
ENDCHAR
STARTCHAR uni0438
ENCODING 1080
SWIDTH 509 0
DWIDTH 14 0
BBX 10 15 2 0
BITMAP
C0C0
C1C0
C1C0
C3C0
C3C0
C6C0
C6C0
CCC0
CCC0
D8C0
D8C0
F0C0
F0C0
E0C0
E0C0
ENDCHAR
STARTCHAR uni0439
ENCODING 1081
SWIDTH 509 0
DWIDTH 14 0
BBX 10 20 2 0
BITMAP
6180
7180
3F00
1E00
0000
C0C0
C1C0
C1C0
C3C0
C3C0
C6C0
C6C0
CCC0
CCC0
D8C0
D8C0
F0C0
F0C0
E0C0
E0C0
ENDCHAR
STARTCHAR uni043A
ENCODING 1082
SWIDTH 479 0
DWIDTH 13 0
BBX 11 15 2 0
BITMAP
C1E0
C180
C380
C700
C600
CE00
FC00
FC00
CE00
C600
C700
C380
C380
C1C0
C0E0
ENDCHAR
STARTCHAR uni043B
ENCODING 1083
SWIDTH 509 0
DWIDTH 14 0
BBX 11 15 1 0
BITMAP
3FE0
3FE0
3860
3860
3860
3860
3860
3860
3060
3060
3060
3060
7060
E060
C060
ENDCHAR
STARTCHAR uni043C
ENCODING 1084
SWIDTH 645 0
DWIDTH 18 0
BBX 14 15 2 0
BITMAP
E01C
F03C
F03C
F03C
F87C
D86C
D86C
CCEC
CCCC
CCCC
C7CC
C78C
C78C
C30C
C30C
ENDCHAR
STARTCHAR uni043D
ENCODING 1085
SWIDTH 508 0
DWIDTH 14 0
BBX 10 15 2 0
BITMAP
C0C0
C0C0
C0C0
C0C0
C0C0
C0C0
FFC0
FFC0
C0C0
C0C0
C0C0
C0C0
C0C0
C0C0
C0C0
ENDCHAR
STARTCHAR uni043E
ENCODING 1086
SWIDTH 501 0
DWIDTH 14 0
BBX 12 15 1 0
BITMAP
0F00
3FC0
70E0
60E0
E060
E070
E070
E070
E070
E070
E060
6060
70E0
3FC0
0F00
ENDCHAR
STARTCHAR uni043F
ENCODING 1087
SWIDTH 509 0
DWIDTH 14 0
BBX 10 15 2 0
BITMAP
FFC0
FFC0
C0C0
C0C0
C0C0
C0C0
C0C0
C0C0
C0C0
C0C0
C0C0
C0C0
C0C0
C0C0
C0C0
ENDCHAR
STARTCHAR uni0440
ENCODING 1088
SWIDTH 493 0
DWIDTH 14 0
BBX 11 21 2 -6
BITMAP
CF00
FF80
E1C0
C0C0
C0C0
C0E0
C0E0
C0E0
C0E0
C0E0
C0C0
C0C0
E1C0
FF80
CF00
C000
C000
C000
C000
C000
C000
ENDCHAR
STARTCHAR uni0441
ENCODING 1089
SWIDTH 461 0
DWIDTH 13 0
BBX 11 15 1 0
BITMAP
1F00
3FC0
70C0
60E0
6060
E000
E000
E000
E000
E000
6060
60E0
70C0
3FC0
1F00
ENDCHAR
STARTCHAR uni0442
ENCODING 1090
SWIDTH 424 0
DWIDTH 12 0
BBX 10 15 1 0
BITMAP
FFC0
FFC0
0C00
0C00
0C00
0C00
0C00
0C00
0C00
0C00
0C00
0C00
0C00
0C00
0C00
ENDCHAR
STARTCHAR uni0443
ENCODING 1091
SWIDTH 416 0
DWIDTH 12 0
BBX 10 21 1 -6
BITMAP
C0C0
E1C0
E1C0
6180
6180
7380
3300
3300
3300
3F00
1E00
1E00
1E00
0C00
0C00
0C00
0C00
1800
1800
F000
E000
ENDCHAR
STARTCHAR uni0444
ENCODING 1092
SWIDTH 628 0
DWIDTH 18 0
BBX 14 27 2 -6
BITMAP
0300
0300
0300
0300
0300
0300
3FF0
7FF8
6338
E31C
C30C
C30C
C30C
C30C
C30C
C30C
C30C
E31C
E31C
7FF8
3FF0
0300
0300
0300
0300
0300
0300
ENDCHAR
STARTCHAR uni0445
ENCODING 1093
SWIDTH 438 0
DWIDTH 12 0
BBX 11 15 1 0
BITMAP
E1C0
61C0
7380
3380
3B00
1E00
1E00
0C00
1E00
1F00
3B00
3380
7180
61C0
E1E0
ENDCHAR
STARTCHAR uni0446
ENCODING 1094
SWIDTH 524 0
DWIDTH 15 0
BBX 12 19 2 -4
BITMAP
C0C0
C0C0
C0C0
C0C0
C0C0
C0C0
C0C0
C0C0
C0C0
C0C0
C0C0
C0C0
C0C0
FFF0
FFF0
0070
0070
0070
0070
ENDCHAR
STARTCHAR uni0447
ENCODING 1095
SWIDTH 479 0
DWIDTH 13 0
BBX 10 15 1 0
BITMAP
E0C0
E0C0
E0C0
E0C0
E0C0
E0C0
E0C0
70C0
7FC0
1FC0
00C0
00C0
00C0
00C0
00C0
ENDCHAR
STARTCHAR uni0448
ENCODING 1096
SWIDTH 703 0
DWIDTH 20 0
BBX 16 15 2 0
BITMAP
C187
C187
C187
C187
C187
C187
C187
C187
C187
C187
C187
C187
C187
FFFF
FFFF
ENDCHAR
STARTCHAR uni0449
ENCODING 1097
SWIDTH 722 0
DWIDTH 20 0
BBX 17 19 2 -4
BITMAP
C38600
C38600
C38600
C38600
C38600
C38600
C38600
C38600
C38600
C38600
C38600
C38600
C38600
FFFF80
FFFF80
000180
000180
000180
000180
ENDCHAR
STARTCHAR uni044A
ENCODING 1098
SWIDTH 538 0
DWIDTH 15 0
BBX 13 15 1 0
BITMAP
FC00
FC00
1C00
1C00
1C00
1FE0
1FF0
1C38
1C18
1C18
1C18
1C18
1C38
1FF0
1FE0
ENDCHAR
STARTCHAR uni044B
ENCODING 1099
SWIDTH 679 0
DWIDTH 19 0
BBX 15 15 2 0
BITMAP
C00E
C00E
C00E
C00E
C00E
FF0E
FF8E
C1CE
C1CE
C0CE
C0CE
C1CE
C1CE
FF8E
FF0E
ENDCHAR
STARTCHAR uni044C
ENCODING 1100
SWIDTH 478 0
DWIDTH 13 0
BBX 10 15 2 0
BITMAP
C000
C000
C000
C000
C000
FE00
FF80
C180
C1C0
C1C0
C1C0
C1C0
C180
FF80
FF00
ENDCHAR
STARTCHAR uni044D
ENCODING 1101
SWIDTH 472 0
DWIDTH 13 0
BBX 11 15 1 0
BITMAP
1E00
3F80
7180
E1C0
E0C0
00C0
0FE0
0FE0
00E0
00C0
E0C0
E1C0
7380
3F80
1E00
ENDCHAR
STARTCHAR uni044E
ENCODING 1102
SWIDTH 706 0
DWIDTH 20 0
BBX 17 15 2 0
BITMAP
E07800
E1FE00
E38E00
E38700
E30300
E70380
FF0380
FF0380
E70380
E70380
E30300
E38700
E18E00
E1FE00
E07800
ENDCHAR
STARTCHAR uni044F
ENCODING 1103
SWIDTH 482 0
DWIDTH 14 0
BBX 11 15 1 0
BITMAP
1FE0
3FE0
70E0
60E0
60E0
60E0
70E0
3FE0
1FE0
18E0
38E0
30E0
70E0
60E0
E0E0
ENDCHAR
STARTCHAR uni0450
ENCODING 1104
SWIDTH 468 0
DWIDTH 13 0
BBX 11 21 1 0
BITMAP
7800
1C00
0C00
0600
0000
0000
1F00
3FC0
71C0
60E0
60E0
E060
FFE0
FFE0
E000
E000
E000
6040
70E0
3FC0
1F80
ENDCHAR
STARTCHAR uni0451
ENCODING 1105
SWIDTH 468 0
DWIDTH 13 0
BBX 11 20 1 0
BITMAP
30C0
71C0
30C0
0000
0000
1F00
3FC0
71C0
60E0
60E0
E060
FFE0
FFE0
E000
E000
E000
6040
70E0
3FC0
1F80
ENDCHAR
STARTCHAR uni0452
ENCODING 1106
SWIDTH 482 0
DWIDTH 14 0
BBX 12 27 0 -6
BITMAP
3000
3000
FF00
FF00
3000
3000
33C0
37E0
3C70
3870
3030
3030
3030
3030
3030
3030
3030
3030
3030
3030
3030
0030
0030
0070
0070
01E0
01C0
ENDCHAR
STARTCHAR uni0453
ENCODING 1107
SWIDTH 371 0
DWIDTH 10 0
BBX 8 21 2 0
BITMAP
0F
1C
18
30
00
00
FF
FF
C0
C0
C0
C0
C0
C0
C0
C0
C0
C0
C0
C0
C0
ENDCHAR
STARTCHAR uni0454
ENCODING 1108
SWIDTH 472 0
DWIDTH 13 0
BBX 11 15 1 0
BITMAP
0F00
3FC0
71C0
60E0
6060
E000
FE00
FE00
E000
E000
6060
70E0
71C0
3F80
0F00
ENDCHAR
STARTCHAR uni0455
ENCODING 1109
SWIDTH 455 0
DWIDTH 13 0
BBX 11 15 1 0
BITMAP
1F00
3F80
71C0
60C0
6000
7000
3C00
1F00
07C0
01C0
E0E0
60E0
71C0
3FC0
1F00
ENDCHAR
STARTCHAR uni0456
ENCODING 1110
SWIDTH 229 0
DWIDTH 6 0
BBX 2 20 2 0
BITMAP
C0
C0
C0
00
00
C0
C0
C0
C0
C0
C0
C0
C0
C0
C0
C0
C0
C0
C0
C0
ENDCHAR
STARTCHAR uni0457
ENCODING 1111
SWIDTH 234 0
DWIDTH 7 0
BBX 9 20 -1 0
BITMAP
E300
E380
E300
0000
0000
1800
1800
1800
1800
1800
1800
1800
1800
1800
1800
1800
1800
1800
1800
1800
ENDCHAR
STARTCHAR uni0458
ENCODING 1112
SWIDTH 223 0
DWIDTH 6 0
BBX 4 26 0 -6
BITMAP
30
30
30
00
00
30
30
30
30
30
30
30
30
30
30
30
30
30
30
30
30
30
30
70
F0
E0
ENDCHAR
STARTCHAR uni0459
ENCODING 1113
SWIDTH 729 0
DWIDTH 20 0
BBX 18 15 1 0
BITMAP
3FE000
3FE000
38E000
38E000
38E000
38E000
30FF00
30FF80
30E1C0
30E0C0
30E0C0
30E0C0
70E1C0
E0FF80
C0FF00
ENDCHAR
STARTCHAR uni045A
ENCODING 1114
SWIDTH 743 0
DWIDTH 21 0
BBX 18 15 2 0
BITMAP
E0C000
E0C000
E0C000
E0C000
E0C000
E0C000
FFFF00
FFFF80
E0C1C0
E0C1C0
E0C0C0
E0C1C0
E0C1C0
E0FF80
E0FF00
ENDCHAR
STARTCHAR uni045B
ENCODING 1115
SWIDTH 499 0
DWIDTH 14 0
BBX 12 21 0 0
BITMAP
3000
3000
FF00
FF00
3000
3000
33C0
3FE0
3CE0
3870
3070
3070
3070
3070
3070
3070
3070
3070
3070
3070
3070
ENDCHAR
STARTCHAR uni045C
ENCODING 1116
SWIDTH 479 0
DWIDTH 13 0
BBX 11 21 2 0
BITMAP
0780
0600
0E00
1C00
0000
0000
C1E0
C180
C380
C700
C600
CE00
FC00
FC00
CE00
C600
C700
C380
C380
C1C0
C0E0
ENDCHAR
STARTCHAR uni045D
ENCODING 1117
SWIDTH 509 0
DWIDTH 14 0
BBX 10 21 2 0
BITMAP
7000
3800
1C00
0E00
0000
0000
C0C0
C1C0
C1C0
C3C0
C3C0
C6C0
C6C0
CCC0
CCC0
D8C0
D8C0
F0C0
F0C0
E0C0
E0C0
ENDCHAR
STARTCHAR uni045E
ENCODING 1118
SWIDTH 416 0
DWIDTH 12 0
BBX 10 26 1 -6
BITMAP
6180
7180
3F00
1E00
0000
C0C0
E1C0
E1C0
6180
6180
7380
3300
3300
3300
3F00
1E00
1E00
1E00
0C00
0C00
0C00
0C00
1800
1800
F000
E000
ENDCHAR
STARTCHAR uni045F
ENCODING 1119
SWIDTH 509 0
DWIDTH 14 0
BBX 10 20 2 -5
BITMAP
C0C0
C0C0
C0C0
C0C0
C0C0
C0C0
C0C0
C0C0
C0C0
C0C0
C0C0
C0C0
C0C0
FFC0
FFC0
0C00
0C00
0C00
0C00
0C00
ENDCHAR
STARTCHAR uni0460
ENCODING 1120
SWIDTH 754 0
DWIDTH 21 0
BBX 17 20 2 0
BITMAP
C1C180
C1C180
C1C180
C1C180
C1C180
C1C180
C1C180
C1C180
C1C180
C1C180
C1C180
C1C180
C1C180
C1C180
C1C180
E1C180
E1C380
63E380
7F7F00
3E3E00
ENDCHAR
STARTCHAR uni0461
ENCODING 1121
SWIDTH 650 0
DWIDTH 18 0
BBX 15 15 2 0
BITMAP
C30E
C30E
C30E
C30E
C30E
C30E
C30E
C30E
C30E
C30E
C30E
C30C
E79C
FFFC
3CF0
ENDCHAR
STARTCHAR uni0462
ENCODING 1122
SWIDTH 551 0
DWIDTH 15 0
BBX 14 20 0 0
BITMAP
3800
3800
3800
FE00
FE00
3800
3800
3800
3FE0
3FF8
3838
381C
380C
380C
380C
380C
381C
3838
3FF8
3FE0
ENDCHAR
STARTCHAR uni0463
ENCODING 1123
SWIDTH 477 0
DWIDTH 13 0
BBX 12 21 0 0
BITMAP
3000
3000
3000
3000
FF00
FF00
3000
3000
3000
3000
3000
3F80
3FE0
3060
3070
3070
3070
3070
3060
3FE0
3FC0
ENDCHAR
STARTCHAR uni0464
ENCODING 1124
SWIDTH 772 0
DWIDTH 22 0
BBX 18 20 2 0
BITMAP
E07C00
E0FF00
E1C380
E38180
E301C0
E701C0
E700C0
E70000
E70000
FFFC00
FFFC00
E70000
E70000
E70000
E701C0
E301C0
E38180
E1C380
E0FF00
E07C00
ENDCHAR
STARTCHAR uni0465
ENCODING 1125
SWIDTH 646 0
DWIDTH 18 0
BBX 15 15 2 0
BITMAP
C1F0
C3F8
C71C
C60E
CE0E
CE00
FFF0
FFF0
CE00
CE00
C606
C60E
C71C
C3F8
C0F0
ENDCHAR
STARTCHAR uni0466
ENCODING 1126
SWIDTH 526 0
DWIDTH 15 0
BBX 14 20 1 0
BITMAP
0300
0700
0780
0780
0F80
0DC0
0DC0
1CC0
1CC0
18E0
18E0
3860
3FF0
3FF0
7730
7730
6738
E718
E718
C71C
ENDCHAR
STARTCHAR uni0467
ENCODING 1127
SWIDTH 470 0
DWIDTH 13 0
BBX 13 15 0 0
BITMAP
0700
0700
0700
0F80
0D80
0D80
1DC0
18C0
18C0
3FE0
3FE0
3760
7770
6730
E738
ENDCHAR
STARTCHAR uni0468
ENCODING 1128
SWIDTH 759 0
DWIDTH 21 0
BBX 19 20 2 0
BITMAP
E01800
E03800
E03C00
E03C00
E07C00
E07E00
E06E00
E06600
E0E600
E0C700
E0C300
E1C300
FFFF80
FFFF80
E39980
E399C0
E319C0
E318C0
E718C0
E718E0
ENDCHAR
STARTCHAR uni0469
ENCODING 1129
SWIDTH 654 0
DWIDTH 18 0
BBX 16 15 2 0
BITMAP
E0E0
E0E0
E0E0
E1F0
E1B0
E1B8
E3B8
E318
E31C
FFFC
FFFC
E6EE
EEEE
ECE6
ECE7
ENDCHAR
STARTCHAR uni046A
ENCODING 1130
SWIDTH 747 0
DWIDTH 21 0
BBX 17 20 2 0
BITMAP
3FFF00
3FFE00
1C0C00
1C1C00
0E1800
0E3800
073000
077000
036000
1FFC00
7FFF00
71C700
E1C380
E1C380
C1C180
C1C180
C1C180
C1C180
C1C180
C1C180
ENDCHAR
STARTCHAR uni046B
ENCODING 1131
SWIDTH 645 0
DWIDTH 18 0
BBX 14 15 2 0
BITMAP
7FF8
3FF0
1870
1CE0
0CE0
0EC0
07C0
3FF0
7FF8
E318
E31C
C30C
C30C
C30C
C30C
ENDCHAR
STARTCHAR uni046C
ENCODING 1132
SWIDTH 980 0
DWIDTH 27 0
BBX 23 20 2 0
BITMAP
E0FFFC
E07FF8
E07038
E03070
E03870
E018E0
E01CE0
E00DC0
E00FC0
FFFFF8
FFFFFC
E1C31E
E3830E
E38306
E38306
E38306
E38306
E38306
E38306
E38306
ENDCHAR
STARTCHAR uni046D
ENCODING 1133
SWIDTH 856 0
DWIDTH 24 0
BBX 20 15 2 0
BITMAP
C1FFE0
C0FFC0
C06180
C07380
C03380
C03B00
C03F00
FFFF80
FFFFE0
C38C60
C38C70
C30C70
C30C30
C30C30
C30C30
ENDCHAR
STARTCHAR uni046E
ENCODING 1134
SWIDTH 454 0
DWIDTH 13 0
BBX 10 32 1 -6
BITMAP
3180
1B00
0E00
0E00
0000
0000
7E00
7F00
0380
0180
01C0
01C0
01C0
0180
0380
3F00
3F00
0380
01C0
01C0
00C0
01C0
01C0
0380
3F80
7E00
E000
C000
E000
6000
7000
3000
ENDCHAR
STARTCHAR uni046F
ENCODING 1135
SWIDTH 423 0
DWIDTH 12 0
BBX 10 28 1 -6
BITMAP
6300
3600
1E00
0C00
0000
0000
0000
7E00
7F00
0380
0180
0180
0380
3F00
3F00
0380
0180
01C0
0180
0380
3F00
7E00
E000
C000
E000
6000
7000
3000
ENDCHAR
STARTCHAR uni0470
ENCODING 1136
SWIDTH 600 0
DWIDTH 17 0
BBX 15 20 1 0
BITMAP
E38E
E38E
E38E
E38E
E38E
E38E
E38E
E38E
E38C
E38C
639C
739C
3BB8
1FF0
0FC0
0380
0380
0380
0380
0380
ENDCHAR
STARTCHAR uni0471
ENCODING 1137
SWIDTH 612 0
DWIDTH 17 0
BBX 15 21 1 -6
BITMAP
E39C
E38C
E38C
E38E
E38E
E38E
E38E
E38E
E38E
E38E
638C
739C
3BB8
1FF0
0FE0
0380
0380
0380
0380
0380
0380
ENDCHAR
STARTCHAR uni0472
ENCODING 1138
SWIDTH 593 0
DWIDTH 17 0
BBX 13 20 2 0
BITMAP
0F80
3FC0
78E0
6070
E030
E038
C038
C018
C018
FFF8
FFF8
C018
C018
C038
E038
E030
7070
78E0
3FC0
0F80
ENDCHAR
STARTCHAR uni0473
ENCODING 1139
SWIDTH 497 0
DWIDTH 14 0
BBX 12 15 1 0
BITMAP
0F00
3FC0
30C0
7060
6060
E070
FFF0
FFF0
E070
E070
6060
70E0
39C0
3FC0
0F00
ENDCHAR
STARTCHAR uni0474
ENCODING 1140
SWIDTH 553 0
DWIDTH 15 0
BBX 14 20 0 0
BITMAP
E00C
601C
7018
7018
3038
3030
3830
3870
1870
1860
1C60
0CE0
0CC0
0CC0
06C0
07C0
0780
0780
0380
0300
ENDCHAR
STARTCHAR uni0475
ENCODING 1141
SWIDTH 443 0
DWIDTH 12 0
BBX 11 15 1 0
BITMAP
C0E0
C1E0
E1C0
6180
6380
6380
7300
3300
3300
3600
1E00
1E00
1E00
0C00
0C00
ENDCHAR
STARTCHAR uni0476
ENCODING 1142
SWIDTH 553 0
DWIDTH 15 0
BBX 14 24 0 0
BITMAP
7F00
1B80
0DC0
0EC0
E00C
601C
7018
7018
3038
3030
3830
3870
1870
1860
1C60
0CE0
0CC0
0CC0
06C0
07C0
0780
0780
0380
0300
ENDCHAR
STARTCHAR uni0477
ENCODING 1143
SWIDTH 443 0
DWIDTH 12 0
BBX 12 21 0 0
BITMAP
EE00
7700
3B00
1D80
0000
0000
6070
60F0
70E0
30C0
31C0
31C0
3980
1980
1980
1B00
0F00
0F00
0F00
0600
0600
ENDCHAR
STARTCHAR uni0478
ENCODING 1144
SWIDTH 1017 0
DWIDTH 28 0
BBX 26 26 2 -6
BITMAP
0F800000
3FE00000
78700000
60300000
E0380000
E039C1C0
C018C1C0
C018E180
C018E180
C0186380
C0186380
C0187300
C0183300
C0183700
E0383600
E0383E00
60301E00
78701E00
3FE01C00
0F800C00
00000C00
00001800
00001800
00003800
0000F000
0000E000
ENDCHAR
STARTCHAR uni0479
ENCODING 1145
SWIDTH 918 0
DWIDTH 26 0
BBX 24 21 1 -6
BITMAP
0F0303
3FC387
70E387
60E186
E06186
E071CE
E070CE
E070CC
E070CC
E070FC
E06078
606078
70E078
3FC038
0F0030
000030
000030
000060
000060
0003C0
000380
ENDCHAR
STARTCHAR uni047A
ENCODING 1146
SWIDTH 593 0
DWIDTH 17 0
BBX 13 24 2 -2
BITMAP
0700
0700
0F80
3FC0
77E0
6070
E030
E038
C038
C018
C018
C018
C018
C018
C018
C038
E038
E030
6070
7760
3FE0
0F80
0700
0700
ENDCHAR
STARTCHAR uni047B
ENCODING 1147
SWIDTH 498 0
DWIDTH 14 0
BBX 12 18 1 -1
BITMAP
0600
0600
0F80
3FC0
36E0
7060
6060
E070
E070
E070
E070
E070
6060
6060
36E0
3FC0
1F80
0600
ENDCHAR
STARTCHAR uni047C
ENCODING 1148
SWIDTH 752 0
DWIDTH 21 0
BBX 17 26 2 0
BITMAP
038000
07E000
067C00
041C00
00C000
00C000
18CE00
798F00
700300
E00380
E00180
E00180
E00180
E00180
E00180
E1C180
E1C180
E1C180
E1C180
E1C180
E1C180
E1C180
E1C380
73E300
7F7F00
1E3E00
ENDCHAR
STARTCHAR uni047D
ENCODING 1149
SWIDTH 654 0
DWIDTH 18 0
BBX 16 21 1 0
BITMAP
0380
07E0
0678
0418
00C0
00C0
19D8
399E
700E
6006
6007
E007
E007
E187
E187
E187
6187
6186
73CE
3FFE
1E78
ENDCHAR
STARTCHAR uni047E
ENCODING 1150
SWIDTH 754 0
DWIDTH 21 0
BBX 17 25 2 0
BITMAP
0FF800
0FF800
01C000
01C000
000000
C1C180
C1C180
C1C180
C1C180
C1C180
C1C180
C1C180
C1C180
C1C180
C1C180
C1C180
C1C180
C1C180
C1C180
C1C180
E1C180
E1C380
63E380
7F7F00
3E3E00
ENDCHAR
STARTCHAR uni047F
ENCODING 1151
SWIDTH 650 0
DWIDTH 18 0
BBX 15 21 2 0
BITMAP
3FF0
3FF0
0300
0300
0000
0000
C30E
C30E
C30E
C30E
C30E
C30E
C30E
C30E
C30E
C30E
C30E
C30C
E79C
FFFC
3CF0
ENDCHAR
STARTCHAR uni0480
ENCODING 1152
SWIDTH 570 0
DWIDTH 16 0
BBX 12 25 2 -5
BITMAP
0F80
3FC0
70E0
6070
E070
C030
C030
C000
C000
C000
C000
C000
C000
C000
C000
E000
6000
7000
3E00
1E00
0600
0600
0600
0600
0600
ENDCHAR
STARTCHAR uni0481
ENCODING 1153
SWIDTH 472 0
DWIDTH 13 0
BBX 11 20 1 -5
BITMAP
0F00
3F80
71C0
60C0
60E0
E000
E000
E000
E000
E000
6000
6000
7000
3E00
1E00
0600
0600
0600
0600
0600
ENDCHAR
STARTCHAR uni0482
ENCODING 1154
SWIDTH 547 0
DWIDTH 15 0
BBX 12 18 2 0
BITMAP
0060
00C0
10C0
1D80
0F80
0700
03C0
06E0
0630
CC00
EC00
7C00
1C00
3E00
3380
7100
6000
E000
ENDCHAR
STARTCHAR uni0483
ENCODING 1155
SWIDTH 0 0
DWIDTH 0 0
BBX 9 5 -11 16
BITMAP
0180
FF80
FF80
E000
E000
ENDCHAR
STARTCHAR uni0484
ENCODING 1156
SWIDTH 0 0
DWIDTH 0 0
BBX 9 4 -10 18
BITMAP
0E00
3F00
F100
E180
ENDCHAR
STARTCHAR uni0485
ENCODING 1157
SWIDTH 0 0
DWIDTH 0 0
BBX 2 4 -7 18
BITMAP
C0
C0
C0
40
ENDCHAR
STARTCHAR uni0486
ENCODING 1158
SWIDTH 0 0
DWIDTH 0 0
BBX 3 4 -7 18
BITMAP
60
60
40
C0
ENDCHAR
STARTCHAR uni0488
ENCODING 1160
SWIDTH 0 0
DWIDTH 0 0
BBX 27 24 -21 -4
BITMAP
000E0000
00110000
00000000
00000000
0F000E00
19001900
00800000
00000000
00000000
00000000
00000000
780003C0
4C000660
80000000
00000000
00000000
00000000
00000000
0E000E00
11001300
00000000
00000000
000E0000
00190000
ENDCHAR
STARTCHAR uni0489
ENCODING 1161
SWIDTH 0 0
DWIDTH 0 0
BBX 25 26 -20 -6
BITMAP
000C0000
000C0000
00080000
08180000
18180C00
0C003800
06007000
06002000
00000000
00000000
00000000
C0000C00
F0000F00
10000380
00000000
00000000
00000000
00000000
04003000
06003000
1D001000
300C1800
00180800
00180000
00180000
00100000
ENDCHAR
STARTCHAR uni048A
ENCODING 1162
SWIDTH 666 0
DWIDTH 19 0
BBX 16 30 2 -5
BITMAP
1860
0C60
0FE0
07C0
0000
E038
E038
E078
E078
E0F8
E0D8
E1D8
E198
E398
E318
E718
E618
EE18
EC18
FC18
F818
F818
F018
F01F
E01F
0007
0006
0006
000E
000C
ENDCHAR
STARTCHAR uni048B
ENCODING 1163
SWIDTH 550 0
DWIDTH 15 0
BBX 13 25 2 -5
BITMAP
30C0
31C0
3F80
0F00
0000
C0C0
C1C0
C1C0
C3C0
C3C0
C6C0
C6C0
CCC0
CCC0
D8C0
D8C0
F0C0
F0C0
E0F8
E0F8
0038
0038
0030
0070
0020
ENDCHAR
STARTCHAR uni048C
ENCODING 1164
SWIDTH 551 0
DWIDTH 15 0
BBX 14 20 0 0
BITMAP
3800
3800
3800
FE00
FE00
3800
3800
3800
3FE0
3FF8
3838
381C
380C
380C
380C
380C
381C
3838
3FF8
3FE0
ENDCHAR
STARTCHAR uni048D
ENCODING 1165
SWIDTH 477 0
DWIDTH 13 0
BBX 12 23 0 0
BITMAP
3000
3000
3000
FF00
FF00
3000
3000
3000
3000
3000
3000
3000
3000
3F80
3FE0
3060
3070
3070
3070
3070
3060
3FE0
3FC0
ENDCHAR
STARTCHAR uni048E
ENCODING 1166
SWIDTH 557 0
DWIDTH 16 0
BBX 13 20 2 0
BITMAP
FF80
FFE0
E070
E030
E038
E038
E0B8
E0F8
E1F0
E070
FFF0
FFB8
E010
E000
E000
E000
E000
E000
E000
E000
ENDCHAR
STARTCHAR uni048F
ENCODING 1167
SWIDTH 496 0
DWIDTH 14 0
BBX 11 21 2 -6
BITMAP
CF00
FF80
E3C0
C1C0
C0C0
C0C0
C0C0
C0E0
C0E0
C0C0
C2C0
C7C0
E3C0
FFC0
CFE0
C040
C000
C000
C000
C000
C000
ENDCHAR
STARTCHAR uni0490
ENCODING 1168
SWIDTH 479 0
DWIDTH 13 0
BBX 10 25 2 0
BITMAP
00C0
00C0
00C0
00C0
00C0
FFC0
FFC0
C000
C000
C000
C000
C000
C000
C000
C000
C000
C000
C000
C000
C000
C000
C000
C000
C000
C000
ENDCHAR
STARTCHAR uni0491
ENCODING 1169
SWIDTH 395 0
DWIDTH 11 0
BBX 8 19 2 0
BITMAP
07
07
07
07
FF
FF
C0
C0
C0
C0
C0
C0
C0
C0
C0
C0
C0
C0
C0
ENDCHAR
STARTCHAR uni0492
ENCODING 1170
SWIDTH 487 0
DWIDTH 14 0
BBX 13 20 0 0
BITMAP
3FF8
3FF8
3800
3800
3800
3800
3800
3800
3800
FF00
FF00
3800
3800
3800
3800
3800
3800
3800
3800
3800
ENDCHAR
STARTCHAR uni0493
ENCODING 1171
SWIDTH 371 0
DWIDTH 10 0
BBX 10 15 0 0
BITMAP
3FC0
3FC0
3000
3000
3000
3000
FF00
FF00
3000
3000
3000
3000
3000
3000
3000
ENDCHAR
STARTCHAR uni0494
ENCODING 1172
SWIDTH 539 0
DWIDTH 15 0
BBX 12 24 2 -4
BITMAP
FFE0
FFE0
E000
E000
E000
E000
E000
E000
E000
FF00
FF80
E1C0
E0E0
E060
E060
E070
E070
E070
E070
E060
0060
00E0
03C0
0380
ENDCHAR
STARTCHAR uni0495
ENCODING 1173
SWIDTH 443 0
DWIDTH 12 0
BBX 9 19 2 -4
BITMAP
FF00
FF00
C000
C000
C000
C000
FC00
FE00
C700
C380
C380
C180
C180
C180
C380
0380
0700
0E00
0400
ENDCHAR
STARTCHAR uni0496
ENCODING 1174
SWIDTH 833 0
DWIDTH 23 0
BBX 22 25 1 -5
BITMAP
E06070
706070
7060E0
3860C0
3861C0
1C6180
1C6380
0C6300
066700
07FE00
07FF00
0E6700
0C6380
1C6380
1861C0
3861C0
7060E0
7060E0
E0607C
E0607C
00001C
00001C
00001C
00001C
00001C
ENDCHAR
STARTCHAR uni0497
ENCODING 1175
SWIDTH 696 0
DWIDTH 20 0
BBX 19 20 0 -5
BITMAP
70C3C0
38C380
38C700
18C700
1CC600
0CCE00
07FC00
0FFC00
0CCE00
1CC600
1CC700
38C700
38C380
70C3E0
70C1E0
8000E0
0000E0
0000E0
0000E0
0000E0
ENDCHAR
STARTCHAR uni0498
ENCODING 1176
SWIDTH 517 0
DWIDTH 15 0
BBX 13 26 1 -6
BITMAP
0F80
3FE0
78E0
7070
6030
0030
0030
0070
00E0
07C0
07E0
0070
0030
0030
E038
E030
7070
78F0
3FE0
0F80
0600
0600
0600
0600
0600
0600
ENDCHAR
STARTCHAR uni0499
ENCODING 1177
SWIDTH 446 0
DWIDTH 13 0
BBX 10 21 1 -6
BITMAP
1F00
3F80
71C0
60C0
00C0
01C0
1F80
1F80
01C0
00C0
E0C0
60C0
71C0
3F80
1F00
0C00
0C00
0C00
0C00
0C00
0C00
ENDCHAR
STARTCHAR uni049A
ENCODING 1178
SWIDTH 617 0
DWIDTH 17 0
BBX 14 25 2 -5
BITMAP
E038
E070
E0E0
E1E0
E1C0
E380
E700
E700
FE00
FE00
E700
E300
E380
E1C0
E1C0
E0E0
E0E0
E070
E03C
E03C
000C
000C
000C
000C
000C
ENDCHAR
STARTCHAR uni049B
ENCODING 1179
SWIDTH 524 0
DWIDTH 15 0
BBX 12 20 2 -5
BITMAP
C1E0
C180
C380
C700
C600
CE00
FC00
FC00
CE00
C600
C700
C380
C380
C1F0
C0F0
0070
0070
0070
0070
0070
ENDCHAR
STARTCHAR uni049C
ENCODING 1180
SWIDTH 553 0
DWIDTH 15 0
BBX 13 20 2 0
BITMAP
E038
E070
E070
E0E0
E0E0
ECC0
EDC0
ED80
EF80
FF00
FF80
ED80
EDC0
EDC0
E0E0
E0E0
E060
E070
E070
E038
ENDCHAR
STARTCHAR uni049D
ENCODING 1181
SWIDTH 498 0
DWIDTH 14 0
BBX 12 15 2 0
BITMAP
C0E0
C0E0
C1C0
D980
DB80
DB00
FF00
FF00
DB00
DB80
D980
C1C0
C0C0
C0E0
C070
ENDCHAR
STARTCHAR uni049E
ENCODING 1182
SWIDTH 570 0
DWIDTH 16 0
BBX 16 20 0 0
BITMAP
180E
181C
181C
FF38
FF70
1870
18E0
19C0
19C0
1F80
1F80
19C0
18E0
1860
1870
1838
1838
181C
180E
180F
ENDCHAR
STARTCHAR uni049F
ENCODING 1183
SWIDTH 462 0
DWIDTH 13 0
BBX 14 21 -1 0
BITMAP
1C00
1C00
FF00
FF00
1C00
1C00
1C38
1C70
1C70
1CE0
1CC0
1DC0
1F80
1F80
1DC0
1CE0
1CE0
1C70
1C30
1C38
1C1C
ENDCHAR
STARTCHAR uni04A0
ENCODING 1184
SWIDTH 710 0
DWIDTH 20 0
BBX 19 20 1 0
BITMAP
FF01C0
FF0380
070780
070700
070E00
070E00
071C00
073800
073800
07F000
07F000
073800
071C00
071C00
070E00
070700
070700
070380
0701C0
0701E0
ENDCHAR
STARTCHAR uni04A1
ENCODING 1185
SWIDTH 607 0
DWIDTH 17 0
BBX 16 15 1 0
BITMAP
FE0E
FE1C
061C
0638
0670
0660
07E0
07E0
0670
0670
0638
0618
061C
060E
060F
ENDCHAR
STARTCHAR uni04A2
ENCODING 1186
SWIDTH 662 0
DWIDTH 19 0
BBX 15 25 2 -5
BITMAP
C038
C038
C038
C038
C038
C038
C038
C038
C038
FFF8
FFF8
C038
C038
C038
C038
C038
C038
C038
C03E
C03E
0006
0006
0006
0006
0006
ENDCHAR
STARTCHAR uni04A3
ENCODING 1187
SWIDTH 541 0
DWIDTH 15 0
BBX 12 20 2 -5
BITMAP
C0C0
C0C0
C0C0
C0C0
C0C0
C0C0
FFC0
FFC0
C0C0
C0C0
C0C0
C0C0
C0C0
C0F0
C0F0
0030
0030
0030
0030
0030
ENDCHAR
STARTCHAR uni04A4
ENCODING 1188
SWIDTH 829 0
DWIDTH 23 0
BBX 20 20 2 0
BITMAP
E01FF0
E01FF0
E01800
E01800
E01800
E01800
E01800
E01800
E01800
FFF800
FFF800
E01800
E01800
E01800
E01800
E01800
E01800
E01800
E01800
E01800
ENDCHAR
STARTCHAR uni04A5
ENCODING 1189
SWIDTH 614 0
DWIDTH 17 0
BBX 14 15 2 0
BITMAP
C0FC
C0FC
C0C0
C0C0
C0C0
C0C0
FFC0
FFC0
C0C0
C0C0
C0C0
C0C0
C0C0
C0C0
C0C0
ENDCHAR
STARTCHAR uni04A6
ENCODING 1190
SWIDTH 880 0
DWIDTH 25 0
BBX 21 24 2 -4
BITMAP
FFF800
FFF800
E01800
E01800
E01800
E01800
E01800
E01800
E01800
E01F80
E01FE0
E01870
E01838
E01838
E01818
E01818
E01818
E01818
E01818
E01818
000038
000070
0000F0
0000C0
ENDCHAR
STARTCHAR uni04A7
ENCODING 1191
SWIDTH 755 0
DWIDTH 21 0
BBX 18 19 2 -4
BITMAP
FFC000
FFC000
C0C000
C0C000
C0C000
C0C000
C0FC00
C0FF00
C0C380
C0C180
C0C1C0
C0C0C0
C0C0C0
C0C0C0
C0C1C0
000180
000380
000700
000600
ENDCHAR
STARTCHAR uni04A8
ENCODING 1192
SWIDTH 641 0
DWIDTH 18 0
BBX 15 20 2 0
BITMAP
18F0
39F8
739C
E30C
E30C
C70E
C70E
C70E
C70E
C70E
C70E
C70E
C70E
C30C
E39C
E39C
71F8
38F0
1FFE
0F8E
ENDCHAR
STARTCHAR uni04A9
ENCODING 1193
SWIDTH 528 0
DWIDTH 15 0
BBX 12 15 2 0
BITMAP
3380
77C0
E6E0
CE60
CC60
CC60
CC60
CC60
CE60
CE60
E6E0
E7E0
73C0
3FF0
1E70
ENDCHAR
STARTCHAR uni04AA
ENCODING 1194
SWIDTH 566 0
DWIDTH 16 0
BBX 13 26 2 -6
BITMAP
0F80
3FE0
78F0
6070
E030
E038
C038
C000
C000
C000
C000
C000
C000
C000
E038
E030
6070
70F0
3FE0
0F80
0600
0600
0600
0600
0600
0600
ENDCHAR
STARTCHAR uni04AB
ENCODING 1195
SWIDTH 461 0
DWIDTH 13 0
BBX 11 21 1 -6
BITMAP
1F00
3FC0
70C0
60E0
6060
E000
E000
E000
E000
E000
6060
60E0
70C0
3FC0
1F00
0E00
0E00
0E00
0E00
0E00
0E00
ENDCHAR
STARTCHAR uni04AC
ENCODING 1196
SWIDTH 520 0
DWIDTH 15 0
BBX 13 25 1 -5
BITMAP
FFF8
FFF8
0700
0700
0700
0700
0700
0700
0700
0700
0700
0700
0700
0700
0700
0700
0700
0700
07C0
07C0
01C0
01C0
01C0
01C0
01C0
ENDCHAR
STARTCHAR uni04AD
ENCODING 1197
SWIDTH 424 0
DWIDTH 12 0
BBX 10 20 1 -5
BITMAP
FFC0
FFC0
0C00
0C00
0C00
0C00
0C00
0C00
0C00
0C00
0C00
0C00
0C00
0F00
0F00
0300
0300
0300
0300
0300
ENDCHAR
STARTCHAR uni04AE
ENCODING 1198
SWIDTH 524 0
DWIDTH 15 0
BBX 14 20 0 0
BITMAP
E01C
701C
3038
3838
3830
1870
1C60
0CE0
0EC0
06C0
07C0
0380
0380
0380
0380
0380
0380
0380
0380
0380
ENDCHAR
STARTCHAR uni04AF
ENCODING 1199
SWIDTH 444 0
DWIDTH 12 0
BBX 11 21 1 -6
BITMAP
C0E0
C0C0
E1C0
61C0
6180
7180
3380
3300
3300
3F00
1E00
1E00
1E00
0E00
0C00
0C00
0C00
0C00
0C00
0C00
0C00
ENDCHAR
STARTCHAR uni04B0
ENCODING 1200
SWIDTH 524 0
DWIDTH 15 0
BBX 13 20 1 0
BITMAP
E038
E038
6030
7070
3060
38E0
38E0
19C0
1DC0
0D80
0F80
1FC0
1FC0
0700
0700
0700
0700
0700
0700
0700
ENDCHAR
STARTCHAR uni04B1
ENCODING 1201
SWIDTH 444 0
DWIDTH 12 0
BBX 11 21 1 -6
BITMAP
C0E0
C0C0
E1C0
6180
6180
7180
3380
3300
3B00
1F00
1E00
1E00
1E00
7F80
7F80
0C00
0C00
0C00
0C00
0C00
0C00
ENDCHAR
STARTCHAR uni04B2
ENCODING 1202
SWIDTH 559 0
DWIDTH 16 0
BBX 14 25 1 -5
BITMAP
E038
7038
7070
3870
38E0
1CE0
1DC0
0FC0
0780
0700
0780
0F80
0FC0
1DC0
1CE0
38E0
3870
7070
703C
E03C
000C
000C
000C
000C
000C
ENDCHAR
STARTCHAR uni04B3
ENCODING 1203
SWIDTH 465 0
DWIDTH 13 0
BBX 11 20 1 -5
BITMAP
E1C0
61C0
7380
3380
3B00
1E00
1E00
0C00
1E00
1F00
3B00
3380
7180
61E0
E1E0
0060
0060
0060
0060
0060
ENDCHAR
STARTCHAR uni04B4
ENCODING 1204
SWIDTH 781 0
DWIDTH 22 0
BBX 19 25 1 -5
BITMAP
FFE380
FFE380
0E0380
0E0380
0E0380
0E0380
0E0380
0E0380
0E0380
0E0380
0E0380
0E0380
0E0380
0E0380
0E0380
0E0380
0E0380
0E0380
0FFFE0
0FFFE0
0000E0
0000E0
0000E0
0000E0
0000E0
ENDCHAR
STARTCHAR uni04B5
ENCODING 1205
SWIDTH 587 0
DWIDTH 16 0
BBX 14 19 1 -4
BITMAP
FF38
FF38
1838
1838
1838
1838
1838
1838
1838
1838
1838
1838
1838
1FFC
1FFC
000C
000C
000C
000C
ENDCHAR
STARTCHAR uni04B6
ENCODING 1206
SWIDTH 638 0
DWIDTH 18 0
BBX 15 25 2 -5
BITMAP
E038
E038
E038
E038
E038
E038
E038
E038
E038
7078
7FF8
1FB8
0038
0038
0038
0038
0038
0038
003E
003E
000E
000E
000E
000E
000E
ENDCHAR
STARTCHAR uni04B7
ENCODING 1207
SWIDTH 512 0
DWIDTH 14 0
BBX 13 20 1 -5
BITMAP
E0C0
E0C0
E0C0
E0C0
E0C0
E0C0
E0C0
70C0
7FC0
1FC0
00C0
00C0
00C0
00F8
00F8
0038
0038
0038
0038
0038
ENDCHAR
STARTCHAR uni04B8
ENCODING 1208
SWIDTH 595 0
DWIDTH 17 0
BBX 13 20 2 0
BITMAP
E038
E038
E038
E038
E038
E038
E338
E338
E338
7338
7FF8
1FF8
0338
0338
0338
0038
0038
0038
0038
0038
ENDCHAR
STARTCHAR uni04B9
ENCODING 1209
SWIDTH 483 0
DWIDTH 14 0
BBX 10 15 2 0
BITMAP
C1C0
C1C0
C1C0
C1C0
CDC0
CDC0
EDC0
EDC0
7FC0
3FC0
0DC0
0DC0
01C0
01C0
01C0
ENDCHAR
STARTCHAR uni04BA
ENCODING 1210
SWIDTH 595 0
DWIDTH 17 0
BBX 13 20 2 0
BITMAP
C000
C000
C000
C000
C000
C000
C000
C000
DFC0
FFE0
E070
C030
C030
C030
C038
C038
C038
C038
C038
C038
ENDCHAR
STARTCHAR uni04BB
ENCODING 1211
SWIDTH 482 0
DWIDTH 14 0
BBX 10 21 2 0
BITMAP
C000
C000
C000
C000
C000
C000
CF00
DF80
F1C0
E1C0
C0C0
C0C0
C0C0
C0C0
C0C0
C0C0
C0C0
C0C0
C0C0
C0C0
C0C0
ENDCHAR
STARTCHAR uni04BC
ENCODING 1212
SWIDTH 674 0
DWIDTH 19 0
BBX 16 20 1 0
BITMAP
00F0
01FC
038E
0706
0607
0E03
CE03
CC03
6C03
7FFF
1FFF
0C00
0C00
0C00
0E00
0E00
0700
0782
03FE
00FC
ENDCHAR
STARTCHAR uni04BD
ENCODING 1213
SWIDTH 518 0
DWIDTH 15 0
BBX 13 15 0 0
BITMAP
03E0
07F0
0E38
DC18
DC18
F818
7FF8
1FF8
1800
1800
1C00
1C10
0E18
07F0
03E0
ENDCHAR
STARTCHAR uni04BE
ENCODING 1214
SWIDTH 674 0
DWIDTH 19 0
BBX 16 26 1 -6
BITMAP
00F0
01FC
038E
0706
0607
0E03
CE03
CC03
6C03
7FFF
1FFF
0C00
0C00
0C00
0E00
0E00
0700
0782
03FE
00FC
0070
0070
0070
0070
0070
0070
ENDCHAR
STARTCHAR uni04BF
ENCODING 1215
SWIDTH 518 0
DWIDTH 15 0
BBX 13 21 0 -6
BITMAP
03E0
07F0
0E38
DC18
DC18
F818
7FF8
1FF8
1800
1800
1C00
1C10
0E18
07F0
03E0
01C0
01C0
01C0
01C0
01C0
01C0
ENDCHAR
STARTCHAR uni04C0
ENCODING 1216
SWIDTH 250 0
DWIDTH 7 0
BBX 3 20 2 0
BITMAP
E0
E0
E0
E0
E0
E0
E0
E0
E0
E0
E0
E0
E0
E0
E0
E0
E0
E0
E0
E0
ENDCHAR
STARTCHAR uni04C1
ENCODING 1217
SWIDTH 791 0
DWIDTH 22 0
BBX 21 25 1 0
BITMAP
030C00
038C00
01F800
00F000
000000
E06070
706070
7060E0
3860C0
3861C0
1C6180
1C6380
0C6300
066700
07FE00
07FF00
0E6700
0C6380
1C6380
1861C0
3861C0
7060E0
7060E0
E06070
E06078
ENDCHAR
STARTCHAR uni04C2
ENCODING 1218
SWIDTH 662 0
DWIDTH 19 0
BBX 18 20 0 0
BITMAP
061800
071800
03F800
01E000
000000
70C3C0
38C380
38C700
18C700
1CC600
0CCE00
07FC00
0FFC00
0CCE00
1CC600
1CC700
38C700
38C380
70C380
F0C1C0
ENDCHAR
STARTCHAR uni04C3
ENCODING 1219
SWIDTH 553 0
DWIDTH 15 0
BBX 12 24 2 -4
BITMAP
C070
C0E0
C0E0
C1C0
C180
C380
C700
C600
CE00
FF00
FFC0
C1E0
C060
C070
C070
C030
C030
C030
C030
C070
0070
00E0
01C0
0180
ENDCHAR
STARTCHAR uni04C4
ENCODING 1220
SWIDTH 481 0
DWIDTH 14 0
BBX 11 19 2 -4
BITMAP
E0E0
E1C0
E380
E700
E600
EE00
FE00
FF80
E3C0
E0C0
E0C0
E0E0
E0E0
E0E0
E0C0
00C0
01C0
0380
0200
ENDCHAR
STARTCHAR uni04C5
ENCODING 1221
SWIDTH 662 0
DWIDTH 19 0
BBX 17 25 1 -5
BITMAP
1FFC00
1FFC00
1C1C00
1C1C00
1C1C00
1C1C00
1C1C00
1C1C00
1C1C00
1C1C00
181C00
181C00
181C00
181C00
181C00
381C00
381C00
701C00
F01F80
E01F80
000380
000300
000300
000600
000600
ENDCHAR
STARTCHAR uni04C6
ENCODING 1222
SWIDTH 551 0
DWIDTH 15 0
BBX 14 20 1 -5
BITMAP
3FE0
3FE0
3860
3860
3860
3860
3860
3860
3060
3060
3060
3060
7060
E07C
C07C
001C
001C
0018
0038
0010
ENDCHAR
STARTCHAR uni04C7
ENCODING 1223
SWIDTH 620 0
DWIDTH 17 0
BBX 13 26 2 -6
BITMAP
E038
E038
E038
E038
E038
E038
E038
E038
E038
FFF8
FFF8
E038
E038
E038
E038
E038
E038
E038
E038
E038
0038
0038
0038
0030
00F0
00E0
ENDCHAR
STARTCHAR uni04C8
ENCODING 1224
SWIDTH 498 0
DWIDTH 14 0
BBX 10 21 2 -6
BITMAP
C0C0
C0C0
C0C0
C0C0
C0C0
C0C0
FFC0
FFC0
C0C0
C0C0
C0C0
C0C0
C0C0
C0C0
C0C0
00C0
00C0
00C0
01C0
0780
0700
ENDCHAR
STARTCHAR uni04C9
ENCODING 1225
SWIDTH 671 0
DWIDTH 19 0
BBX 16 25 2 -5
BITMAP
C038
C038
C038
C038
C038
C038
C038
C038
C038
FFF8
FFF8
C038
C038
C038
C038
C038
C038
C038
C03F
C03F
0007
0007
0006
000E
0004
ENDCHAR
STARTCHAR uni04CA
ENCODING 1226
SWIDTH 550 0
DWIDTH 15 0
BBX 13 20 2 -5
BITMAP
C0C0
C0C0
C0C0
C0C0
C0C0
C0C0
FFC0
FFC0
C0C0
C0C0
C0C0
C0C0
C0C0
C0F8
C0F8
0038
0038
0030
0070
0020
ENDCHAR
STARTCHAR uni04CB
ENCODING 1227
SWIDTH 600 0
DWIDTH 17 0
BBX 13 25 2 -5
BITMAP
E038
E038
E038
E038
E038
E038
E038
E038
E038
7078
7FF8
1FB8
0038
0038
0038
0038
0038
0038
00F8
00F8
00C0
00C0
00C0
00C0
00C0
ENDCHAR
STARTCHAR uni04CC
ENCODING 1228
SWIDTH 479 0
DWIDTH 13 0
BBX 10 20 1 -5
BITMAP
E0C0
E0C0
E0C0
E0C0
E0C0
E0C0
E0C0
70C0
7FC0
1FC0
00C0
00C0
00C0
03C0
03C0
0300
0300
0300
0300
0300
ENDCHAR
STARTCHAR uni04CD
ENCODING 1229
SWIDTH 801 0
DWIDTH 22 0
BBX 19 25 2 -5
BITMAP
F00380
F00780
F00780
F00780
F80F80
D80D80
D80D80
FC1D80
EC1980
EC1980
EE3980
E63380
E63380
E77380
E36380
E36380
E3E380
E1C380
E1C3E0
E1C3E0
000060
000060
0000E0
0000C0
0000C0
ENDCHAR
STARTCHAR uni04CE
ENCODING 1230
SWIDTH 687 0
DWIDTH 19 0
BBX 17 20 2 -5
BITMAP
E01C00
F03C00
F03C00
F03C00
F87C00
D86C00
D86C00
CCEC00
CCCC00
CCCC00
C7CC00
C78C00
C78C00
C30F80
C30F80
000380
000300
000300
000700
000200
ENDCHAR
STARTCHAR uni04CF
ENCODING 1231
SWIDTH 250 0
DWIDTH 7 0
BBX 3 20 2 0
BITMAP
E0
E0
E0
E0
E0
E0
E0
E0
E0
E0
E0
E0
E0
E0
E0
E0
E0
E0
E0
E0
ENDCHAR
STARTCHAR uni04D0
ENCODING 1232
SWIDTH 576 0
DWIDTH 16 0
BBX 15 25 1 0
BITMAP
1860
1C60
0FC0
0780
0000
0300
0780
0780
0780
0FC0
0CC0
0CC0
0CC0
1CE0
1860
1860
3870
3030
3FF0
7FF8
6018
6018
E01C
E01C
C00E
ENDCHAR
STARTCHAR uni04D1
ENCODING 1233
SWIDTH 479 0
DWIDTH 13 0
BBX 11 20 1 0
BITMAP
30C0
39C0
1F80
0F00
0000
1F00
3F80
71C0
60C0
00C0
00C0
1FC0
3FC0
70C0
60C0
E0C0
E0C0
61C0
7FC0
3CE0
ENDCHAR
STARTCHAR uni04D2
ENCODING 1234
SWIDTH 576 0
DWIDTH 16 0
BBX 15 25 1 0
BITMAP
1860
1C70
1860
0000
0000
0300
0780
0780
0780
0FC0
0CC0
0CC0
0CC0
1CE0
1860
1860
3870
3030
3FF0
7FF8
6018
6018
E01C
E01C
C00E
ENDCHAR
STARTCHAR uni04D3
ENCODING 1235
SWIDTH 479 0
DWIDTH 13 0
BBX 11 20 1 0
BITMAP
30C0
39C0
30C0
0000
0000
1F00
3F80
71C0
60C0
00C0
00C0
1FC0
3FC0
70C0
60C0
E0C0
E0C0
61C0
7FC0
3CE0
ENDCHAR
STARTCHAR uni04D4
ENCODING 1236
SWIDTH 812 0
DWIDTH 23 0
BBX 22 20 0 0
BITMAP
003FF8
007FF8
007800
00FC00
00DC00
01DC00
019C00
039C00
031C00
071FF0
071FF0
0E1C00
0E1C00
1FFC00
1FFC00
380C00
380C00
700C00
700FFC
E00FFC
ENDCHAR
STARTCHAR uni04D5
ENCODING 1237
SWIDTH 728 0
DWIDTH 20 0
BBX 18 15 1 0
BITMAP
1F1E00
7FBF80
71F180
E1E1C0
00C0C0
00C0C0
3FFFC0
7FFFC0
F0C000
E0C000
C0C000
C1E000
E3F0C0
7F3FC0
3E1F00
ENDCHAR
STARTCHAR uni04D6
ENCODING 1238
SWIDTH 496 0
DWIDTH 14 0
BBX 11 25 2 0
BITMAP
61C0
3180
3F80
1F00
0000
FFE0
FFE0
E000
E000
E000
E000
E000
E000
E000
FFC0
FFC0
E000
E000
E000
E000
E000
E000
E000
FFE0
FFE0
ENDCHAR
STARTCHAR uni04D7
ENCODING 1239
SWIDTH 468 0
DWIDTH 13 0
BBX 11 20 1 0
BITMAP
30C0
31C0
3F80
0F00
0000
1F00
3FC0
71C0
60E0
60E0
E060
FFE0
FFE0
E000
E000
E000
6040
70E0
3FC0
1F80
ENDCHAR
STARTCHAR uni04D8
ENCODING 1240
SWIDTH 597 0
DWIDTH 17 0
BBX 14 20 1 0
BITMAP
1F80
3FE0
3070
0038
0018
001C
001C
000C
000C
FFFC
FFFC
E00C
E00C
601C
601C
6018
7038
3870
1FE0
07C0
ENDCHAR
STARTCHAR uni04D9
ENCODING 1241
SWIDTH 465 0
DWIDTH 13 0
BBX 11 15 1 0
BITMAP
1F00
7F80
61C0
00C0
00E0
00E0
00E0
FFE0
FFE0
E0E0
60C0
60C0
71C0
3F80
1E00
ENDCHAR
STARTCHAR uni04DA
ENCODING 1242
SWIDTH 597 0
DWIDTH 17 0
BBX 14 24 1 0
BITMAP
38E0
38E0
38E0
0000
1F80
3FE0
3070
0038
0018
001C
001C
000C
000C
FFFC
FFFC
E00C
E00C
601C
601C
6018
7038
3870
1FE0
07C0
ENDCHAR
STARTCHAR uni04DB
ENCODING 1243
SWIDTH 465 0
DWIDTH 13 0
BBX 11 20 1 0
BITMAP
31C0
71C0
31C0
0000
0000
1F00
7F80
61C0
00C0
00E0
00E0
00E0
FFE0
FFE0
E0E0
60C0
60C0
71C0
3F80
1E00
ENDCHAR
STARTCHAR uni04DC
ENCODING 1244
SWIDTH 791 0
DWIDTH 22 0
BBX 21 25 1 0
BITMAP
030C00
038E00
030C00
000000
000000
E06070
706070
7060E0
3860C0
3861C0
1C6180
1C6380
0C6300
066700
07FE00
07FF00
0E6700
0C6380
1C6380
1861C0
3861C0
7060E0
7060E0
E06070
E06078
ENDCHAR
STARTCHAR uni04DD
ENCODING 1245
SWIDTH 662 0
DWIDTH 19 0
BBX 18 20 0 0
BITMAP
061800
071C00
061800
000000
000000
70C3C0
38C380
38C700
18C700
1CC600
0CCE00
07FC00
0FFC00
0CCE00
1CC600
1CC700
38C700
38C380
70C380
F0C1C0
ENDCHAR
STARTCHAR uni04DE
ENCODING 1246
SWIDTH 517 0
DWIDTH 15 0
BBX 13 25 1 0
BITMAP
30C0
38E0
30C0
0000
0000
0F80
3FE0
78E0
7070
6030
0030
0030
0070
00E0
07C0
07E0
0070
0030
0030
E038
E030
7070
78F0
3FE0
0F80
ENDCHAR
STARTCHAR uni04DF
ENCODING 1247
SWIDTH 446 0
DWIDTH 13 0
BBX 10 20 1 0
BITMAP
6180
71C0
6180
0000
0000
1F00
3F80
71C0
60C0
00C0
01C0
1F80
1F80
01C0
00C0
E0C0
60C0
71C0
3F80
1F00
ENDCHAR
STARTCHAR uni04E0
ENCODING 1248
SWIDTH 510 0
DWIDTH 14 0
BBX 12 20 1 0
BITMAP
7FE0
7FE0
00C0
0180
0380
0700
0600
0E00
0F00
0FC0
01E0
00E0
0060
0060
E070
E060
60E0
71E0
3FC0
1F00
ENDCHAR
STARTCHAR uni04E1
ENCODING 1249
SWIDTH 510 0
DWIDTH 14 0
BBX 11 20 1 -5
BITMAP
7FE0
7FE0
01C0
0180
0380
0700
0600
0E00
0F00
0FC0
00E0
0060
0060
0060
E060
E060
60E0
70E0
3FC0
1F00
ENDCHAR
STARTCHAR uni04E2
ENCODING 1250
SWIDTH 619 0
DWIDTH 17 0
BBX 13 25 2 0
BITMAP
1FE0
1FE0
0000
0000
0000
E038
E038
E078
E078
E0F8
E0D8
E1D8
E198
E398
E318
E718
E618
EE18
EC18
FC18
F818
F818
F018
F018
E018
ENDCHAR
STARTCHAR uni04E3
ENCODING 1251
SWIDTH 509 0
DWIDTH 14 0
BBX 10 20 2 0
BITMAP
7F80
7F80
0000
0000
0000
C0C0
C1C0
C1C0
C3C0
C3C0
C6C0
C6C0
CCC0
CCC0
D8C0
D8C0
F0C0
F0C0
E0C0
E0C0
ENDCHAR
STARTCHAR uni04E4
ENCODING 1252
SWIDTH 619 0
DWIDTH 17 0
BBX 13 25 2 0
BITMAP
1860
38E0
18E0
0000
0000
E038
E038
E078
E078
E0F8
E0D8
E1D8
E198
E398
E318
E718
E618
EE18
EC18
FC18
F818
F818
F018
F018
E018
ENDCHAR
STARTCHAR uni04E5
ENCODING 1253
SWIDTH 509 0
DWIDTH 14 0
BBX 10 20 2 0
BITMAP
6180
71C0
6180
0000
0000
C0C0
C1C0
C1C0
C3C0
C3C0
C6C0
C6C0
CCC0
CCC0
D8C0
D8C0
F0C0
F0C0
E0C0
E0C0
ENDCHAR
STARTCHAR uni04E6
ENCODING 1254
SWIDTH 600 0
DWIDTH 17 0
BBX 13 25 2 0
BITMAP
38E0
38E0
38E0
0000
0000
0F80
3FE0
7870
6030
E038
E038
C018
C018
C018
C018
C018
C018
C018
C018
E038
E038
6030
7870
3FE0
0F80
ENDCHAR
STARTCHAR uni04E7
ENCODING 1255
SWIDTH 501 0
DWIDTH 14 0
BBX 12 20 1 0
BITMAP
30C0
71C0
30C0
0000
0000
0F00
3FC0
70E0
60E0
E060
E070
E070
E070
E070
E070
E060
6060
70E0
3FC0
0F00
ENDCHAR
STARTCHAR uni04E8
ENCODING 1256
SWIDTH 593 0
DWIDTH 17 0
BBX 13 20 2 0
BITMAP
0F80
3FC0
78E0
6070
E030
E038
C038
C018
C018
FFF8
FFF8
C018
C018
C038
E038
E030
7070
78E0
3FC0
0F80
ENDCHAR
STARTCHAR uni04E9
ENCODING 1257
SWIDTH 497 0
DWIDTH 14 0
BBX 12 15 1 0
BITMAP
0F00
3FC0
30C0
7060
6060
E070
FFF0
FFF0
E070
E070
6060
70E0
39C0
3FC0
0F00
ENDCHAR
STARTCHAR uni04EA
ENCODING 1258
SWIDTH 593 0
DWIDTH 17 0
BBX 13 25 2 0
BITMAP
38E0
38E0
38E0
0000
0000
0F80
3FC0
78E0
6070
E030
E038
C038
C018
C018
FFF8
FFF8
C018
C018
C038
E038
E030
7070
78E0
3FC0
0F80
ENDCHAR
STARTCHAR uni04EB
ENCODING 1259
SWIDTH 497 0
DWIDTH 14 0
BBX 12 20 1 0
BITMAP
30C0
71C0
30C0
0000
0000
0F00
3FC0
30C0
7060
6060
E070
FFF0
FFF0
E070
E070
6060
70E0
39C0
3FC0
0F00
ENDCHAR
STARTCHAR uni04EC
ENCODING 1260
SWIDTH 589 0
DWIDTH 17 0
BBX 13 25 2 0
BITMAP
30C0
38E0
30C0
0000
0000
0F80
3FE0
78E0
7070
6038
E038
E018
0018
0018
0FF8
0FF8
0018
0018
0018
E038
6038
7070
78E0
3FE0
0F80
ENDCHAR
STARTCHAR uni04ED
ENCODING 1261
SWIDTH 472 0
DWIDTH 13 0
BBX 11 20 1 0
BITMAP
71C0
71C0
71C0
0000
0000
1E00
3F80
7180
E1C0
E0C0
00C0
0FE0
0FE0
00E0
00C0
E0C0
E1C0
7380
3F80
1E00
ENDCHAR
STARTCHAR uni04EE
ENCODING 1262
SWIDTH 547 0
DWIDTH 15 0
BBX 13 25 1 0
BITMAP
1FE0
1FE0
0000
0000
0000
E038
6038
7070
7070
3070
38E0
38E0
1CE0
1CC0
0DC0
0FC0
0F80
0780
0700
0700
0700
0600
0E00
3C00
3800
ENDCHAR
STARTCHAR uni04EF
ENCODING 1263
SWIDTH 416 0
DWIDTH 12 0
BBX 10 26 1 -6
BITMAP
7F80
7F80
0000
0000
0000
C0C0
E1C0
E1C0
6180
6180
7380
3300
3300
3300
3F00
1E00
1E00
1E00
0C00
0C00
0C00
0C00
1800
1800
F000
E000
ENDCHAR
STARTCHAR uni04F0
ENCODING 1264
SWIDTH 547 0
DWIDTH 15 0
BBX 13 25 1 0
BITMAP
1860
38E0
1860
0000
0000
E038
6038
7070
7070
3070
38E0
38E0
1CE0
1CC0
0DC0
0FC0
0F80
0780
0700
0700
0700
0600
0E00
3C00
3800
ENDCHAR
STARTCHAR uni04F1
ENCODING 1265
SWIDTH 416 0
DWIDTH 12 0
BBX 10 26 1 -6
BITMAP
6180
71C0
6180
0000
0000
C0C0
E1C0
E1C0
6180
6180
7380
3300
3300
3300
3F00
1E00
1E00
1E00
0C00
0C00
0C00
0C00
1800
1800
F000
E000
ENDCHAR
STARTCHAR uni04F2
ENCODING 1266
SWIDTH 547 0
DWIDTH 15 0
BBX 13 26 1 0
BITMAP
0770
06E0
0EC0
0DC0
0000
0000
E038
6038
7070
7070
3070
38E0
38E0
1CE0
1CC0
0DC0
0FC0
0F80
0780
0700
0700
0700
0600
0E00
3C00
3800
ENDCHAR
STARTCHAR uni04F3
ENCODING 1267
SWIDTH 416 0
DWIDTH 12 0
BBX 11 27 1 -6
BITMAP
0CE0
1D80
1B80
3700
0000
0000
C0C0
E1C0
E1C0
6180
6180
7380
3300
3300
3300
3F00
1E00
1E00
1E00
0C00
0C00
0C00
0C00
1800
1800
F000
E000
ENDCHAR
STARTCHAR uni04F4
ENCODING 1268
SWIDTH 600 0
DWIDTH 17 0
BBX 13 25 2 0
BITMAP
30C0
38E0
30C0
0000
0000
E038
E038
E038
E038
E038
E038
E038
E038
E038
7078
7FF8
1FB8
0038
0038
0038
0038
0038
0038
0038
0038
ENDCHAR
STARTCHAR uni04F5
ENCODING 1269
SWIDTH 479 0
DWIDTH 13 0
BBX 10 20 1 0
BITMAP
7180
71C0
7180
0000
0000
E0C0
E0C0
E0C0
E0C0
E0C0
E0C0
E0C0
70C0
7FC0
1FC0
00C0
00C0
00C0
00C0
00C0
ENDCHAR
STARTCHAR uni04F6
ENCODING 1270
SWIDTH 487 0
DWIDTH 14 0
BBX 11 25 2 -5
BITMAP
FFE0
FFE0
E000
E000
E000
E000
E000
E000
E000
E000
E000
E000
E000
E000
E000
E000
E000
E000
F800
F800
3800
3800
3800
3800
3800
ENDCHAR
STARTCHAR uni04F7
ENCODING 1271
SWIDTH 371 0
DWIDTH 10 0
BBX 8 20 2 -5
BITMAP
FF
FF
C0
C0
C0
C0
C0
C0
C0
C0
C0
C0
C0
F8
F8
38
38
38
38
38
ENDCHAR
STARTCHAR uni04F8
ENCODING 1272
SWIDTH 755 0
DWIDTH 21 0
BBX 17 25 2 0
BITMAP
0E3800
0E3800
0E3800
000000
000000
E00380
E00380
E00380
E00380
E00380
E00380
E00380
E00380
FF8380
FFE380
E0E380
E07380
E03380
E03380
E03380
E03380
E07380
E0E380
FFE380
FF8380
ENDCHAR
STARTCHAR uni04F9
ENCODING 1273
SWIDTH 679 0
DWIDTH 19 0
BBX 15 20 2 0
BITMAP
1C60
1C70
1C60
0000
0000
C00E
C00E
C00E
C00E
C00E
FE0E
FF8E
C18E
C1CE
C1CE
C1CE
C1CE
C18E
FF8E
FF0E
ENDCHAR
STARTCHAR uni04FA
ENCODING 1274
SWIDTH 520 0
DWIDTH 15 0
BBX 13 26 1 -6
BITMAP
3FF8
3FF8
3800
3800
3800
3800
3800
3800
FF00
FF00
3800
3800
3800
3800
3800
3800
3800
3E00
3E00
3E00
0600
0E00
0E00
0E00
3C00
3800
ENDCHAR
STARTCHAR uni04FB
ENCODING 1275
SWIDTH 410 0
DWIDTH 11 0
BBX 10 21 1 -6
BITMAP
3FC0
3FC0
3800
3800
3800
3800
FE00
FE00
3800
3800
3800
3800
3E00
3E00
3E00
0E00
0E00
0E00
0C00
3C00
3800
ENDCHAR
STARTCHAR uni04FC
ENCODING 1276
SWIDTH 570 0
DWIDTH 16 0
BBX 15 26 1 -6
BITMAP
E038
7038
7070
3870
38E0
1CE0
1DC0
0FC0
0780
0700
0780
0F80
0FC0
1DC0
1CE0
38E0
3870
707E
703E
E03E
000E
000E
000C
000C
003C
0038
ENDCHAR
STARTCHAR uni04FD
ENCODING 1277
SWIDTH 476 0
DWIDTH 13 0
BBX 12 21 1 -6
BITMAP
E1C0
61C0
7380
3380
3B00
1E00
1E00
0C00
1E00
1F00
3B00
3380
71F0
61F0
E1F0
0070
0070
0070
0060
01E0
01C0
ENDCHAR
STARTCHAR uni04FE
ENCODING 1278
SWIDTH 550 0
DWIDTH 15 0
BBX 14 20 1 0
BITMAP
E038
7038
7070
3870
38E0
1CE0
1DC0
0FC0
0F80
1FC0
1FC0
0F80
0F80
1DC0
1CE0
38E0
3870
7070
7038
E03C
ENDCHAR
STARTCHAR uni04FF
ENCODING 1279
SWIDTH 438 0
DWIDTH 12 0
BBX 11 15 1 0
BITMAP
E1C0
61C0
7380
3300
3B00
1E00
7F80
7F80
1E00
1F00
3B00
3380
7180
E1C0
E1E0
ENDCHAR
STARTCHAR uni0500
ENCODING 1280
SWIDTH 555 0
DWIDTH 16 0
BBX 12 20 2 0
BITMAP
0070
0070
0070
0070
0070
0070
0070
0070
1FF0
7FF0
E070
E070
C070
C070
C070
C070
E070
F070
7FF0
1FF0
ENDCHAR
STARTCHAR uni0501
ENCODING 1281
SWIDTH 496 0
DWIDTH 14 0
BBX 11 21 1 0
BITMAP
0060
0060
0060
0060
0060
0060
1E60
3F60
70E0
60E0
6060
E060
E060
E060
E060
E060
6060
60E0
70E0
3F60
1E60
ENDCHAR
STARTCHAR uni0502
ENCODING 1282
SWIDTH 723 0
DWIDTH 20 0
BBX 18 20 1 0
BITMAP
003000
003000
003000
003000
003000
003000
003000
003000
1FF000
3FF000
7031C0
6030C0
E030C0
E030C0
E030C0
E030C0
6031C0
7031C0
3FFF80
1FFF00
ENDCHAR
STARTCHAR uni0503
ENCODING 1283
SWIDTH 743 0
DWIDTH 21 0
BBX 18 21 1 0
BITMAP
00E000
00E000
00E000
00E000
00E000
00E000
1EE000
3FE000
38E1C0
70E0C0
6060C0
6060C0
E060C0
E060C0
E060C0
6060C0
6060C0
70E1C0
70F380
3FFF00
1E3E00
ENDCHAR
STARTCHAR uni0504
ENCODING 1284
SWIDTH 685 0
DWIDTH 19 0
BBX 16 20 1 0
BITMAP
FE00
FF00
0380
0180
01C0
01C0
01C0
0187
0387
3F03
3F03
0383
0183
01C3
01C3
01C7
01C7
01CE
00FC
0078
ENDCHAR
STARTCHAR uni0505
ENCODING 1285
SWIDTH 562 0
DWIDTH 16 0
BBX 14 15 1 0
BITMAP
FC00
FE00
0700
0700
0300
0718
071C
7C1C
7E1C
071C
031C
0318
0338
03F0
01E0
ENDCHAR
STARTCHAR uni0506
ENCODING 1286
SWIDTH 470 0
DWIDTH 13 0
BBX 11 24 1 -4
BITMAP
FC00
FE00
0700
0380
0380
0380
0380
0300
0700
7E00
7E00
0700
0380
0380
0380
0380
0380
03E0
03E0
01E0
00E0
00C0
00C0
0180
ENDCHAR
STARTCHAR uni0507
ENCODING 1287
SWIDTH 443 0
DWIDTH 12 0
BBX 10 19 2 -4
BITMAP
F800
FE00
0E00
0700
0700
0700
0E00
FC00
FE00
0E00
0700
0700
07C0
07C0
03C0
0180
0180
0380
0100
ENDCHAR
STARTCHAR uni0508
ENCODING 1288
SWIDTH 834 0
DWIDTH 23 0
BBX 21 20 1 0
BITMAP
1FFC00
1FFC00
1C1C00
1C1C00
1C1C00
1C1C00
1C1C00
1C1C30
1C1C38
1C1C38
1C1C38
1C1C18
181C18
181C38
181C38
181C38
381C30
301C70
F00FE0
E007C0
ENDCHAR
STARTCHAR uni0509
ENCODING 1289
SWIDTH 698 0
DWIDTH 20 0
BBX 18 15 1 0
BITMAP
1FE000
1FE000
186000
186180
1861C0
1861C0
1861C0
1860C0
1861C0
1861C0
1861C0
386180
307380
F03F00
E01E00
ENDCHAR
STARTCHAR uni050A
ENCODING 1290
SWIDTH 864 0
DWIDTH 24 0
BBX 20 20 2 0
BITMAP
E03800
E03800
E03800
E03800
E03800
E03800
E03800
E03870
E03870
FFF830
FFF830
E03830
E03830
E03830
E03830
E03870
E01870
E01CE0
E01FC0
E00F80
ENDCHAR
STARTCHAR uni050B
ENCODING 1291
SWIDTH 716 0
DWIDTH 20 0
BBX 17 15 2 0
BITMAP
C0C000
C0C000
C0C000
C0C300
C0C380
C0C380
FFC380
FFC180
C0C180
C0C380
C0C380
C0C300
C0E700
C07E00
C03C00
ENDCHAR
STARTCHAR uni050C
ENCODING 1292
SWIDTH 541 0
DWIDTH 15 0
BBX 13 20 1 0
BITMAP
07C0
1FE0
3820
3000
7000
6000
6000
E000
E000
E030
E030
E038
E038
6038
6038
7038
3030
3870
1FE0
07C0
ENDCHAR
STARTCHAR uni050D
ENCODING 1293
SWIDTH 452 0
DWIDTH 13 0
BBX 10 15 2 0
BITMAP
1F00
3F00
7100
E000
C000
C000
C000
C180
C180
C180
C1C0
E180
7180
3F80
1E00
ENDCHAR
STARTCHAR uni050E
ENCODING 1294
SWIDTH 616 0
DWIDTH 17 0
BBX 15 20 1 0
BITMAP
FFF8
FFF8
0600
0600
0600
0600
0600
060C
060C
060E
060E
060E
060E
060E
060E
060C
071C
071C
03F8
01E0
ENDCHAR
STARTCHAR uni050F
ENCODING 1295
SWIDTH 558 0
DWIDTH 16 0
BBX 13 15 1 0
BITMAP
FFE0
FFE0
0E00
0E00
0E00
0E38
0E18
0E18
0E18
0E18
0E18
0E18
0638
07F0
03E0
ENDCHAR
STARTCHAR uni0510
ENCODING 1296
SWIDTH 589 0
DWIDTH 17 0
BBX 13 20 2 0
BITMAP
0FC0
3FE0
7870
7038
6038
E000
6000
7000
3800
1F80
3F80
7000
6000
E000
E018
E018
6038
7870
3FF0
0FC0
ENDCHAR
STARTCHAR uni0511
ENCODING 1297
SWIDTH 470 0
DWIDTH 13 0
BBX 11 15 1 0
BITMAP
1F00
7F80
71C0
60C0
E020
7000
3F00
3F00
7000
E000
E0E0
E0E0
71C0
7FC0
1F00
ENDCHAR
STARTCHAR uni0512
ENCODING 1298
SWIDTH 664 0
DWIDTH 19 0
BBX 16 26 1 -6
BITMAP
1FFC
1FFC
1C1C
1C1C
1C1C
1C1C
1C1C
1C1C
1C1C
1C1C
181C
181C
181C
181C
181C
381C
381C
701F
F01F
E01F
0003
0003
0003
0003
000F
001E
ENDCHAR
STARTCHAR uni0513
ENCODING 1299
SWIDTH 553 0
DWIDTH 15 0
BBX 14 21 1 -6
BITMAP
3FE0
3FE0
3860
3860
3860
3860
3860
3860
3060
3060
3060
3060
707C
E07C
C07C
001C
001C
001C
0018
0078
0070
ENDCHAR
STARTCHAR uni1E00
ENCODING 7680
SWIDTH 576 0
DWIDTH 16 0
BBX 15 25 1 -5
BITMAP
0300
0780
0780
0780
0FC0
0CC0
0CC0
0CC0
1CE0
1860
1860
3870
3030
3FF0
7FF8
6018
6018
E01C
E01C
C00C
0002
0380
0480
0480
0380
ENDCHAR
STARTCHAR uni1E01
ENCODING 7681
SWIDTH 479 0
DWIDTH 13 0
BBX 11 20 1 -5
BITMAP
1F00
3F80
71C0
60C0
00C0
00C0
1FC0
3FC0
70C0
60C0
E0C0
E0C0
61C0
7FC0
3CE0
0000
0C00
1200
1200
0C00
ENDCHAR
STARTCHAR uni1E3E
ENCODING 7742
SWIDTH 755 0
DWIDTH 21 0
BBX 17 26 2 0
BITMAP
007800
006000
00E000
01C000
000000
000000
F00380
F00780
F00780
F00780
F80F80
D80D80
D80D80
FC1D80
EC1980
EC1980
EE3980
E63380
E63380
E77380
E36380
E36380
E3E380
E1C380
E1C380
E1C380
ENDCHAR
STARTCHAR uni1E3F
ENCODING 7743
SWIDTH 752 0
DWIDTH 21 0
BBX 17 21 2 0
BITMAP
003800
007000
00E000
01C000
000000
000000
CF1E00
FFBF00
E3E380
C1C180
C1C180
C1C180
C1C180
C1C180
C1C180
C1C180
C1C180
C1C180
C1C180
C1C180
C1C180
ENDCHAR
STARTCHAR Wgrave
ENCODING 7808
SWIDTH 761 0
DWIDTH 21 0
BBX 20 26 1 0
BITMAP
038000
01C000
00E000
006000
000000
000000
E06070
E0E060
E0E060
60F0E0
60F0E0
60F0E0
71B0C0
7198C0
3198C0
3199C0
3319C0
3B1980
3B0D80
1B0D80
1F0D80
1E0F80
1E0700
1E0700
0E0700
0C0700
ENDCHAR
STARTCHAR wgrave
ENCODING 7809
SWIDTH 649 0
DWIDTH 18 0
BBX 16 21 1 0
BITMAP
0E00
0700
0380
0180
0000
0000
C183
C183
E3C7
E3C7
63C6
63C6
6666
766E
366C
366C
3C3C
3C3C
1C38
1C38
1818
ENDCHAR
STARTCHAR Wacute
ENCODING 7810
SWIDTH 761 0
DWIDTH 21 0
BBX 20 26 1 0
BITMAP
001C00
003800
007000
00E000
000000
000000
E06070
E0E060
E0E060
60F0E0
60F0E0
60F0E0
71B0C0
7198C0
3198C0
3199C0
3319C0
3B1980
3B0D80
1B0D80
1F0D80
1E0F80
1E0700
1E0700
0E0700
0C0700
ENDCHAR
STARTCHAR wacute
ENCODING 7811
SWIDTH 649 0
DWIDTH 18 0
BBX 16 21 1 0
BITMAP
0070
00E0
01C0
0180
0000
0000
C183
C183
E3C7
E3C7
63C6
63C6
6666
766E
366C
366C
3C3C
3C3C
1C38
1C38
1818
ENDCHAR
STARTCHAR Wdieresis
ENCODING 7812
SWIDTH 761 0
DWIDTH 21 0
BBX 20 25 1 0
BITMAP
030C00
071C00
030C00
000000
000000
E06070
E0E060
E0E060
60F0E0
60F0E0
60F0E0
71B0C0
7198C0
3198C0
3199C0
3319C0
3B1980
3B0D80
1B0D80
1F0D80
1E0F80
1E0700
1E0700
0E0700
0C0700
ENDCHAR
STARTCHAR wdieresis
ENCODING 7813
SWIDTH 649 0
DWIDTH 18 0
BBX 16 20 1 0
BITMAP
0C30
0E70
0C30
0000
0000
C183
C183
E3C7
E3C7
63C6
63C6
6666
766E
366C
366C
3C3C
3C3C
1C38
1C38
1818
ENDCHAR
STARTCHAR uni1EA0
ENCODING 7840
SWIDTH 576 0
DWIDTH 16 0
BBX 15 25 1 -5
BITMAP
0300
0780
0780
0780
0FC0
0CC0
0CC0
0CC0
1CE0
1860
1860
3870
3030
3FF0
7FF8
6018
6018
E01C
E01C
C00C
0002
0000
0300
0380
0300
ENDCHAR
STARTCHAR uni1EA1
ENCODING 7841
SWIDTH 479 0
DWIDTH 13 0
BBX 11 20 1 -5
BITMAP
1F00
3F80
71C0
60C0
00C0
00C0
1FC0
3FC0
70C0
60C0
E0C0
E0C0
61C0
7FC0
3CE0
0000
0000
0C00
1C00
0C00
ENDCHAR
STARTCHAR uni1EA2
ENCODING 7842
SWIDTH 576 0
DWIDTH 16 0
BBX 15 28 1 0
BITMAP
0300
0380
00C0
00C0
0380
0300
0000
0000
0300
0780
0780
0780
0FC0
0CC0
0CC0
0CC0
1CE0
1860
1860
3870
3030
3FF0
7FF8
6018
6018
E01C
E01C
C00E
ENDCHAR
STARTCHAR uni1EA3
ENCODING 7843
SWIDTH 479 0
DWIDTH 13 0
BBX 11 23 1 0
BITMAP
0600
0700
0180
0100
0700
0600
0000
0000
1F00
3F80
71C0
60C0
00C0
00C0
1FC0
3FC0
70C0
60C0
E0C0
E0C0
61C0
7FC0
3CE0
ENDCHAR
STARTCHAR uni1EA4
ENCODING 7844
SWIDTH 576 0
DWIDTH 16 0
BBX 15 28 1 0
BITMAP
000E
000C
0398
07D8
0CE0
1C70
0000
0000
0300
0780
0780
0780
0FC0
0CC0
0CC0
0CC0
1CE0
1860
1860
3870
3030
3FF0
7FF8
6018
6018
E01C
E01C
C00E
ENDCHAR
STARTCHAR uni1EA5
ENCODING 7845
SWIDTH 479 0
DWIDTH 13 0
BBX 14 23 1 0
BITMAP
001C
0038
0630
0F70
1980
39C0
0000
0000
1F00
3F80
71C0
60C0
00C0
00C0
1FC0
3FC0
70C0
60C0
E0C0
E0C0
61C0
7FC0
3CE0
ENDCHAR
STARTCHAR uni1EA6
ENCODING 7846
SWIDTH 576 0
DWIDTH 16 0
BBX 16 29 0 0
BITMAP
E000
7000
3000
19C0
03E0
0670
0E38
0000
0000
0180
03C0
03C0
03C0
07E0
0660
0660
0660
0E70
0C30
0C30
1C38
1818
1FF8
3FFC
300C
300C
700E
700E
6007
ENDCHAR
STARTCHAR uni1EA7
ENCODING 7847
SWIDTH 479 0
DWIDTH 13 0
BBX 13 23 -1 0
BITMAP
E000
7000
3380
33C0
0660
0C70
0000
0000
07C0
0FE0
1C70
1830
0030
0030
07F0
0FF0
1C30
1830
3830
3830
1870
1FF0
0F38
ENDCHAR
STARTCHAR uni1EA8
ENCODING 7848
SWIDTH 576 0
DWIDTH 16 0
BBX 15 29 1 0
BITMAP
0030
0018
0008
07B8
07F0
0CE0
1870
0000
0000
0300
0780
0780
0780
0FC0
0CC0
0CC0
0CC0
1CE0
1860
1860
3870
3030
3FF0
7FF8
6018
6018
E01C
E01C
C00E
ENDCHAR
STARTCHAR uni1EA9
ENCODING 7849
SWIDTH 479 0
DWIDTH 13 0
BBX 12 24 1 0
BITMAP
0060
0030
0030
0F70
1FE0
3980
30C0
0000
0000
1F00
3F80
71C0
60C0
00C0
00C0
1FC0
3FC0
70C0
60C0
E0C0
E0C0
61C0
7FC0
3CE0
ENDCHAR
STARTCHAR uni1EAA
ENCODING 7850
SWIDTH 576 0
DWIDTH 16 0
BBX 15 28 1 0
BITMAP
0640
0FC0
0980
0000
0380
0EC0
1870
0000
0300
0780
0780
0780
0FC0
0CC0
0CC0
0CC0
1CE0
1860
1860
3870
3030
3FF0
7FF8
6018
6018
E01C
E01C
C00E
ENDCHAR
STARTCHAR uni1EAB
ENCODING 7851
SWIDTH 479 0
DWIDTH 13 0
BBX 11 24 1 0
BITMAP
0C80
1F80
1300
0000
0F00
1B80
30C0
0000
0000
1F00
3F80
71C0
60C0
00C0
00C0
1FC0
3FC0
70C0
60C0
E0C0
E0C0
61C0
7FC0
3CE0
ENDCHAR
STARTCHAR uni1EAC
ENCODING 7852
SWIDTH 576 0
DWIDTH 16 0
BBX 15 31 1 -5
BITMAP
0300
0780
0EC0
0CE0
0000
0000
0300
0780
0780
0780
0FC0
0CC0
0CC0
0CC0
1CE0
1860
1860
3870
3030
3FF0
7FF8
6018
6018
E01C
E01C
C00C
0002
0000
0300
0380
0300
ENDCHAR
STARTCHAR uni1EAD
ENCODING 7853
SWIDTH 479 0
DWIDTH 13 0
BBX 11 26 1 -5
BITMAP
0600
0F00
1980
39C0
0000
0000
1F00
3F80
71C0
60C0
00C0
00C0
1FC0
3FC0
70C0
60C0
E0C0
E0C0
61C0
7FC0
3CE0
0000
0000
0C00
1C00
0C00
ENDCHAR
STARTCHAR uni1EAE
ENCODING 7854
SWIDTH 576 0
DWIDTH 16 0
BBX 15 28 1 0
BITMAP
01C0
0180
0300
0C60
0CC0
0FC0
0780
0000
0300
0780
0780
0780
0FC0
0CC0
0CC0
0CC0
1CE0
1860
1860
3870
3030
3FF0
7FF8
6018
6018
E01C
E01C
C00E
ENDCHAR
STARTCHAR uni1EAF
ENCODING 7855
SWIDTH 479 0
DWIDTH 13 0
BBX 11 24 1 0
BITMAP
0300
0200
0600
3180
1980
1F80
0F00
0000
0000
1F00
3F80
71C0
60C0
00C0
00C0
1FC0
3FC0
70C0
60C0
E0C0
E0C0
61C0
7FC0
3CE0
ENDCHAR
STARTCHAR uni1EB0
ENCODING 7856
SWIDTH 576 0
DWIDTH 16 0
BBX 15 28 1 0
BITMAP
0600
0200
0300
0C60
0CC0
0FC0
0780
0000
0300
0780
0780
0780
0FC0
0CC0
0CC0
0CC0
1CE0
1860
1860
3870
3030
3FF0
7FF8
6018
6018
E01C
E01C
C00E
ENDCHAR
STARTCHAR uni1EB1
ENCODING 7857
SWIDTH 479 0
DWIDTH 13 0
BBX 11 24 1 0
BITMAP
0C00
0400
0600
3180
1980
1F80
0F00
0000
0000
1F00
3F80
71C0
60C0
00C0
00C0
1FC0
3FC0
70C0
60C0
E0C0
E0C0
61C0
7FC0
3CE0
ENDCHAR
STARTCHAR uni1EB2
ENCODING 7858
SWIDTH 576 0
DWIDTH 16 0
BBX 15 28 1 0
BITMAP
0380
00C0
0380
0300
0CC0
0FC0
0780
0000
0300
0780
0780
0780
0FC0
0CC0
0CC0
0CC0
1CE0
1860
1860
3870
3030
3FF0
7FF8
6018
6018
E01C
E01C
C00E
ENDCHAR
STARTCHAR uni1EB3
ENCODING 7859
SWIDTH 479 0
DWIDTH 13 0
BBX 11 24 1 0
BITMAP
0700
0300
0700
0600
3180
1F80
0F00
0000
0000
1F00
3F80
71C0
60C0
00C0
00C0
1FC0
3FC0
70C0
60C0
E0C0
E0C0
61C0
7FC0
3CE0
ENDCHAR
STARTCHAR uni1EB4
ENCODING 7860
SWIDTH 576 0
DWIDTH 16 0
BBX 15 28 1 0
BITMAP
0640
0FC0
09C0
0000
0C40
0CC0
0780
0000
0300
0780
0780
0780
0FC0
0CC0
0CC0
0CC0
1CE0
1860
1860
3870
3030
3FF0
7FF8
6018
6018
E01C
E01C
C00E
ENDCHAR
STARTCHAR uni1EB5
ENCODING 7861
SWIDTH 479 0
DWIDTH 13 0
BBX 11 24 1 0
BITMAP
0C80
1F80
1300
0000
3180
1980
0F00
0000
0000
1F00
3F80
71C0
60C0
00C0
00C0
1FC0
3FC0
70C0
60C0
E0C0
E0C0
61C0
7FC0
3CE0
ENDCHAR
STARTCHAR uni1EB6
ENCODING 7862
SWIDTH 576 0
DWIDTH 16 0
BBX 15 30 1 -5
BITMAP
1860
1C60
0FC0
0780
0000
0300
0780
0780
0780
0FC0
0CC0
0CC0
0CC0
1CE0
1860
1860
3870
3030
3FF0
7FF8
6018
6018
E01C
E01C
C00C
0002
0000
0300
0380
0300
ENDCHAR
STARTCHAR uni1EB7
ENCODING 7863
SWIDTH 479 0
DWIDTH 13 0
BBX 11 25 1 -5
BITMAP
30C0
39C0
1F80
0F00
0000
1F00
3F80
71C0
60C0
00C0
00C0
1FC0
3FC0
70C0
60C0
E0C0
E0C0
61C0
7FC0
3CE0
0000
0000
0C00
1C00
0C00
ENDCHAR
STARTCHAR uni1EB8
ENCODING 7864
SWIDTH 496 0
DWIDTH 14 0
BBX 11 25 2 -5
BITMAP
FFE0
FFE0
E000
E000
E000
E000
E000
E000
E000
FFC0
FFC0
E000
E000
E000
E000
E000
E000
E000
FFE0
FFE0
0000
0000
0C00
0E00
0C00
ENDCHAR
STARTCHAR uni1EB9
ENCODING 7865
SWIDTH 468 0
DWIDTH 13 0
BBX 11 20 1 -5
BITMAP
1F00
3FC0
71C0
60E0
60E0
E060
FFE0
FFE0
E000
E000
E000
6040
70E0
3FC0
1F80
0000
0000
0600
0E00
0600
ENDCHAR
STARTCHAR uni1EBA
ENCODING 7866
SWIDTH 496 0
DWIDTH 14 0
BBX 11 28 2 0
BITMAP
0E00
0F00
0300
0300
0600
0400
0000
0000
FFE0
FFE0
E000
E000
E000
E000
E000
E000
E000
FFC0
FFC0
E000
E000
E000
E000
E000
E000
E000
FFE0
FFE0
ENDCHAR
STARTCHAR uni1EBB
ENCODING 7867
SWIDTH 468 0
DWIDTH 13 0
BBX 11 23 1 0
BITMAP
0600
0700
0300
0300
0700
0600
0000
0000
1F00
3FC0
71C0
60E0
60E0
E060
FFE0
FFE0
E000
E000
E000
6040
70E0
3FC0
1F80
ENDCHAR
STARTCHAR uni1EBC
ENCODING 7868
SWIDTH 496 0
DWIDTH 14 0
BBX 11 25 2 0
BITMAP
38C0
3F80
6700
0000
0000
FFE0
FFE0
E000
E000
E000
E000
E000
E000
E000
FFC0
FFC0
E000
E000
E000
E000
E000
E000
E000
FFE0
FFE0
ENDCHAR
STARTCHAR uni1EBD
ENCODING 7869
SWIDTH 468 0
DWIDTH 13 0
BBX 11 20 1 0
BITMAP
1CC0
3FC0
2380
0000
0000
1F00
3FC0
71C0
60E0
60E0
E060
FFE0
FFE0
E000
E000
E000
6040
70E0
3FC0
1F80
ENDCHAR
STARTCHAR uni1EBE
ENCODING 7870
SWIDTH 496 0
DWIDTH 14 0
BBX 13 28 2 0
BITMAP
0038
0030
0E70
1F60
3B80
71C0
0000
0000
FFE0
FFE0
E000
E000
E000
E000
E000
E000
E000
FFC0
FFC0
E000
E000
E000
E000
E000
E000
E000
FFE0
FFE0
ENDCHAR
STARTCHAR uni1EBF
ENCODING 7871
SWIDTH 468 0
DWIDTH 13 0
BBX 13 23 1 0
BITMAP
0018
0038
0E30
1F60
3B80
71C0
0000
0000
1F00
3FC0
71C0
60E0
60E0
E060
FFE0
FFE0
E000
E000
E000
6040
70E0
3FC0
1F80
ENDCHAR
STARTCHAR uni1EC0
ENCODING 7872
SWIDTH 496 0
DWIDTH 14 0
BBX 13 28 0 0
BITMAP
E000
6000
6380
37C0
0EE0
1C70
0000
0000
3FF8
3FF8
3800
3800
3800
3800
3800
3800
3800
3FF0
3FF0
3800
3800
3800
3800
3800
3800
3800
3FF8
3FF8
ENDCHAR
STARTCHAR uni1EC1
ENCODING 7873
SWIDTH 468 0
DWIDTH 13 0
BBX 13 23 -1 0
BITMAP
E000
6000
3380
37C0
0EE0
1C70
0000
0000
07C0
0FF0
1C70
1838
1838
3818
3FF8
3FF8
3800
3800
3800
1810
1C38
0FF0
07E0
ENDCHAR
STARTCHAR uni1EC2
ENCODING 7874
SWIDTH 496 0
DWIDTH 14 0
BBX 12 29 2 0
BITMAP
00E0
0020
0030
0E60
1B40
3380
71C0
0000
0000
FFE0
FFE0
E000
E000
E000
E000
E000
E000
E000
FFC0
FFC0
E000
E000
E000
E000
E000
E000
E000
FFE0
FFE0
ENDCHAR
STARTCHAR uni1EC3
ENCODING 7875
SWIDTH 468 0
DWIDTH 13 0
BBX 12 24 1 0
BITMAP
0060
0030
0030
0E70
1B40
3980
70C0
0000
0000
1F00
3FC0
71C0
60E0
60E0
E060
FFE0
FFE0
E000
E000
E000
6040
70E0
3FC0
1F80
ENDCHAR
STARTCHAR uni1EC4
ENCODING 7876
SWIDTH 496 0
DWIDTH 14 0
BBX 11 28 2 0
BITMAP
1900
3F00
2700
0000
0E00
3B00
71C0
0000
FFE0
FFE0
E000
E000
E000
E000
E000
E000
E000
FFC0
FFC0
E000
E000
E000
E000
E000
E000
E000
FFE0
FFE0
ENDCHAR
STARTCHAR uni1EC5
ENCODING 7877
SWIDTH 468 0
DWIDTH 13 0
BBX 11 24 1 0
BITMAP
1C80
1F80
1300
0000
0E00
1B80
71C0
0000
0000
1F00
3FC0
71C0
60E0
60E0
E060
FFE0
FFE0
E000
E000
E000
6040
70E0
3FC0
1F80
ENDCHAR
STARTCHAR uni1EC6
ENCODING 7878
SWIDTH 496 0
DWIDTH 14 0
BBX 11 31 2 -5
BITMAP
0E00
1E00
1B00
3180
0000
0000
FFE0
FFE0
E000
E000
E000
E000
E000
E000
E000
FFC0
FFC0
E000
E000
E000
E000
E000
E000
E000
FFE0
FFE0
0000
0000
0C00
0E00
0C00
ENDCHAR
STARTCHAR uni1EC7
ENCODING 7879
SWIDTH 468 0
DWIDTH 13 0
BBX 11 26 1 -5
BITMAP
0600
0F00
1B80
3180
0000
0000
1F00
3FC0
71C0
60E0
60E0
E060
FFE0
FFE0
E000
E000
E000
6040
70E0
3FC0
1F80
0000
0000
0600
0E00
0600
ENDCHAR
STARTCHAR uni1EC8
ENCODING 7880
SWIDTH 250 0
DWIDTH 7 0
BBX 4 28 2 0
BITMAP
60
F0
30
30
60
40
00
00
E0
E0
E0
E0
E0
E0
E0
E0
E0
E0
E0
E0
E0
E0
E0
E0
E0
E0
E0
E0
ENDCHAR
STARTCHAR uni1EC9
ENCODING 7881
SWIDTH 234 0
DWIDTH 7 0
BBX 4 23 2 0
BITMAP
E0
F0
30
30
E0
C0
00
00
C0
C0
C0
C0
C0
C0
C0
C0
C0
C0
C0
C0
C0
C0
C0
ENDCHAR
STARTCHAR uni1ECA
ENCODING 7882
SWIDTH 250 0
DWIDTH 7 0
BBX 3 25 2 -5
BITMAP
E0
E0
E0
E0
E0
E0
E0
E0
E0
E0
E0
E0
E0
E0
E0
E0
E0
E0
E0
E0
00
00
E0
E0
E0
ENDCHAR
STARTCHAR uni1ECB
ENCODING 7883
SWIDTH 229 0
DWIDTH 6 0
BBX 3 25 2 -5
BITMAP
C0
C0
C0
00
00
C0
C0
C0
C0
C0
C0
C0
C0
C0
C0
C0
C0
C0
C0
C0
00
00
C0
E0
C0
ENDCHAR
STARTCHAR uni1ECC
ENCODING 7884
SWIDTH 600 0
DWIDTH 17 0
BBX 13 25 2 -5
BITMAP
0F80
3FE0
7870
6030
E038
E038
C018
C018
C018
C018
C018
C018
C018
C018
E038
E038
6030
7870
3FE0
0F80
0000
0000
0700
0700
0700
ENDCHAR
STARTCHAR uni1ECD
ENCODING 7885
SWIDTH 501 0
DWIDTH 14 0
BBX 12 20 1 -5
BITMAP
0F00
3FC0
70E0
60E0
E060
E070
E070
E070
E070
E070
E060
6060
70E0
3FC0
0F00
0000
0000
0600
0E00
0600
ENDCHAR
STARTCHAR uni1ECE
ENCODING 7886
SWIDTH 600 0
DWIDTH 17 0
BBX 13 28 2 0
BITMAP
0700
0780
0180
0180
0300
0200
0000
0000
0F80
3FE0
7870
6030
E038
E038
C018
C018
C018
C018
C018
C018
C018
C018
E038
E038
6030
7870
3FE0
0F80
ENDCHAR
STARTCHAR uni1ECF
ENCODING 7887
SWIDTH 501 0
DWIDTH 14 0
BBX 12 23 1 0
BITMAP
0600
0700
0300
0100
0700
0600
0000
0000
0F00
3FC0
70E0
60E0
E060
E070
E070
E070
E070
E070
E060
6060
70E0
3FC0
0F00
ENDCHAR
STARTCHAR uni1ED0
ENCODING 7888
SWIDTH 600 0
DWIDTH 17 0
BBX 14 28 2 0
BITMAP
001C
0018
0738
0FB0
1DC0
38E0
0000
0000
0F80
3FE0
7870
6030
E038
E038
C018
C018
C018
C018
C018
C018
C018
C018
E038
E038
6030
7870
3FE0
0F80
ENDCHAR
STARTCHAR uni1ED1
ENCODING 7889
SWIDTH 501 0
DWIDTH 14 0
BBX 14 23 1 0
BITMAP
001C
0038
0E30
1F70
3980
31C0
0000
0000
0F00
3FC0
70E0
60E0
E060
E070
E070
E070
E070
E070
E060
6060
70E0
3FC0
0F00
ENDCHAR
STARTCHAR uni1ED2
ENCODING 7890
SWIDTH 600 0
DWIDTH 17 0
BBX 14 28 1 0
BITMAP
E000
6000
6380
37C0
0EE0
1C70
0000
0000
07C0
1FF0
3C38
3018
701C
701C
600C
600C
600C
600C
600C
600C
600C
600C
701C
701C
3018
3C38
1FF0
07C0
ENDCHAR
STARTCHAR uni1ED3
ENCODING 7891
SWIDTH 501 0
DWIDTH 14 0
BBX 14 23 -1 0
BITMAP
E000
6000
3380
37C0
0E60
0C70
0000
0000
03C0
0FF0
1C38
1838
3818
381C
381C
381C
381C
381C
3818
1818
1C38
0FF0
03C0
ENDCHAR
STARTCHAR uni1ED4
ENCODING 7892
SWIDTH 600 0
DWIDTH 17 0
BBX 13 29 2 0
BITMAP
0030
0010
0018
0730
0DA0
19C0
38E0
0000
0000
0F80
3FE0
7870
6030
E038
E038
C018
C018
C018
C018
C018
C018
C018
C018
E038
E038
6030
7870
3FE0
0F80
ENDCHAR
STARTCHAR uni1ED5
ENCODING 7893
SWIDTH 501 0
DWIDTH 14 0
BBX 12 24 1 0
BITMAP
0060
0030
0030
0F70
1F60
3980
30C0
0000
0000
0F00
3FC0
70E0
60E0
E060
E070
E070
E070
E070
E070
E060
6060
70E0
3FC0
0F00
ENDCHAR
STARTCHAR uni1ED6
ENCODING 7894
SWIDTH 600 0
DWIDTH 17 0
BBX 13 28 2 0
BITMAP
0C80
1F80
1380
0000
0700
1D80
38E0
0000
0F80
3FE0
7870
6030
E038
E038
C018
C018
C018
C018
C018
C018
C018
C018
E038
E038
6030
7870
3FE0
0F80
ENDCHAR
STARTCHAR uni1ED7
ENCODING 7895
SWIDTH 501 0
DWIDTH 14 0
BBX 12 24 1 0
BITMAP
0C80
1F80
1300
0000
0E00
1B80
30C0
0000
0000
0F00
3FC0
70E0
60E0
E060
E070
E070
E070
E070
E070
E060
6060
70E0
3FC0
0F00
ENDCHAR
STARTCHAR uni1ED8
ENCODING 7896
SWIDTH 600 0
DWIDTH 17 0
BBX 13 31 2 -5
BITMAP
0700
0F00
0D80
18C0
0000
0000
0F80
3FE0
7870
6030
E038
E038
C018
C018
C018
C018
C018
C018
C018
C018
E038
E038
6030
7870
3FE0
0F80
0000
0000
0700
0700
0700
ENDCHAR
STARTCHAR uni1ED9
ENCODING 7897
SWIDTH 501 0
DWIDTH 14 0
BBX 12 26 1 -5
BITMAP
0600
0F00
1B80
3980
0000
0000
0F00
3FC0
70E0
60E0
E060
E070
E070
E070
E070
E070
E060
6060
70E0
3FC0
0F00
0000
0000
0600
0E00
0600
ENDCHAR
STARTCHAR uni1EDA
ENCODING 7898
SWIDTH 592 0
DWIDTH 17 0
BBX 16 26 1 0
BITMAP
00F0
01C0
0180
0300
0003
0003
07C7
1FE6
387E
303C
7018
701C
601C
600C
E00C
E00C
E00C
E00C
601C
601C
601C
7018
3038
3C70
1FE0
07C0
ENDCHAR
STARTCHAR uni1EDB
ENCODING 7899
SWIDTH 502 0
DWIDTH 14 0
BBX 13 21 1 0
BITMAP
01C0
0380
0700
0600
0000
0018
0F18
3F98
31F0
70F0
6060
E060
E070
E070
E070
E070
6060
70E0
71E0
3FC0
0F00
ENDCHAR
STARTCHAR uni1EDC
ENCODING 7900
SWIDTH 592 0
DWIDTH 17 0
BBX 16 26 1 0
BITMAP
1C00
0E00
0700
0380
0003
0003
07C7
1FE6
387E
303C
7018
701C
601C
600C
E00C
E00C
E00C
E00C
601C
601C
601C
7018
3038
3C70
1FE0
07C0
ENDCHAR
STARTCHAR uni1EDD
ENCODING 7901
SWIDTH 502 0
DWIDTH 14 0
BBX 13 21 1 0
BITMAP
3800
1C00
0E00
0600
0000
0018
0F18
3F98
31F0
70F0
6060
E060
E070
E070
E070
E070
6060
70E0
71E0
3FC0
0F00
ENDCHAR
STARTCHAR uni1EDE
ENCODING 7902
SWIDTH 592 0
DWIDTH 17 0
BBX 16 28 1 0
BITMAP
0380
03C0
00C0
00C0
0380
0300
0003
0003
07C7
1FE6
387E
303C
7018
701C
601C
600C
E00C
E00C
E00C
E00C
601C
601C
601C
7018
3038
3C70
1FE0
07C0
ENDCHAR
STARTCHAR uni1EDF
ENCODING 7903
SWIDTH 502 0
DWIDTH 14 0
BBX 13 23 1 0
BITMAP
0600
0700
0180
0100
0700
0600
0000
0018
0F18
3F98
31F0
70F0
6060
E060
E070
E070
E070
E070
6060
70E0
71E0
3FC0
0F00
ENDCHAR
STARTCHAR uni1EE0
ENCODING 7904
SWIDTH 592 0
DWIDTH 17 0
BBX 16 25 1 0
BITMAP
0E20
1FE0
19C0
0003
0003
07C7
1FE6
387E
303C
7018
701C
601C
600C
E00C
E00C
E00C
E00C
601C
601C
601C
7018
3038
3C70
1FE0
07C0
ENDCHAR
STARTCHAR uni1EE1
ENCODING 7905
SWIDTH 502 0
DWIDTH 14 0
BBX 13 20 1 0
BITMAP
1CC0
3FC0
3380
0000
0018
0F18
3F98
31F0
70F0
6060
E060
E070
E070
E070
E070
6060
70E0
71E0
3FC0
0F00
ENDCHAR
STARTCHAR uni1EE2
ENCODING 7906
SWIDTH 592 0
DWIDTH 17 0
BBX 16 27 1 -5
BITMAP
0003
0003
07C7
1FE6
387E
303C
7018
701C
601C
600C
E00C
E00C
E00C
E00C
601C
601C
601C
7018
3038
3C70
1FE0
07C0
0000
0000
0300
0380
0300
ENDCHAR
STARTCHAR uni1EE3
ENCODING 7907
SWIDTH 502 0
DWIDTH 14 0
BBX 13 21 1 -5
BITMAP
0018
0F18
3F98
31F0
70F0
6060
E060
E070
E070
E070
E070
6060
70E0
71E0
3FC0
0F00
0000
0000
0600
0E00
0600
ENDCHAR
STARTCHAR uni1EE4
ENCODING 7908
SWIDTH 561 0
DWIDTH 16 0
BBX 12 25 2 -5
BITMAP
C030
C030
C030
C030
C030
C030
C030
C030
C030
C030
C030
C030
C030
C030
C030
E070
E070
70E0
3FC0
1F80
0000
0000
0600
0E00
0600
ENDCHAR
STARTCHAR uni1EE5
ENCODING 7909
SWIDTH 483 0
DWIDTH 14 0
BBX 10 20 2 -5
BITMAP
C1C0
C1C0
C1C0
C1C0
C1C0
C1C0
C1C0
C1C0
C1C0
C1C0
C1C0
E1C0
E3C0
7FC0
3CC0
0000
0000
1800
1C00
1800
ENDCHAR
STARTCHAR uni1EE6
ENCODING 7910
SWIDTH 561 0
DWIDTH 16 0
BBX 12 28 2 0
BITMAP
0600
0700
0300
0300
0700
0600
0000
0000
C030
C030
C030
C030
C030
C030
C030
C030
C030
C030
C030
C030
C030
C030
C030
E070
E070
70E0
3FC0
1F80
ENDCHAR
STARTCHAR uni1EE7
ENCODING 7911
SWIDTH 483 0
DWIDTH 14 0
BBX 10 23 2 0
BITMAP
0C00
0E00
0600
0600
0E00
0C00
0000
0000
C1C0
C1C0
C1C0
C1C0
C1C0
C1C0
C1C0
C1C0
C1C0
C1C0
C1C0
E1C0
E3C0
7FC0
3CC0
ENDCHAR
STARTCHAR uni1EE8
ENCODING 7912
SWIDTH 608 0
DWIDTH 17 0
BBX 16 26 2 0
BITMAP
01E0
0380
0300
0600
0000
0003
C073
C073
C077
C07E
C07C
C070
C070
C070
C070
C070
C070
C070
C070
C070
C070
E070
E060
70E0
3FC0
1F00
ENDCHAR
STARTCHAR uni1EE9
ENCODING 7913
SWIDTH 549 0
DWIDTH 15 0
BBX 13 21 2 0
BITMAP
0380
0700
0E00
0C00
0000
0018
C198
C198
C1F0
C1F0
C180
C180
C180
C180
C180
C180
C180
C180
E380
FF80
3D80
ENDCHAR
STARTCHAR uni1EEA
ENCODING 7914
SWIDTH 608 0
DWIDTH 17 0
BBX 16 26 2 0
BITMAP
3800
1C00
0E00
0700
0000
0003
C073
C073
C077
C07E
C07C
C070
C070
C070
C070
C070
C070
C070
C070
C070
C070
E070
E060
70E0
3FC0
1F00
ENDCHAR
STARTCHAR uni1EEB
ENCODING 7915
SWIDTH 549 0
DWIDTH 15 0
BBX 13 21 2 0
BITMAP
7000
3800
1C00
0C00
0000
0018
C198
C198
C1F0
C1F0
C180
C180
C180
C180
C180
C180
C180
C180
E380
FF80
3D80
ENDCHAR
STARTCHAR uni1EEC
ENCODING 7916
SWIDTH 608 0
DWIDTH 17 0
BBX 16 28 2 0
BITMAP
0700
0780
0180
0180
0700
0600
0000
0003
C073
C073
C077
C07E
C07C
C070
C070
C070
C070
C070
C070
C070
C070
C070
C070
E070
E060
70E0
3FC0
1F00
ENDCHAR
STARTCHAR uni1EED
ENCODING 7917
SWIDTH 549 0
DWIDTH 15 0
BBX 13 23 2 0
BITMAP
0C00
0E00
0700
0200
0E00
0C00
0000
0018
C198
C198
C1F0
C1F0
C180
C180
C180
C180
C180
C180
C180
C180
E380
FF80
3D80
ENDCHAR
STARTCHAR uni1EEE
ENCODING 7918
SWIDTH 608 0
DWIDTH 17 0
BBX 16 25 2 0
BITMAP
1C40
3FC0
3380
0000
0003
C073
C073
C077
C07E
C07C
C070
C070
C070
C070
C070
C070
C070
C070
C070
C070
E070
E060
70E0
3FC0
1F00
ENDCHAR
STARTCHAR uni1EEF
ENCODING 7919
SWIDTH 549 0
DWIDTH 15 0
BBX 13 20 2 0
BITMAP
3980
7F80
6700
0000
0018
C198
C198
C1F0
C1F0
C180
C180
C180
C180
C180
C180
C180
C180
E380
FF80
3D80
ENDCHAR
STARTCHAR uni1EF0
ENCODING 7920
SWIDTH 608 0
DWIDTH 17 0
BBX 16 26 2 -5
BITMAP
0003
C073
C073
C077
C07E
C07C
C070
C070
C070
C070
C070
C070
C070
C070
C070
C070
E070
E060
70E0
3FC0
1F00
0000
0000
0600
0700
0600
ENDCHAR
STARTCHAR uni1EF1
ENCODING 7921
SWIDTH 549 0
DWIDTH 15 0
BBX 13 21 2 -5
BITMAP
0018
C198
C198
C1F0
C1F0
C180
C180
C180
C180
C180
C180
C180
C180
E380
FF80
3D80
0000
0000
1C00
1C00
1C00
ENDCHAR
STARTCHAR Ygrave
ENCODING 7922
SWIDTH 524 0
DWIDTH 15 0
BBX 14 26 0 0
BITMAP
1E00
0E00
0700
0380
0000
0000
E01C
701C
3038
3838
3830
1870
1C60
0CE0
0EC0
06C0
07C0
0380
0380
0380
0380
0380
0380
0380
0380
0380
ENDCHAR
STARTCHAR ygrave
ENCODING 7923
SWIDTH 416 0
DWIDTH 12 0
BBX 10 27 1 -6
BITMAP
7000
3800
1C00
0E00
0000
0000
C0C0
E1C0
E1C0
6180
6180
7380
3300
3300
3300
3F00
1E00
1E00
1E00
0C00
0C00
0C00
0C00
1800
1800
F000
E000
ENDCHAR
STARTCHAR uni1EF4
ENCODING 7924
SWIDTH 524 0
DWIDTH 15 0
BBX 14 25 0 -5
BITMAP
E01C
701C
3038
3838
3830
1870
1C60
0CE0
0EC0
06C0
07C0
0380
0380
0380
0380
0380
0380
0380
0380
0380
0000
0000
0300
0380
0300
ENDCHAR
STARTCHAR uni1EF5
ENCODING 7925
SWIDTH 416 0
DWIDTH 12 0
BBX 10 22 1 -7
BITMAP
C0C0
E1C0
E1C0
6180
6180
7380
3300
3300
3300
3F00
1E00
1E00
1E00
0C00
0C00
0C00
0C00
1800
1800
F300
E380
0380
ENDCHAR
STARTCHAR uni1EF6
ENCODING 7926
SWIDTH 524 0
DWIDTH 15 0
BBX 14 28 0 0
BITMAP
0380
03C0
00C0
00C0
0180
0100
0000
0000
E01C
701C
3038
3838
3830
1870
1C60
0CE0
0EC0
06C0
07C0
0380
0380
0380
0380
0380
0380
0380
0380
0380
ENDCHAR
STARTCHAR uni1EF7
ENCODING 7927
SWIDTH 416 0
DWIDTH 12 0
BBX 10 29 1 -6
BITMAP
0C00
0E00
0300
0300
0E00
0C00
0000
0000
C0C0
E1C0
E1C0
6180
6180
7380
3300
3300
3300
3F00
1E00
1E00
1E00
0C00
0C00
0C00
0C00
1800
1800
F000
E000
ENDCHAR
STARTCHAR uni1EF8
ENCODING 7928
SWIDTH 524 0
DWIDTH 15 0
BBX 14 25 0 0
BITMAP
0E30
0FE0
19C0
0000
0000
E01C
701C
3038
3838
3830
1870
1C60
0CE0
0EC0
06C0
07C0
0380
0380
0380
0380
0380
0380
0380
0380
0380
ENDCHAR
STARTCHAR uni1EF9
ENCODING 7929
SWIDTH 416 0
DWIDTH 12 0
BBX 10 26 1 -6
BITMAP
3980
7F80
6700
0000
0000
C0C0
E1C0
E1C0
6180
6180
7380
3300
3300
3300
3F00
1E00
1E00
1E00
0C00
0C00
0C00
0C00
1800
1800
F000
E000
ENDCHAR
STARTCHAR uni1F4D
ENCODING 8013
SWIDTH 634 0
DWIDTH 18 0
BBX 21 21 -5 0
BITMAP
CE0000
CC0F80
CC3FE0
D870F0
786030
00E038
00E038
00C018
00C018
00C018
00C018
00C018
00C018
00C018
00C018
00E038
00E038
006030
0070F0
003FE0
000F80
ENDCHAR
STARTCHAR uni2000
ENCODING 8192
SWIDTH 447 0
DWIDTH 13 0
BBX 1 1 0 0
BITMAP
00
ENDCHAR
STARTCHAR uni2001
ENCODING 8193
SWIDTH 876 0
DWIDTH 25 0
BBX 1 1 0 0
BITMAP
00
ENDCHAR
STARTCHAR uni2002
ENCODING 8194
SWIDTH 447 0
DWIDTH 13 0
BBX 1 1 0 0
BITMAP
00
ENDCHAR
STARTCHAR uni2003
ENCODING 8195
SWIDTH 876 0
DWIDTH 25 0
BBX 1 1 0 0
BITMAP
00
ENDCHAR
STARTCHAR uni2004
ENCODING 8196
SWIDTH 305 0
DWIDTH 9 0
BBX 1 1 0 0
BITMAP
00
ENDCHAR
STARTCHAR uni2005
ENCODING 8197
SWIDTH 233 0
DWIDTH 7 0
BBX 1 1 0 0
BITMAP
00
ENDCHAR
STARTCHAR uni2006
ENCODING 8198
SWIDTH 162 0
DWIDTH 5 0
BBX 1 1 0 0
BITMAP
00
ENDCHAR
STARTCHAR uni2007
ENCODING 8199
SWIDTH 491 0
DWIDTH 14 0
BBX 1 1 0 0
BITMAP
00
ENDCHAR
STARTCHAR uni2008
ENCODING 8200
SWIDTH 249 0
DWIDTH 7 0
BBX 1 1 0 0
BITMAP
00
ENDCHAR
STARTCHAR uni2009
ENCODING 8201
SWIDTH 190 0
DWIDTH 5 0
BBX 1 1 0 0
BITMAP
00
ENDCHAR
STARTCHAR uni200A
ENCODING 8202
SWIDTH 105 0
DWIDTH 3 0
BBX 1 1 0 0
BITMAP
00
ENDCHAR
STARTCHAR uni200B
ENCODING 8203
SWIDTH 0 0
DWIDTH 0 0
BBX 1 1 0 0
BITMAP
00
ENDCHAR
STARTCHAR uni2010
ENCODING 8208
SWIDTH 248 0
DWIDTH 7 0
BBX 5 2 1 7
BITMAP
F8
F8
ENDCHAR
STARTCHAR uni2011
ENCODING 8209
SWIDTH 248 0
DWIDTH 7 0
BBX 5 2 1 7
BITMAP
F8
F8
ENDCHAR
STARTCHAR endash
ENCODING 8211
SWIDTH 572 0
DWIDTH 16 0
BBX 12 2 2 9
BITMAP
FFF0
FFF0
ENDCHAR
STARTCHAR emdash
ENCODING 8212
SWIDTH 678 0
DWIDTH 19 0
BBX 16 2 2 9
BITMAP
FFFF
FFFF
ENDCHAR
STARTCHAR uni2015
ENCODING 8213
SWIDTH 678 0
DWIDTH 19 0
BBX 16 2 2 9
BITMAP
FFFF
FFFF
ENDCHAR
STARTCHAR underscoredbl
ENCODING 8215
SWIDTH 402 0
DWIDTH 11 0
BBX 11 5 0 -5
BITMAP
FFE0
FFE0
0000
FFE0
FFE0
ENDCHAR
STARTCHAR quoteleft
ENCODING 8216
SWIDTH 194 0
DWIDTH 5 0
BBX 4 7 1 14
BITMAP
20
70
60
E0
E0
E0
E0
ENDCHAR
STARTCHAR quoteright
ENCODING 8217
SWIDTH 194 0
DWIDTH 5 0
BBX 3 7 1 14
BITMAP
60
60
60
E0
C0
C0
80
ENDCHAR
STARTCHAR quotesinglbase
ENCODING 8218
SWIDTH 194 0
DWIDTH 5 0
BBX 4 6 0 -3
BITMAP
70
70
70
60
60
C0
ENDCHAR
STARTCHAR quotereversed
ENCODING 8219
SWIDTH 194 0
DWIDTH 5 0
BBX 4 7 1 14
BITMAP
E0
E0
E0
E0
60
60
30
ENDCHAR
STARTCHAR quotedblleft
ENCODING 8220
SWIDTH 333 0
DWIDTH 9 0
BBX 8 7 1 14
BITMAP
22
77
66
EE
EE
EE
EE
ENDCHAR
STARTCHAR quotedblright
ENCODING 8221
SWIDTH 337 0
DWIDTH 9 0
BBX 7 7 1 14
BITMAP
66
66
66
6E
EC
CC
D8
ENDCHAR
STARTCHAR quotedblbase
ENCODING 8222
SWIDTH 326 0
DWIDTH 9 0
BBX 7 7 1 -4
BITMAP
6E
6E
6E
EE
EC
CC
98
ENDCHAR
STARTCHAR dagger
ENCODING 8224
SWIDTH 482 0
DWIDTH 14 0
BBX 11 20 1 0
BITMAP
0600
0600
0600
0600
0600
FFE0
FFE0
0600
0600
0600
0600
0600
0600
0600
0600
0600
0600
0600
0600
0600
ENDCHAR
STARTCHAR daggerdbl
ENCODING 8225
SWIDTH 500 0
DWIDTH 14 0
BBX 12 26 1 -6
BITMAP
0600
0600
0600
0600
0600
FFF0
FFF0
0600
0600
0600
0600
0600
0600
0600
0600
0600
0600
0600
FFF0
FFF0
0600
0600
0600
0600
0600
0600
ENDCHAR
STARTCHAR bullet
ENCODING 8226
SWIDTH 336 0
DWIDTH 9 0
BBX 5 6 2 7
BITMAP
70
F8
F8
F8
F8
70
ENDCHAR
STARTCHAR twodotenleader
ENCODING 8229
SWIDTH 420 0
DWIDTH 12 0
BBX 8 3 2 0
BITMAP
E7
E7
E7
ENDCHAR
STARTCHAR ellipsis
ENCODING 8230
SWIDTH 590 0
DWIDTH 17 0
BBX 13 3 2 0
BITMAP
E738
E738
E738
ENDCHAR
STARTCHAR uni2027
ENCODING 8231
SWIDTH 181 0
DWIDTH 5 0
BBX 3 3 1 7
BITMAP
E0
E0
E0
ENDCHAR
STARTCHAR perthousand
ENCODING 8240
SWIDTH 818 0
DWIDTH 23 0
BBX 21 20 1 0
BITMAP
380000
7C0000
C61000
C63000
C63000
C66000
C64000
7CC000
388000
018000
030000
033CE0
067FF0
066738
0C4318
0C4318
184318
106738
007FF0
003CE0
ENDCHAR
STARTCHAR minute
ENCODING 8242
SWIDTH 174 0
DWIDTH 5 0
BBX 2 7 1 14
BITMAP
C0
C0
C0
C0
C0
C0
C0
ENDCHAR
STARTCHAR second
ENCODING 8243
SWIDTH 319 0
DWIDTH 9 0
BBX 5 7 2 14
BITMAP
C8
C8
C8
C8
C8
C8
88
ENDCHAR
STARTCHAR guilsinglleft
ENCODING 8249
SWIDTH 271 0
DWIDTH 8 0
BBX 5 11 2 2
BITMAP
18
30
60
60
C0
C0
C0
60
60
30
18
ENDCHAR
STARTCHAR guilsinglright
ENCODING 8250
SWIDTH 271 0
DWIDTH 8 0
BBX 5 11 1 2
BITMAP
C0
60
30
30
18
18
18
30
30
60
C0
ENDCHAR
STARTCHAR exclamdbl
ENCODING 8252
SWIDTH 491 0
DWIDTH 14 0
BBX 10 20 2 0
BITMAP
E1C0
E1C0
E1C0
E1C0
E1C0
E1C0
E1C0
E1C0
E1C0
E1C0
E1C0
E1C0
E1C0
E1C0
0000
0000
0000
E1C0
E1C0
E1C0
ENDCHAR
STARTCHAR fraction
ENCODING 8260
SWIDTH 403 0
DWIDTH 11 0
BBX 9 16 1 2
BITMAP
0080
0180
0180
0300
0200
0600
0400
0C00
0800
1800
3000
3000
6000
6000
C000
C000
ENDCHAR
STARTCHAR uni2074
ENCODING 8308
SWIDTH 329 0
DWIDTH 9 0
BBX 7 11 1 9
BITMAP
0C
1C
1C
3C
2C
6C
CC
FE
FE
0C
0C
ENDCHAR
STARTCHAR uni207F
ENCODING 8319
SWIDTH 374 0
DWIDTH 10 0
BBX 8 11 1 9
BITMAP
DE
DE
E7
E7
E3
E3
E3
E3
E3
E3
E3
ENDCHAR
STARTCHAR franc
ENCODING 8355
SWIDTH 480 0
DWIDTH 13 0
BBX 13 20 0 0
BITMAP
3FF8
3FF8
3800
3800
3800
3800
3800
3800
3800
3FE0
3FE0
3800
3800
3800
FF00
FF00
3800
3800
3800
3800
ENDCHAR
STARTCHAR lira
ENCODING 8356
SWIDTH 510 0
DWIDTH 14 0
BBX 12 20 1 0
BITMAP
0780
1FE0
1CE0
3870
3070
3000
3000
3000
FF00
FF00
3000
3000
FF00
FF00
3800
3800
3000
3000
FFF0
FFF0
ENDCHAR
STARTCHAR uni20A6
ENCODING 8358
SWIDTH 691 0
DWIDTH 19 0
BBX 18 20 1 0
BITMAP
380600
380600
3C0600
3C0600
3E0600
3F0600
3B0600
FFFFC0
FFFFC0
39C600
38C600
FFFFC0
FFFFC0
387600
383600
383E00
381E00
381E00
380E00
380E00
ENDCHAR
STARTCHAR peseta
ENCODING 8359
SWIDTH 709 0
DWIDTH 20 0
BBX 16 20 2 0
BITMAP
FE00
FF9C
E39C
E1DC
E1DC
E0FF
E0FF
E1DC
E1DC
E39C
FF9C
FE1C
E01C
E01C
E01C
E01C
E01C
E00C
E00F
E007
ENDCHAR
STARTCHAR uni20A8
ENCODING 8360
SWIDTH 911 0
DWIDTH 26 0
BBX 22 20 2 0
BITMAP
FF8000
FFC000
E0E000
E06000
E07000
E071F0
E073F8
E0771C
E0660C
E0E600
FFC700
FF83C0
E381F0
E1C078
E1C01C
E0CE0C
E0EE0C
E0671C
E077F8
E031F0
ENDCHAR
STARTCHAR uni20A9
ENCODING 8361
SWIDTH 634 0
DWIDTH 18 0
BBX 16 20 1 0
BITMAP
E187
E187
E3C6
63C6
63C6
63C6
FFFF
FFFF
324C
366C
366C
FFFF
FFFF
3E7C
1E78
1E78
1C38
1C38
1C38
1C38
ENDCHAR
STARTCHAR uni20AA
ENCODING 8362
SWIDTH 669 0
DWIDTH 19 0
BBX 15 15 2 0
BITMAP
FF86
FFC6
C1C6
C0C6
C0C6
CEC6
CEC6
CEC6
CEC6
CEC6
CE0E
CE0E
CE0E
CFFC
CFF8
ENDCHAR
STARTCHAR dong
ENCODING 8363
SWIDTH 510 0
DWIDTH 14 0
BBX 13 25 1 -4
BITMAP
0060
0060
03F8
03F8
0060
0060
1E60
3F60
70E0
60E0
6060
E060
E060
E060
E060
E060
6060
60E0
70E0
3F60
1E60
0000
0000
7FF0
7FF0
ENDCHAR
STARTCHAR Euro
ENCODING 8364
SWIDTH 493 0
DWIDTH 14 0
BBX 12 20 1 0
BITMAP
03F0
07E0
0E00
1C00
1800
1800
3800
FF80
FF80
3800
3800
FF80
FF80
1800
1800
1800
1C00
0E00
07E0
03F0
ENDCHAR
STARTCHAR uni20B1
ENCODING 8369
SWIDTH 648 0
DWIDTH 18 0
BBX 17 20 1 0
BITMAP
3FE000
3FF800
303800
FFFF80
FFFF80
300C00
FFFF80
FFFF80
303800
3FF800
3FE000
300000
300000
300000
300000
300000
300000
300000
300000
300000
ENDCHAR
STARTCHAR uni20B9
ENCODING 8377
SWIDTH 462 0
DWIDTH 13 0
BBX 11 20 1 0
BITMAP
FFE0
FFE0
0700
0380
0380
FFE0
FFE0
0380
0380
0700
FF00
FC00
7000
7000
3800
1C00
1E00
0E00
0700
0380
ENDCHAR
STARTCHAR uni20BA
ENCODING 8378
SWIDTH 500 0
DWIDTH 14 0
BBX 12 20 1 0
BITMAP
1800
1800
1900
1F00
1E00
7800
F800
9900
1F00
1E70
7870
F870
9870
1860
1860
18E0
18C0
19C0
1F80
1E00
ENDCHAR
STARTCHAR uni20BC
ENCODING 8380
SWIDTH 575 0
DWIDTH 16 0
BBX 14 15 1 0
BITMAP
0300
0300
0300
0FC0
1FE0
3B70
7338
6318
6318
E31C
E31C
E31C
E31C
E31C
E31C
ENDCHAR
STARTCHAR uni20BD
ENCODING 8381
SWIDTH 583 0
DWIDTH 16 0
BBX 14 20 1 0
BITMAP
3FE0
3FF8
3838
381C
380C
380C
380C
380C
381C
3838
FFF8
FFE0
3800
3800
FF00
FF00
3800
3800
3800
3800
ENDCHAR
STARTCHAR uni2105
ENCODING 8453
SWIDTH 640 0
DWIDTH 18 0
BBX 14 20 2 0
BITMAP
7800
FC00
CC20
C070
8060
C0C0
CCC0
FD80
7980
0300
0300
0678
04FC
0CCC
0984
1984
3084
10CC
00FC
0078
ENDCHAR
STARTCHAR uni2113
ENCODING 8467
SWIDTH 422 0
DWIDTH 12 0
BBX 9 21 2 0
BITMAP
0E00
1F00
3B00
3380
3380
3380
3300
3300
3700
3600
3E00
3C00
3800
F000
F000
3000
3000
3800
1800
1E00
0E00
ENDCHAR
STARTCHAR uni2116
ENCODING 8470
SWIDTH 886 0
DWIDTH 25 0
BBX 21 20 2 0
BITMAP
E071E0
E073F0
F07318
F07718
F87618
F87618
FC7618
EC7718
EC7318
E673F0
E671E0
E77000
E37000
E373F8
E1F3F8
E1F000
E0F000
E0F000
E0F000
E07000
ENDCHAR
STARTCHAR trademark
ENCODING 8482
SWIDTH 547 0
DWIDTH 15 0
BBX 12 7 1 13
BITMAP
FA30
2330
2350
2350
2350
2290
2290
ENDCHAR
STARTCHAR Omega
ENCODING 8486
SWIDTH 581 0
DWIDTH 16 0
BBX 13 20 1 0
BITMAP
0780
1FE0
3870
7030
7038
6038
6018
E018
E018
E018
E018
E018
6018
6018
6038
7030
3070
1CE0
FCF8
FCF8
ENDCHAR
STARTCHAR estimated
ENCODING 8494
SWIDTH 636 0
DWIDTH 18 0
BBX 14 15 2 0
BITMAP
07C0
1860
3010
7018
701C
F01C
F01C
FFFC
F000
F000
7000
7000
3010
1830
07C0
ENDCHAR
STARTCHAR oneeighth
ENCODING 8539
SWIDTH 666 0
DWIDTH 19 0
BBX 16 20 1 0
BITMAP
1800
7800
F820
D830
1860
1860
18C0
18C0
1980
191E
1B3E
0273
0673
0C3E
0C3E
1863
1863
1063
003F
001E
ENDCHAR
STARTCHAR threeeighths
ENCODING 8540
SWIDTH 736 0
DWIDTH 21 0
BBX 18 20 1 0
BITMAP
3C0000
7E0000
C60400
060C00
1C0800
1C1800
061000
063000
E66000
7E6F00
3CDF80
00D9C0
0199C0
018F80
030F80
0219C0
0618C0
0419C0
001F80
000F00
ENDCHAR
STARTCHAR fiveeighths
ENCODING 8541
SWIDTH 736 0
DWIDTH 21 0
BBX 18 20 1 0
BITMAP
7E0000
7E0000
600800
600C00
7C1800
7E1000
463000
062000
E66000
7ECF00
3CDF80
0199C0
019980
030F80
030F80
0619C0
0618C0
0C19C0
001F80
000F00
ENDCHAR
STARTCHAR seveneighths
ENCODING 8542
SWIDTH 692 0
DWIDTH 19 0
BBX 17 20 1 0
BITMAP
FE0000
FE0000
061000
061800
0C3000
0C2000
186000
18C000
38C000
319E00
319F00
433380
033B80
061F00
041F00
0C3180
083180
183180
003F00
001F00
ENDCHAR
STARTCHAR partialdiff
ENCODING 8706
SWIDTH 497 0
DWIDTH 14 0
BBX 11 21 2 0
BITMAP
7E00
7F00
4780
0380
01C0
01C0
00C0
1EC0
7FC0
F1E0
E0E0
C0E0
C0E0
C0E0
C0C0
C0C0
C0C0
E1C0
7180
7F00
1E00
ENDCHAR
STARTCHAR Delta
ENCODING 8710
SWIDTH 614 0
DWIDTH 17 0
BBX 15 20 1 0
BITMAP
0380
0380
03C0
07C0
06C0
06E0
0E60
0C60
0C70
1C70
1830
1838
3838
3018
701C
701C
600C
E00E
FFFE
FFFE
ENDCHAR
STARTCHAR product
ENCODING 8719
SWIDTH 614 0
DWIDTH 17 0
BBX 13 23 2 -3
BITMAP
FFF8
FFF8
E018
E018
E018
E018
E018
E018
E018
E018
E018
E018
E018
E018
E018
E018
E018
E018
E018
E018
E018
E018
E018
ENDCHAR
STARTCHAR summation
ENCODING 8721
SWIDTH 513 0
DWIDTH 14 0
BBX 13 24 1 -4
BITMAP
FFF0
FFF0
6000
7000
3800
1800
1C00
0E00
0600
0700
0380
0180
01C0
0380
0700
0600
0E00
1C00
1800
3800
7000
6000
FFF8
FFF8
ENDCHAR
STARTCHAR minus
ENCODING 8722
SWIDTH 499 0
DWIDTH 14 0
BBX 10 2 2 9
BITMAP
FFC0
FFC0
ENDCHAR
STARTCHAR radical
ENCODING 8730
SWIDTH 536 0
DWIDTH 15 0
BBX 13 20 1 0
BITMAP
0018
0038
0030
0030
0070
0070
0060
00E0
00E0
F0C0
F0C0
39C0
1980
1980
1F80
0F00
0F00
0F00
0600
0600
ENDCHAR
STARTCHAR infinity
ENCODING 8734
SWIDTH 874 0
DWIDTH 24 0
BBX 22 15 1 0
BITMAP
0F03C0
3F87F0
71CE30
60DC38
E07818
E0781C
E0701C
E0301C
C0701C
E0781C
E07818
60DC38
71CE30
3F87F0
0F03C0
ENDCHAR
STARTCHAR integral
ENCODING 8747
SWIDTH 235 0
DWIDTH 7 0
BBX 8 27 0 -6
BITMAP
0F
1F
1C
38
38
38
38
38
38
38
38
38
38
38
38
38
38
38
38
38
38
38
38
38
38
F0
E0
ENDCHAR
STARTCHAR approxequal
ENCODING 8776
SWIDTH 492 0
DWIDTH 14 0
BBX 11 10 1 4
BITMAP
3820
FE20
C7E0
81C0
0000
0000
3820
FE20
C7E0
81C0
ENDCHAR
STARTCHAR notequal
ENCODING 8800
SWIDTH 479 0
DWIDTH 13 0
BBX 10 15 2 3
BITMAP
0100
0180
0100
0300
FFC0
FFC0
0400
0C00
0800
1800
FFC0
FFC0
2000
6000
4000
ENDCHAR
STARTCHAR lessequal
ENCODING 8804
SWIDTH 445 0
DWIDTH 12 0
BBX 10 15 1 0
BITMAP
0080
0380
0F80
3E00
F800
E000
7800
1E00
0780
0180
0080
0000
0000
FFC0
FFC0
ENDCHAR
STARTCHAR greaterequal
ENCODING 8805
SWIDTH 460 0
DWIDTH 13 0
BBX 10 15 2 0
BITMAP
8000
E000
F800
1F00
07C0
01C0
0780
3E00
F800
E000
8000
0000
0000
FF80
FF80
ENDCHAR
STARTCHAR lozenge
ENCODING 9674
SWIDTH 442 0
DWIDTH 12 0
BBX 10 20 1 0
BITMAP
0C00
1E00
1E00
3F00
3300
3300
7180
6180
E1C0
C0C0
C0C0
E1C0
6180
7180
3300
3300
1F00
1E00
1E00
0C00
ENDCHAR
STARTCHAR uniEE01
ENCODING 60929
SWIDTH 271 0
DWIDTH 8 0
BBX 4 16 2 2
BITMAP
60
F0
60
00
00
00
00
00
00
00
00
00
00
60
F0
60
ENDCHAR
STARTCHAR uniEE02
ENCODING 60930
SWIDTH 298 0
DWIDTH 8 0
BBX 6 6 1 9
BITMAP
CC
CC
CC
CC
CC
CC
ENDCHAR
STARTCHAR uniF6C3
ENCODING 63171
SWIDTH 235 0
DWIDTH 7 0
BBX 4 5 1 -2
BITMAP
70
70
60
60
C0
ENDCHAR
STARTCHAR uniFB01
ENCODING 64257
SWIDTH 489 0
DWIDTH 14 0
BBX 11 21 1 0
BITMAP
0F80
1FC0
3880
3000
3000
3000
FCE0
FCE0
30E0
30E0
30E0
30E0
30E0
30E0
30E0
30E0
30E0
30E0
30E0
30E0
30E0
ENDCHAR
STARTCHAR uniFB02
ENCODING 64258
SWIDTH 503 0
DWIDTH 14 0
BBX 11 21 1 0
BITMAP
0FC0
1FE0
3860
3060
3060
3060
FE60
FE60
3060
3060
3060
3060
3060
3060
3060
3060
3060
3060
3060
3060
3060
ENDCHAR
STARTCHAR uniFB03
ENCODING 64259
SWIDTH 744 0
DWIDTH 21 0
BBX 18 21 1 0
BITMAP
0F1F00
1F3F80
387100
386000
306000
306000
FFFDC0
FFFDC0
3061C0
3061C0
3061C0
3061C0
3061C0
3061C0
3061C0
3061C0
3061C0
3061C0
3061C0
3061C0
3061C0
ENDCHAR
STARTCHAR uniFB04
ENCODING 64260
SWIDTH 744 0
DWIDTH 21 0
BBX 18 21 1 0
BITMAP
0F1F00
1F3FC0
3871C0
3861C0
3061C0
3061C0
FFFDC0
FFFDC0
3061C0
3061C0
3061C0
3061C0
3061C0
3061C0
3061C0
3061C0
3061C0
3061C0
3061C0
3061C0
3061C0
ENDCHAR
STARTCHAR uniFEFF
ENCODING 65279
SWIDTH 0 0
DWIDTH 0 0
BBX 1 1 0 0
BITMAP
00
ENDCHAR
STARTCHAR uniFFFC
ENCODING 65532
SWIDTH 1024 0
DWIDTH 29 0
BBX 27 25 1 -5
BITMAP
FBCF79E0
C0000060
C0000060
C0000060
00000000
00000000
C0000060
C0000060
C0000060
079F0200
04598200
C8598260
C85F0260
C8598260
08588200
0459B200
C79F1E60
C0000060
C0000060
00000000
00000000
C0000060
C0000060
C0000060
FBCF79E0
ENDCHAR
STARTCHAR uniFFFD
ENCODING 65533
SWIDTH 1025 0
DWIDTH 29 0
BBX 26 31 1 -8
BITMAP
00040000
000E0000
001F0000
003F8000
007FC000
00FFC000
01FFE000
03FFF000
07E0F800
0FC07C00
0F843E00
1F8E3F00
3FFE3F80
7FFE3FC0
FFFC7FC0
3FF8FF80
1FF1FF00
0FF1FE00
0FFFFC00
07F1F800
03F1F000
01FFE000
00FFC000
007FC000
003F8000
001F0000
000E0000
00040000
00000000
00000000
00040000
ENDCHAR
STARTCHAR .notdef
ENCODING -1
SWIDTH 392 0
DWIDTH 11 0
BBX 9 20 1 0
BITMAP
FF80
C180
C280
C280
A280
A480
9480
9480
9880
8880
8880
9880
9480
9480
A480
A280
C280
C280
C180
FF80
ENDCHAR
STARTCHAR glyph369
ENCODING -1
SWIDTH 364 0
DWIDTH 10 0
BBX 7 5 2 16
BITMAP
CE
CC
CC
D8
78
ENDCHAR
STARTCHAR uni2009.locl
ENCODING -1
SWIDTH 124 0
DWIDTH 3 0
BBX 1 1 0 0
BITMAP
00
ENDCHAR
STARTCHAR f_f.dlig
ENCODING -1
SWIDTH 546 0
DWIDTH 15 0
BBX 14 21 1 0
BITMAP
0F3C
1F7C
3870
38E0
30E0
30E0
FFF8
FFF8
30E0
30E0
30E0
30E0
30E0
30E0
30E0
30E0
30E0
30E0
30E0
30E0
30E0
ENDCHAR
STARTCHAR longs_t.dlig
ENCODING -1
SWIDTH 544 0
DWIDTH 15 0
BBX 13 21 1 0
BITMAP
0F80
1FE0
38E0
30E0
30E0
30E0
F3F8
F3F8
30E0
30E0
30E0
30E0
30E0
30E0
30E0
30E0
30E0
30E0
30E0
3078
3078
ENDCHAR
STARTCHAR s_t.dlig
ENCODING -1
SWIDTH 710 0
DWIDTH 20 0
BBX 18 21 1 0
BITMAP
007800
00FE00
01CE00
018700
018700
018700
1FDFC0
3FDFC0
71C700
60C700
600700
780700
3E0700
0F8700
03C700
01C700
E0C700
60C700
71C700
3F83C0
1F03C0
ENDCHAR
STARTCHAR two.dnom
ENCODING -1
SWIDTH 329 0
DWIDTH 9 0
BBX 7 11 1 0
BITMAP
78
FC
CE
C6
0C
1C
18
30
60
FE
FE
ENDCHAR
STARTCHAR one.dnom
ENCODING -1
SWIDTH 329 0
DWIDTH 9 0
BBX 4 11 2 0
BITMAP
10
70
F0
B0
30
30
30
30
30
30
30
ENDCHAR
STARTCHAR zero.dnom
ENCODING -1
SWIDTH 329 0
DWIDTH 9 0
BBX 7 11 1 0
BITMAP
38
7C
EE
C6
C6
C6
C6
C6
EE
7C
38
ENDCHAR
STARTCHAR nine.c2sc
ENCODING -1
SWIDTH 447 0
DWIDTH 13 0
BBX 10 16 1 0
BITMAP
1E00
3F80
7380
61C0
E1C0
E0C0
E0C0
E1C0
73C0
7FC0
3DC0
0180
0180
0700
3E00
3C00
ENDCHAR
STARTCHAR eight.c2sc
ENCODING -1
SWIDTH 447 0
DWIDTH 13 0
BBX 9 16 2 0
BITMAP
3E00
7F00
E380
C180
C180
E380
7F00
7F00
E380
C180
C180
C180
C180
E380
7F00
3E00
ENDCHAR
STARTCHAR seven.c2sc
ENCODING -1
SWIDTH 447 0
DWIDTH 13 0
BBX 11 16 1 0
BITMAP
FFE0
FFE0
00C0
01C0
0180
0180
0380
0300
0700
0600
0E00
0C00
0C00
1C00
1800
3800
ENDCHAR
STARTCHAR six.c2sc
ENCODING -1
SWIDTH 447 0
DWIDTH 13 0
BBX 10 16 2 0
BITMAP
0E00
3E00
7800
6000
E000
DE00
FF00
E380
C180
C180
C1C0
C180
E180
6380
7F00
3E00
ENDCHAR
STARTCHAR five.c2sc
ENCODING -1
SWIDTH 447 0
DWIDTH 13 0
BBX 10 16 2 0
BITMAP
7F80
7F80
6000
6000
6000
7E00
FF00
E380
0180
01C0
01C0
C1C0
C180
E380
7F00
1E00
ENDCHAR
STARTCHAR four.c2sc
ENCODING -1
SWIDTH 447 0
DWIDTH 13 0
BBX 11 16 1 0
BITMAP
0380
0380
0780
0F80
0D80
1D80
3980
3180
7180
6180
FFE0
FFE0
0180
0180
0180
0180
ENDCHAR
STARTCHAR three.c2sc
ENCODING -1
SWIDTH 447 0
DWIDTH 13 0
BBX 10 16 1 0
BITMAP
1F00
7F80
71C0
61C0
80C0
01C0
0180
1F80
1F80
01C0
00C0
00C0
E0C0
71C0
7F80
1F00
ENDCHAR
STARTCHAR two.c2sc
ENCODING -1
SWIDTH 447 0
DWIDTH 13 0
BBX 11 16 1 0
BITMAP
1F00
3F80
71C0
60C0
E0C0
00C0
01C0
0380
0380
0700
0E00
1C00
3800
7000
7FE0
7FE0
ENDCHAR
STARTCHAR one.c2sc
ENCODING -1
SWIDTH 447 0
DWIDTH 13 0
BBX 6 16 2 0
BITMAP
04
3C
FC
CC
0C
0C
0C
0C
0C
0C
0C
0C
0C
0C
0C
0C
ENDCHAR
STARTCHAR zero.c2sc
ENCODING -1
SWIDTH 447 0
DWIDTH 13 0
BBX 9 16 2 0
BITMAP
3E00
7F00
E380
E380
C180
C180
C180
C180
C180
C180
C180
C180
C380
E380
7F00
3E00
ENDCHAR
STARTCHAR Z.c2sc
ENCODING -1
SWIDTH 454 0
DWIDTH 13 0
BBX 11 16 1 0
BITMAP
FFC0
FFC0
01C0
0180
0380
0700
0600
0E00
0C00
1C00
3800
3000
7000
6000
FFE0
FFE0
ENDCHAR
STARTCHAR Y.c2sc
ENCODING -1
SWIDTH 458 0
DWIDTH 13 0
BBX 12 16 0 0
BITMAP
E070
7070
3060
38E0
38C0
1DC0
1D80
0F80
0F00
0700
0700
0700
0700
0700
0700
0700
ENDCHAR
STARTCHAR X.c2sc
ENCODING -1
SWIDTH 478 0
DWIDTH 13 0
BBX 12 16 1 0
BITMAP
E0F0
60E0
71C0
31C0
3B80
1B80
1F00
0E00
0E00
1F00
1B80
3980
31C0
70C0
60E0
E070
ENDCHAR
STARTCHAR W.c2sc
ENCODING -1
SWIDTH 655 0
DWIDTH 18 0
BBX 17 16 1 0
BITMAP
C18380
C1C300
C3C300
E3C700
63C700
634600
626600
666600
766600
366E00
363C00
3C3C00
3C3C00
3C3C00
1C1C00
181800
ENDCHAR
STARTCHAR V.c2sc
ENCODING -1
SWIDTH 487 0
DWIDTH 14 0
BBX 13 16 0 0
BITMAP
E038
7038
7030
3030
3070
3860
1860
18E0
1CC0
0CC0
0CC0
0D80
0780
0780
0700
0300
ENDCHAR
STARTCHAR U.c2sc
ENCODING -1
SWIDTH 488 0
DWIDTH 14 0
BBX 10 16 2 0
BITMAP
C0C0
C0C0
C0C0
C0C0
C0C0
C0C0
C0C0
C0C0
C0C0
C0C0
C0C0
C0C0
C0C0
E1C0
7F80
3F00
ENDCHAR
STARTCHAR T.c2sc
ENCODING -1
SWIDTH 456 0
DWIDTH 13 0
BBX 11 16 1 0
BITMAP
FFE0
FFE0
0E00
0E00
0E00
0E00
0E00
0E00
0E00
0E00
0E00
0E00
0E00
0E00
0E00
0E00
ENDCHAR
STARTCHAR S.c2sc
ENCODING -1
SWIDTH 453 0
DWIDTH 13 0
BBX 11 16 1 0
BITMAP
1F00
3FC0
71C0
60E0
60E0
6000
7800
3F00
0F80
01C0
00E0
E0E0
E0E0
70E0
3FC0
1F00
ENDCHAR
STARTCHAR R.c2sc
ENCODING -1
SWIDTH 465 0
DWIDTH 13 0
BBX 11 16 2 0
BITMAP
FE00
FF80
C380
C1C0
C1C0
C1C0
C1C0
C380
FF80
FE00
C700
C300
C380
C180
C1C0
C0E0
ENDCHAR
STARTCHAR Q.c2sc
ENCODING -1
SWIDTH 519 0
DWIDTH 15 0
BBX 12 19 1 -3
BITMAP
0F80
1FC0
38E0
7070
6030
6030
6030
E030
E030
6030
6030
6030
7070
38E0
1FC0
0FE0
00F0
0030
0020
ENDCHAR
STARTCHAR P.c2sc
ENCODING -1
SWIDTH 481 0
DWIDTH 13 0
BBX 10 16 2 0
BITMAP
FF00
FF80
C1C0
C0C0
C0C0
C0C0
C0C0
C1C0
FF80
FF00
C000
C000
C000
C000
C000
C000
ENDCHAR
STARTCHAR O.c2sc
ENCODING -1
SWIDTH 519 0
DWIDTH 15 0
BBX 11 16 2 0
BITMAP
1F00
3F80
71C0
E0E0
C060
C060
C060
C060
C060
C060
C060
C060
E0E0
71C0
3F80
1F00
ENDCHAR
STARTCHAR N.c2sc
ENCODING -1
SWIDTH 533 0
DWIDTH 15 0
BBX 11 16 2 0
BITMAP
C060
E060
F060
F060
F860
D860
CC60
CC60
C660
C660
C360
C360
C1E0
C1E0
C0E0
C0E0
ENDCHAR
STARTCHAR M.c2sc
ENCODING -1
SWIDTH 652 0
DWIDTH 18 0
BBX 14 16 2 0
BITMAP
E01C
E01C
F03C
F03C
F03C
F87C
D86C
D86C
DCEC
CCCC
CCCC
C78C
C78C
C78C
C30C
C30C
ENDCHAR
STARTCHAR L.c2sc
ENCODING -1
SWIDTH 411 0
DWIDTH 12 0
BBX 9 16 2 0
BITMAP
C000
C000
C000
C000
C000
C000
C000
C000
C000
C000
C000
C000
C000
C000
FF80
FF80
ENDCHAR
STARTCHAR K.c2sc
ENCODING -1
SWIDTH 473 0
DWIDTH 13 0
BBX 11 16 2 0
BITMAP
C1E0
C1C0
C380
C700
CE00
CC00
DC00
FC00
FC00
EE00
C600
C700
C380
C180
C1C0
C0E0
ENDCHAR
STARTCHAR J.c2sc
ENCODING -1
SWIDTH 419 0
DWIDTH 12 0
BBX 9 16 1 0
BITMAP
0180
0180
0180
0180
0180
0180
0180
0180
0180
0180
0180
C180
C180
E380
7F00
3E00
ENDCHAR
STARTCHAR I.c2sc
ENCODING -1
SWIDTH 221 0
DWIDTH 6 0
BBX 2 16 2 0
BITMAP
C0
C0
C0
C0
C0
C0
C0
C0
C0
C0
C0
C0
C0
C0
C0
C0
ENDCHAR
STARTCHAR H.c2sc
ENCODING -1
SWIDTH 533 0
DWIDTH 15 0
BBX 11 16 2 0
BITMAP
C060
C060
C060
C060
C060
C060
C060
FFE0
FFE0
C060
C060
C060
C060
C060
C060
C060
ENDCHAR
STARTCHAR G.c2sc
ENCODING -1
SWIDTH 509 0
DWIDTH 14 0
BBX 12 16 1 0
BITMAP
0F80
3FC0
70E0
6060
E060
E010
E000
E000
E3F0
E3F0
E070
6070
7070
7870
3FE0
0F80
ENDCHAR
STARTCHAR F.c2sc
ENCODING -1
SWIDTH 415 0
DWIDTH 12 0
BBX 9 16 2 0
BITMAP
FF80
FF80
C000
C000
C000
C000
C000
FF00
FF00
C000
C000
C000
C000
C000
C000
C000
ENDCHAR
STARTCHAR dollar.c2sc
ENCODING -1
SWIDTH 453 0
DWIDTH 13 0
BBX 11 22 1 -3
BITMAP
0600
0600
0600
1F00
7F80
71C0
60C0
E0E0
6000
7800
3E00
0F80
01C0
00C0
C0E0
E0E0
71C0
7FC0
1F00
0600
0600
0600
ENDCHAR
STARTCHAR sterling.c2sc
ENCODING -1
SWIDTH 467 0
DWIDTH 13 0
BBX 11 16 1 0
BITMAP
0F00
1F80
39C0
30C0
30C0
70C0
7020
3000
FF80
FF80
3000
3000
7000
7000
7FE0
7FE0
ENDCHAR
STARTCHAR yen.c2sc
ENCODING -1
SWIDTH 400 0
DWIDTH 11 0
BBX 11 16 0 0
BITMAP
E0E0
60C0
71C0
3180
3180
1B00
1B00
1F00
7FC0
7FC0
0E00
7FC0
7FC0
0E00
0E00
0E00
ENDCHAR
STARTCHAR Gamma.c2sc
ENCODING -1
SWIDTH 405 0
DWIDTH 11 0
BBX 9 16 2 0
BITMAP
FF80
FF80
C000
C000
C000
C000
C000
C000
C000
C000
C000
C000
C000
C000
C000
C000
ENDCHAR
STARTCHAR Delta.c2sc
ENCODING -1
SWIDTH 487 0
DWIDTH 14 0
BBX 12 16 1 0
BITMAP
0600
0F00
0F00
0F00
1F80
1980
1980
39C0
30C0
30C0
70E0
70E0
6060
E070
FFF0
FFF0
ENDCHAR
STARTCHAR Theta.c2sc
ENCODING -1
SWIDTH 519 0
DWIDTH 15 0
BBX 11 16 2 0
BITMAP
1F00
3F80
71C0
E0E0
C060
C060
C060
DF60
DF60
C060
C060
C060
E0E0
71C0
3F80
1F00
ENDCHAR
STARTCHAR Lambda.c2sc
ENCODING -1
SWIDTH 487 0
DWIDTH 14 0
BBX 12 16 1 0
BITMAP
0600
0F00
0F00
0F00
1F80
1980
1980
39C0
30C0
30C0
70E0
70E0
6060
E070
E070
C030
ENDCHAR
STARTCHAR Xi.c2sc
ENCODING -1
SWIDTH 389 0
DWIDTH 11 0
BBX 9 16 1 0
BITMAP
FF80
FF80
0000
0000
0000
0000
0000
7F00
7F00
0000
0000
0000
0000
0000
FF80
FF80
ENDCHAR
STARTCHAR Pi.c2sc
ENCODING -1
SWIDTH 525 0
DWIDTH 15 0
BBX 11 16 2 0
BITMAP
FFE0
FFE0
C060
C060
C060
C060
C060
C060
C060
C060
C060
C060
C060
C060
C060
C060
ENDCHAR
STARTCHAR Sigma.c2sc
ENCODING -1
SWIDTH 435 0
DWIDTH 12 0
BBX 10 16 1 0
BITMAP
FFC0
FFC0
E000
7000
3000
3800
1C00
1C00
1E00
1C00
3800
3000
7000
E000
FFC0
FFC0
ENDCHAR
STARTCHAR Phi.c2sc
ENCODING -1
SWIDTH 587 0
DWIDTH 16 0
BBX 14 16 1 0
BITMAP
0300
0300
0FC0
3FF0
7338
6318
E31C
E31C
E31C
E31C
6318
7338
3FF0
0FC0
0300
0300
ENDCHAR
STARTCHAR Psi.c2sc
ENCODING -1
SWIDTH 560 0
DWIDTH 16 0
BBX 13 16 2 0
BITMAP
C638
C638
C638
C638
C638
C630
C630
C630
E670
76E0
3FC0
1F80
0600
0600
0600
0600
ENDCHAR
STARTCHAR Omega.c2sc
ENCODING -1
SWIDTH 540 0
DWIDTH 15 0
BBX 13 16 1 0
BITMAP
0F80
1FC0
38E0
7070
6030
6030
E030
E038
6030
6030
6030
6030
7060
38E0
7DF8
7DF8
ENDCHAR
STARTCHAR uni0402.c2sc
ENCODING -1
SWIDTH 596 0
DWIDTH 17 0
BBX 15 16 1 0
BITMAP
FFC0
FFC0
0C00
0C00
0C00
0DF0
0FFC
0E1C
0C0E
0C0E
0C0E
0C0E
0C0E
0C1C
0C7C
0C70
ENDCHAR
STARTCHAR uni0404.c2sc
ENCODING -1
SWIDTH 490 0
DWIDTH 14 0
BBX 12 16 1 0
BITMAP
0F80
3FC0
30E0
6060
6070
6000
FF00
FF00
E000
E000
6000
6070
7060
38E0
3FC0
0F80
ENDCHAR
STARTCHAR uni0409.c2sc
ENCODING -1
SWIDTH 782 0
DWIDTH 22 0
BBX 20 16 1 0
BITMAP
1FF000
1FF000
187000
187000
187000
387000
387F80
387FE0
3870E0
387070
387070
307070
307070
7070E0
E07FE0
C07F80
ENDCHAR
STARTCHAR uni040A.c2sc
ENCODING -1
SWIDTH 788 0
DWIDTH 22 0
BBX 19 16 2 0
BITMAP
C0E000
C0E000
C0E000
C0E000
C0E000
C0E000
C0FF00
FFFFC0
FFE1C0
C0E0E0
C0E060
C0E0E0
C0E0E0
C0E1C0
C0FFC0
C0FF00
ENDCHAR
STARTCHAR uni040B.c2sc
ENCODING -1
SWIDTH 596 0
DWIDTH 17 0
BBX 15 16 1 0
BITMAP
FFC0
FFC0
0C00
0C00
0C00
0DF0
0FF8
0E1C
0C0C
0C0E
0C0E
0C0E
0C0E
0C0E
0C0E
0C0E
ENDCHAR
STARTCHAR uni040F.c2sc
ENCODING -1
SWIDTH 524 0
DWIDTH 15 0
BBX 11 21 2 -5
BITMAP
C060
C060
C060
C060
C060
C060
C060
C060
C060
C060
C060
C060
C060
C060
FFE0
FFE0
0E00
0E00
0E00
0E00
0E00
ENDCHAR
STARTCHAR uni0411.c2sc
ENCODING -1
SWIDTH 479 0
DWIDTH 13 0
BBX 10 16 2 0
BITMAP
FF80
FF80
C000
C000
C000
C000
FE00
FF80
C180
C1C0
C0C0
C0C0
C1C0
C180
FF80
FE00
ENDCHAR
STARTCHAR uni0414.c2sc
ENCODING -1
SWIDTH 563 0
DWIDTH 16 0
BBX 14 21 1 -5
BITMAP
1FF0
1FF0
1C30
1830
1830
1830
1830
1830
1830
1830
1830
3830
3030
7030
FFFC
FFFC
C00C
C00C
C00C
C00C
C00C
ENDCHAR
STARTCHAR uni0416.c2sc
ENCODING -1
SWIDTH 651 0
DWIDTH 18 0
BBX 17 16 0 0
BITMAP
70C380
38C700
38C700
1CCE00
1CCC00
0EDC00
07F800
0FFC00
0EDC00
1CCC00
1CCE00
18C600
38C700
38C700
70C380
F0C380
ENDCHAR
STARTCHAR uni0417.c2sc
ENCODING -1
SWIDTH 466 0
DWIDTH 13 0
BBX 11 16 1 0
BITMAP
1F00
7F80
71C0
E0C0
00C0
00C0
01C0
0F80
0F80
01C0
00C0
00E0
E0C0
E1C0
7F80
3F00
ENDCHAR
STARTCHAR uni0418.c2sc
ENCODING -1
SWIDTH 537 0
DWIDTH 15 0
BBX 11 16 2 0
BITMAP
C0E0
C0E0
C1E0
C1E0
C3E0
C360
C760
C660
CC60
DC60
D860
F860
F060
F060
E060
C060
ENDCHAR
STARTCHAR uni041A.c2sc
ENCODING -1
SWIDTH 473 0
DWIDTH 13 0
BBX 10 16 2 0
BITMAP
C1C0
C380
C300
C600
CE00
DC00
F800
F800
DC00
CE00
CE00
C700
C700
C380
C1C0
C1C0
ENDCHAR
STARTCHAR uni041B.c2sc
ENCODING -1
SWIDTH 521 0
DWIDTH 15 0
BBX 12 16 1 0
BITMAP
1FF0
1FF0
1830
1830
1830
1830
1830
3830
3830
3830
3830
3830
3030
7030
F030
E030
ENDCHAR
STARTCHAR uni0423.c2sc
ENCODING -1
SWIDTH 454 0
DWIDTH 13 0
BBX 11 16 1 0
BITMAP
E0E0
E0E0
60C0
71C0
71C0
3180
3B80
1B80
1B00
1F00
0E00
0E00
0E00
0C00
3C00
3800
ENDCHAR
STARTCHAR uni0426.c2sc
ENCODING -1
SWIDTH 564 0
DWIDTH 16 0
BBX 13 21 2 -5
BITMAP
C060
C060
C060
C060
C060
C060
C060
C060
C060
C060
C060
C060
C060
C060
FFF8
FFF8
0018
0018
0018
0018
0018
ENDCHAR
STARTCHAR uni0427.c2sc
ENCODING -1
SWIDTH 487 0
DWIDTH 14 0
BBX 11 16 1 0
BITMAP
E060
E060
E060
E060
E060
E060
E060
60E0
7FE0
1F60
0060
0060
0060
0060
0060
0060
ENDCHAR
STARTCHAR uni0428.c2sc
ENCODING -1
SWIDTH 691 0
DWIDTH 19 0
BBX 15 16 2 0
BITMAP
C386
C386
C386
C386
C386
C386
C386
C386
C386
C386
C386
C386
C386
C386
FFFE
FFFE
ENDCHAR
STARTCHAR uni0429.c2sc
ENCODING -1
SWIDTH 731 0
DWIDTH 21 0
BBX 18 21 2 -5
BITMAP
C18700
C18700
C18700
C18700
C18700
C18700
C18700
C18700
C18700
C18700
C18700
C18700
C18700
C18700
FFFFC0
FFFFC0
0000C0
0000C0
0000C0
0000C0
0000C0
ENDCHAR
STARTCHAR uni042A.c2sc
ENCODING -1
SWIDTH 559 0
DWIDTH 16 0
BBX 14 16 1 0
BITMAP
FC00
FC00
1C00
1C00
1C00
1C00
1FE0
1FF8
1C38
1C1C
1C1C
1C1C
1C1C
1C38
1FF0
1FE0
ENDCHAR
STARTCHAR uni042B.c2sc
ENCODING -1
SWIDTH 658 0
DWIDTH 18 0
BBX 15 16 2 0
BITMAP
C00E
C00E
C00E
C00E
C00E
C00E
FE0E
FF8E
C1CE
C1CE
C0CE
C0CE
C1CE
C1CE
FF8E
FE0E
ENDCHAR
STARTCHAR uni042C.c2sc
ENCODING -1
SWIDTH 475 0
DWIDTH 13 0
BBX 10 16 2 0
BITMAP
C000
C000
C000
C000
C000
C000
FE00
FF80
C1C0
C1C0
C0C0
C0C0
C1C0
C1C0
FF80
FE00
ENDCHAR
STARTCHAR uni042D.c2sc
ENCODING -1
SWIDTH 491 0
DWIDTH 14 0
BBX 12 16 1 0
BITMAP
1F00
3F80
70C0
60E0
E060
0060
0FF0
0FF0
0070
0070
0060
E060
60E0
71C0
3FC0
1F00
ENDCHAR
STARTCHAR uni042E.c2sc
ENCODING -1
SWIDTH 705 0
DWIDTH 20 0
BBX 17 16 2 0
BITMAP
C0F800
C1FC00
C38E00
C70700
C70300
C60300
FE0300
FE0380
C60380
C60300
C60300
C70300
C30700
C38E00
C1FC00
C0F800
ENDCHAR
STARTCHAR uni042F.c2sc
ENCODING -1
SWIDTH 499 0
DWIDTH 14 0
BBX 11 16 1 0
BITMAP
1FE0
3FE0
7060
6060
6060
6060
7060
3FE0
1FE0
1860
1860
3860
3060
7060
6060
E060
ENDCHAR
STARTCHAR uni0492.c2sc
ENCODING -1
SWIDTH 444 0
DWIDTH 12 0
BBX 12 16 0 0
BITMAP
1FF0
1FF0
1800
1800
1800
1800
1800
FF00
FF00
1800
1800
1800
1800
1800
1800
1800
ENDCHAR
STARTCHAR uni0496.c2sc
ENCODING -1
SWIDTH 676 0
DWIDTH 19 0
BBX 17 21 1 -5
BITMAP
E18700
718600
718E00
398C00
199C00
1DB800
0FF000
0FF800
1D9800
199C00
399C00
398E00
718E00
718600
E18780
E18780
000180
000180
000180
000180
000180
ENDCHAR
STARTCHAR uni049A.c2sc
ENCODING -1
SWIDTH 492 0
DWIDTH 14 0
BBX 11 21 2 -5
BITMAP
C1C0
C380
C300
C700
CE00
CC00
F800
FC00
CC00
CE00
C600
C700
C300
C380
C1E0
C1E0
0060
0060
0060
0060
0060
ENDCHAR
STARTCHAR uni049C.c2sc
ENCODING -1
SWIDTH 562 0
DWIDTH 16 0
BBX 13 16 2 0
BITMAP
C038
C070
C0E0
D8C0
D980
DB80
FF00
FF00
DB80
D980
D9C0
C0C0
C0E0
C070
C070
C038
ENDCHAR
STARTCHAR uni04A0.c2sc
ENCODING -1
SWIDTH 571 0
DWIDTH 16 0
BBX 14 16 1 0
BITMAP
FC1C
FC38
0C70
0C60
0CE0
0DC0
0F80
0F80
0DC0
0CC0
0CE0
0C70
0C70
0C38
0C38
0C1C
ENDCHAR
STARTCHAR uni04A8.c2sc
ENCODING -1
SWIDTH 625 0
DWIDTH 18 0
BBX 14 16 2 0
BITMAP
19E0
7BF8
6318
E71C
C71C
C60C
C60C
C60C
C61C
C71C
C71C
E318
63B8
71F0
3FFC
0F9C
ENDCHAR
STARTCHAR uni04B0.c2sc
ENCODING -1
SWIDTH 480 0
DWIDTH 13 0
BBX 12 16 0 0
BITMAP
E070
7070
3060
38E0
38C0
1DC0
1D80
0F80
0F00
1FC0
1FC0
0700
0700
0700
0700
0700
ENDCHAR
STARTCHAR uni04B2.c2sc
ENCODING -1
SWIDTH 514 0
DWIDTH 14 0
BBX 12 21 1 -5
BITMAP
E0E0
E0E0
71C0
3180
3B80
1B00
1F00
0E00
0E00
1F00
1B00
3B80
71C0
71C0
E0F0
E0F0
0030
0030
0030
0030
0030
ENDCHAR
STARTCHAR uni04B4.c2sc
ENCODING -1
SWIDTH 695 0
DWIDTH 19 0
BBX 18 21 0 -5
BITMAP
FFE700
FFE700
0E0700
0E0700
0E0700
0E0700
0E0700
0E0700
0E0700
0E0700
0E0700
0E0700
0E0700
0E0700
0FFFC0
0FFFC0
0001C0
0001C0
0001C0
000180
000180
ENDCHAR
STARTCHAR uni04B8.c2sc
ENCODING -1
SWIDTH 487 0
DWIDTH 14 0
BBX 11 16 1 0
BITMAP
E060
E060
E060
E060
E060
E660
E660
66E0
7FE0
1F60
0660
0660
0660
0060
0060
0060
ENDCHAR
STARTCHAR uni04BA.c2sc
ENCODING -1
SWIDTH 487 0
DWIDTH 14 0
BBX 11 16 2 0
BITMAP
C000
C000
C000
C000
C000
DF00
FFC0
E1C0
C0E0
C0E0
C0E0
C0E0
C0E0
C0E0
C0E0
C0E0
ENDCHAR
STARTCHAR uni04BC.c2sc
ENCODING -1
SWIDTH 632 0
DWIDTH 18 0
BBX 17 16 0 0
BITMAP
00F800
01FE00
038E00
070700
C60300
660300
6E0300
7FFF80
1FFF80
0E0000
060000
060000
070000
038400
01FE00
00FC00
ENDCHAR
STARTCHAR uni04D8.c2sc
ENCODING -1
SWIDTH 527 0
DWIDTH 15 0
BBX 13 16 1 0
BITMAP
1F80
3FC0
10E0
0070
0030
0030
0038
FFF8
FFF8
E038
6030
6030
7070
38E0
3FC0
0F80
ENDCHAR
STARTCHAR uni04E0.c2sc
ENCODING -1
SWIDTH 466 0
DWIDTH 13 0
BBX 11 16 1 0
BITMAP
FFC0
FFC0
0380
0300
0700
0E00
0E00
0F80
01C0
00C0
00C0
C0E0
E0C0
E1C0
7F80
1F00
ENDCHAR
STARTCHAR uni04E8.c2sc
ENCODING -1
SWIDTH 519 0
DWIDTH 15 0
BBX 11 16 2 0
BITMAP
1F00
3F80
71C0
E0E0
C060
C060
C060
FFE0
FFE0
C060
C060
C060
E0E0
71C0
3F80
1F00
ENDCHAR
STARTCHAR lira.c2sc
ENCODING -1
SWIDTH 467 0
DWIDTH 13 0
BBX 11 16 1 0
BITMAP
0F00
1F80
39C0
30C0
30C0
7020
7000
FF80
FF80
3000
FF80
FF80
7000
7000
7FE0
7FE0
ENDCHAR
STARTCHAR Euro.c2sc
ENCODING -1
SWIDTH 433 0
DWIDTH 12 0
BBX 10 16 1 0
BITMAP
07C0
1FC0
1C00
3800
3000
3000
FF80
FF80
3000
FF80
FF80
3000
3800
3800
1FC0
07C0
ENDCHAR
STARTCHAR uni2116.c2sc
ENCODING -1
SWIDTH 884 0
DWIDTH 25 0
BBX 21 16 2 0
BITMAP
E061E0
E063F0
F06738
F06618
D86618
D86618
CC6618
CC6338
C663F0
C661E0
C36000
C3E3F0
C1E3F0
C1E000
C0E000
C06000
ENDCHAR
STARTCHAR uni20BD.c2sc
ENCODING -1
SWIDTH 512 0
DWIDTH 14 0
BBX 12 16 1 0
BITMAP
3FC0
3FE0
3070
3070
3030
3030
3070
3070
FFE0
FFC0
3000
FE00
FE00
3000
3000
3000
ENDCHAR
STARTCHAR three.dnom
ENCODING -1
SWIDTH 329 0
DWIDTH 9 0
BBX 7 11 1 0
BITMAP
78
FC
C6
06
3C
3C
06
06
C6
FC
78
ENDCHAR
STARTCHAR four.dnom
ENCODING -1
SWIDTH 329 0
DWIDTH 9 0
BBX 7 11 1 0
BITMAP
0C
1C
1C
3C
2C
6C
CC
FE
FE
0C
0C
ENDCHAR
STARTCHAR five.dnom
ENCODING -1
SWIDTH 329 0
DWIDTH 9 0
BBX 7 11 1 0
BITMAP
7E
7E
60
60
7C
7E
C6
06
C6
7E
3C
ENDCHAR
STARTCHAR six.dnom
ENCODING -1
SWIDTH 329 0
DWIDTH 9 0
BBX 7 11 1 0
BITMAP
1C
7C
60
E0
DC
FE
C6
C6
C6
7E
3C
ENDCHAR
STARTCHAR seven.dnom
ENCODING -1
SWIDTH 329 0
DWIDTH 9 0
BBX 7 11 1 0
BITMAP
FE
FE
06
0C
0C
18
18
18
30
30
60
ENDCHAR
STARTCHAR eight.dnom
ENCODING -1
SWIDTH 329 0
DWIDTH 9 0
BBX 7 11 1 0
BITMAP
78
7C
C6
C6
7C
7C
C6
C6
C6
FE
78
ENDCHAR
STARTCHAR nine.dnom
ENCODING -1
SWIDTH 329 0
DWIDTH 9 0
BBX 7 11 1 0
BITMAP
38
7C
CE
C6
C6
FE
76
0E
0C
3C
30
ENDCHAR
STARTCHAR glyph550
ENCODING -1
SWIDTH 404 0
DWIDTH 11 0
BBX 7 2 2 9
BITMAP
FE
FE
ENDCHAR
STARTCHAR glyph551
ENCODING -1
SWIDTH 306 0
DWIDTH 9 0
BBX 6 9 2 15
BITMAP
1C
30
20
00
60
90
90
90
60
ENDCHAR
STARTCHAR E.c2sc
ENCODING -1
SWIDTH 428 0
DWIDTH 12 0
BBX 9 16 2 0
BITMAP
FF80
FF80
C000
C000
C000
C000
C000
FF00
FF00
C000
C000
C000
C000
C000
FF80
FF80
ENDCHAR
STARTCHAR g.ss01
ENCODING -1
SWIDTH 463 0
DWIDTH 13 0
BBX 12 21 0 -6
BITMAP
0FF0
3FF0
38E0
7060
7060
7060
7060
38E0
1FC0
1F80
3000
3000
3FC0
3FE0
6070
6030
6030
E070
70E0
3FC0
1F80
ENDCHAR
STARTCHAR alpha.ss02
ENCODING -1
SWIDTH 523 0
DWIDTH 15 0
BBX 11 15 2 0
BITMAP
3E60
7F60
7360
E1E0
C1E0
C0C0
C0C0
C0C0
C0C0
C0C0
C1E0
E1E0
E360
7F60
3C60
ENDCHAR
STARTCHAR R.ss03
ENCODING -1
SWIDTH 577 0
DWIDTH 16 0
BBX 13 20 2 0
BITMAP
FF80
FFE0
E0E0
E070
E070
E030
E070
E070
E0E0
FFC0
FFC0
E0E0
E070
E070
E070
E070
E070
E070
E070
E038
ENDCHAR
STARTCHAR K.ss04
ENCODING -1
SWIDTH 560 0
DWIDTH 16 0
BBX 13 20 2 0
BITMAP
E038
E070
E0E0
E1E0
E1C0
E380
E700
E700
FE00
FE00
E700
E300
E380
E1C0
E1C0
E0E0
E0E0
E070
E038
E038
ENDCHAR
STARTCHAR k.ss04
ENCODING -1
SWIDTH 453 0
DWIDTH 13 0
BBX 10 21 2 0
BITMAP
C000
C000
C000
C000
C000
C000
C1C0
C380
C300
C700
C600
CE00
FC00
FC00
CE00
C600
C700
C300
C380
C1C0
C1C0
ENDCHAR
STARTCHAR K.ss05
ENCODING -1
SWIDTH 572 0
DWIDTH 16 0
BBX 13 20 2 0
BITMAP
E078
E0F0
E0E0
E1C0
E380
E780
E700
EE00
FC00
FC00
FC00
FE00
EE00
E700
E380
E1C0
E1C0
E0E0
E070
E038
ENDCHAR
STARTCHAR k.ss05
ENCODING -1
SWIDTH 454 0
DWIDTH 13 0
BBX 10 21 2 0
BITMAP
C000
C000
C000
C000
C000
C000
C3C0
C380
C700
CE00
CC00
DC00
F800
F800
DC00
DC00
CE00
C700
C380
C380
C1C0
ENDCHAR
STARTCHAR D.c2sc
ENCODING -1
SWIDTH 492 0
DWIDTH 14 0
BBX 11 16 2 0
BITMAP
FE00
FF00
C380
C1C0
C0C0
C0C0
C0C0
C0E0
C0E0
C0C0
C0C0
C0C0
C1C0
C380
FF00
FE00
ENDCHAR
STARTCHAR C.c2sc
ENCODING -1
SWIDTH 490 0
DWIDTH 14 0
BBX 12 16 1 0
BITMAP
0F80
3FC0
38E0
7060
6070
6000
E000
E000
E000
E000
6000
6070
7060
38E0
3FC0
0F80
ENDCHAR
STARTCHAR B.c2sc
ENCODING -1
SWIDTH 475 0
DWIDTH 13 0
BBX 10 16 2 0
BITMAP
FE00
FF80
C380
C1C0
C1C0
C180
C380
FF00
FF80
C180
C1C0
C0C0
C1C0
C1C0
FF80
FF00
ENDCHAR
STARTCHAR A.c2sc
ENCODING -1
SWIDTH 501 0
DWIDTH 14 0
BBX 14 16 0 0
BITMAP
0300
0780
0780
0780
0FC0
0CC0
0CC0
1CE0
1860
1860
3FF0
3FF0
3030
7038
6018
E01C
ENDCHAR
STARTCHAR glyph564
ENCODING -1
SWIDTH 236 0
DWIDTH 7 0
BBX 3 6 2 16
BITMAP
40
60
E0
E0
E0
E0
ENDCHAR
STARTCHAR glyph565
ENCODING -1
SWIDTH 402 0
DWIDTH 11 0
BBX 7 7 2 17
BITMAP
60
30
10
C6
CE
FC
78
ENDCHAR
STARTCHAR glyph566
ENCODING -1
SWIDTH 0 0
DWIDTH 0 0
BBX 7 7 -10 17
BITMAP
0C
18
18
00
62
FE
8C
ENDCHAR
STARTCHAR glyph567
ENCODING -1
SWIDTH 455 0
DWIDTH 13 0
BBX 12 6 2 17
BITMAP
0070
00E0
18C0
3DC0
6600
E700
ENDCHAR
STARTCHAR glyph568
ENCODING -1
SWIDTH 454 0
DWIDTH 13 0
BBX 12 6 -2 17
BITMAP
E000
6000
3380
37C0
0E60
1C70
ENDCHAR
STARTCHAR glyph569
ENCODING -1
SWIDTH 446 0
DWIDTH 13 0
BBX 11 7 1 17
BITMAP
00C0
0060
0060
1CE0
3EC0
7300
E180
ENDCHAR
STARTCHAR glyph570
ENCODING -1
SWIDTH 453 0
DWIDTH 13 0
BBX 9 7 1 17
BITMAP
1900
3F00
2600
0000
1C00
3700
E380
ENDCHAR
STARTCHAR uni0490.c2sc
ENCODING -1
SWIDTH 405 0
DWIDTH 11 0
BBX 9 20 2 0
BITMAP
0380
0380
0380
0380
FF80
FF80
C000
C000
C000
C000
C000
C000
C000
C000
C000
C000
C000
C000
C000
C000
ENDCHAR
STARTCHAR glyph572
ENCODING -1
SWIDTH 404 0
DWIDTH 11 0
BBX 7 7 2 17
BITMAP
0C
18
10
C6
CE
FC
78
ENDCHAR
STARTCHAR glyph573
ENCODING -1
SWIDTH 404 0
DWIDTH 11 0
BBX 7 7 2 17
BITMAP
38
0C
38
30
CE
FC
78
ENDCHAR
STARTCHAR zero.numr
ENCODING -1
SWIDTH 329 0
DWIDTH 9 0
BBX 7 11 1 9
BITMAP
38
7C
EE
C6
C6
C6
C6
C6
EE
7C
38
ENDCHAR
STARTCHAR four.numr
ENCODING -1
SWIDTH 329 0
DWIDTH 9 0
BBX 7 11 1 9
BITMAP
0C
1C
1C
3C
2C
6C
CC
FE
FE
0C
0C
ENDCHAR
STARTCHAR five.numr
ENCODING -1
SWIDTH 329 0
DWIDTH 9 0
BBX 7 11 1 9
BITMAP
7E
7E
60
60
7C
7E
C6
06
C6
7E
3C
ENDCHAR
STARTCHAR six.numr
ENCODING -1
SWIDTH 329 0
DWIDTH 9 0
BBX 7 11 1 9
BITMAP
1C
7C
60
E0
DC
FE
C6
C6
C6
7E
3C
ENDCHAR
STARTCHAR seven.numr
ENCODING -1
SWIDTH 329 0
DWIDTH 9 0
BBX 7 11 1 9
BITMAP
FE
FE
06
0C
0C
18
18
18
30
30
60
ENDCHAR
STARTCHAR eight.numr
ENCODING -1
SWIDTH 329 0
DWIDTH 9 0
BBX 7 11 1 9
BITMAP
78
7C
C6
C6
7C
7C
C6
C6
C6
FE
78
ENDCHAR
STARTCHAR nine.numr
ENCODING -1
SWIDTH 329 0
DWIDTH 9 0
BBX 7 11 1 9
BITMAP
38
7C
CE
C6
C6
FE
76
0E
0C
3C
30
ENDCHAR
STARTCHAR C.ss06
ENCODING -1
SWIDTH 603 0
DWIDTH 17 0
BBX 14 20 2 0
BITMAP
07C0
1FE0
3870
7038
6038
E018
E01C
C000
C000
C000
C000
C000
C000
E01C
E018
6018
7038
3870
1FE0
07C0
ENDCHAR
STARTCHAR G.ss06
ENCODING -1
SWIDTH 618 0
DWIDTH 17 0
BBX 13 20 2 0
BITMAP
0FC0
1FE0
3870
7038
E038
E018
C000
C000
C000
C000
C1F8
C1F8
C018
C018
E018
6018
7018
3838
1FF0
0FC0
ENDCHAR
STARTCHAR D.ss06
ENCODING -1
SWIDTH 608 0
DWIDTH 17 0
BBX 13 20 2 0
BITMAP
FF00
FFC0
E1E0
E070
E030
E038
E038
E018
E018
E018
E018
E018
E018
E038
E038
E070
E070
E1E0
FFC0
FF00
ENDCHAR
STARTCHAR O.ss06
ENCODING -1
SWIDTH 643 0
DWIDTH 18 0
BBX 14 20 2 0
BITMAP
0780
1FE0
3870
7038
6018
E01C
E01C
C00C
C00C
C00C
C00C
C00C
C00C
E01C
E01C
6018
7038
3870
1FE0
0780
ENDCHAR
STARTCHAR Q.ss06
ENCODING -1
SWIDTH 644 0
DWIDTH 18 0
BBX 14 23 2 -3
BITMAP
0780
1FE0
3870
7038
6018
E01C
E01C
C00C
C00C
C00C
C00C
C00C
C00C
E01C
E01C
6018
7038
3870
1FE0
07E0
0070
0038
0010
ENDCHAR
STARTCHAR one.oldstyle.pnum
ENCODING -1
SWIDTH 421 0
DWIDTH 12 0
BBX 7 16 2 0
BITMAP
06
1E
7E
EE
8E
0E
0E
0E
0E
0E
0E
0E
0E
0E
0E
0E
ENDCHAR
STARTCHAR two.oldstyle.pnum
ENCODING -1
SWIDTH 492 0
DWIDTH 14 0
BBX 11 16 2 0
BITMAP
1E00
3F80
7180
E1C0
C1C0
C1C0
01C0
0380
0300
0700
0E00
1C00
3800
7000
FFE0
FFE0
ENDCHAR
STARTCHAR three.oldstyle.pnum
ENCODING -1
SWIDTH 474 0
DWIDTH 13 0
BBX 12 21 0 -5
BITMAP
7FE0
7FE0
00E0
01C0
0180
0300
0700
0F80
0FC0
01E0
00E0
0060
0070
0070
0070
0060
0060
00E0
61C0
7F80
BF00
ENDCHAR
STARTCHAR four.oldstyle.pnum
ENCODING -1
SWIDTH 524 0
DWIDTH 15 0
BBX 13 21 1 -5
BITMAP
00E0
01E0
01E0
03E0
03E0
06E0
0EE0
0CE0
1CE0
18E0
38E0
30E0
70E0
60E0
FFF8
FFF8
00E0
00E0
00E0
00E0
00E0
ENDCHAR
STARTCHAR five.oldstyle.pnum
ENCODING -1
SWIDTH 483 0
DWIDTH 14 0
BBX 11 21 1 -5
BITMAP
3FE0
3FE0
3000
3000
7000
7000
6000
6F00
7F80
71C0
60E0
00E0
0060
0060
0060
0060
00E0
00C0
61C0
FF80
3F00
ENDCHAR
STARTCHAR seven.oldstyle.pnum
ENCODING -1
SWIDTH 458 0
DWIDTH 13 0
BBX 11 21 1 -5
BITMAP
FFE0
FFE0
00E0
00C0
01C0
0180
0180
0380
0300
0300
0700
0600
0600
0E00
0C00
1C00
1C00
1800
3800
3000
3000
ENDCHAR
STARTCHAR glyph592
ENCODING -1
SWIDTH 402 0
DWIDTH 11 0
BBX 7 7 2 17
BITMAP
66
FC
9C
00
C6
CC
78
ENDCHAR
STARTCHAR glyph593
ENCODING -1
SWIDTH 183 0
DWIDTH 5 0
BBX 3 7 1 -5
BITMAP
E0
E0
E0
E0
E0
E0
E0
ENDCHAR
STARTCHAR OE.c2sc
ENCODING -1
SWIDTH 714 0
DWIDTH 20 0
BBX 18 16 1 0
BITMAP
0FFFC0
3FFFC0
386000
706000
606000
E06000
E06000
E07F80
E07F80
E06000
E06000
606000
706000
386000
3FFFC0
0FFFC0
ENDCHAR
STARTCHAR nine.oldstyle.pnum
ENCODING -1
SWIDTH 520 0
DWIDTH 15 0
BBX 11 21 2 -5
BITMAP
1F00
3F80
71C0
60C0
E0E0
E060
C060
C060
E060
E060
60E0
71E0
3FE0
1F60
00E0
00E0
00C0
01C0
4380
7F00
3E00
ENDCHAR
STARTCHAR glyph596
ENCODING -1
SWIDTH 234 0
DWIDTH 7 0
BBX 5 9 0 -6
BITMAP
38
38
38
38
38
38
30
F0
E0
ENDCHAR
STARTCHAR three.oldstyle
ENCODING -1
SWIDTH 494 0
DWIDTH 14 0
BBX 11 21 1 -5
BITMAP
7FE0
7FE0
00C0
0180
0380
0700
0600
0F00
0F80
01C0
00E0
00E0
0060
0060
0060
0060
00E0
00C0
C3C0
FF80
3E00
ENDCHAR
STARTCHAR five.oldstyle
ENCODING -1
SWIDTH 494 0
DWIDTH 14 0
BBX 10 21 2 -5
BITMAP
7FC0
7FC0
6000
6000
6000
6000
E000
FE00
FF80
E380
C1C0
00C0
00C0
00C0
00C0
00C0
01C0
01C0
C380
FF00
7E00
ENDCHAR
STARTCHAR four.oldstyle
ENCODING -1
SWIDTH 494 0
DWIDTH 14 0
BBX 13 21 1 -5
BITMAP
01C0
01C0
03C0
03C0
06C0
06C0
0CC0
0CC0
18C0
38C0
30C0
70C0
60C0
E0C0
FFF8
FFF8
00C0
00C0
00C0
00C0
00C0
ENDCHAR
STARTCHAR two.oldstyle
ENCODING -1
SWIDTH 494 0
DWIDTH 14 0
BBX 10 16 2 0
BITMAP
1E00
7F80
6380
E1C0
C1C0
C1C0
0180
0380
0700
0600
0E00
1C00
3800
7000
FFC0
FFC0
ENDCHAR
STARTCHAR seven.oldstyle
ENCODING -1
SWIDTH 494 0
DWIDTH 14 0
BBX 10 21 2 -5
BITMAP
FFC0
FFC0
00C0
01C0
0180
0180
0380
0300
0300
0700
0600
0E00
0E00
0C00
1C00
1800
1800
3800
3000
3000
7000
ENDCHAR
STARTCHAR zero.oldstyle
ENCODING -1
SWIDTH 494 0
DWIDTH 14 0
BBX 12 16 1 0
BITMAP
1F00
3FC0
71C0
60E0
E060
C070
C070
C070
C070
C070
C070
E060
60E0
71C0
3FC0
1F00
ENDCHAR
STARTCHAR six.oldstyle
ENCODING -1
SWIDTH 494 0
DWIDTH 14 0
BBX 10 20 2 0
BITMAP
0700
1F00
3800
7000
6000
E000
E000
CF00
FF80
F1C0
E1C0
C0C0
C0C0
C0C0
C0C0
E0C0
61C0
7180
3F80
1E00
ENDCHAR
STARTCHAR nine.oldstyle
ENCODING -1
SWIDTH 494 0
DWIDTH 14 0
BBX 11 21 2 -5
BITMAP
1E00
7F80
7180
E1C0
C0C0
C0C0
C0E0
C0E0
C0E0
C0E0
E0E0
71E0
7FE0
1EE0
00C0
00C0
01C0
0180
8780
7F00
7C00
ENDCHAR
STARTCHAR eight.oldstyle
ENCODING -1
SWIDTH 494 0
DWIDTH 14 0
BBX 10 20 2 0
BITMAP
1E00
7F80
7380
E1C0
E1C0
C0C0
E1C0
E1C0
7380
3F00
3F00
6180
E1C0
C0C0
C0C0
C0C0
C0C0
E1C0
7F80
3E00
ENDCHAR
STARTCHAR one.oldstyle
ENCODING -1
SWIDTH 494 0
DWIDTH 14 0
BBX 7 16 3 0
BITMAP
06
1E
7E
EE
8E
0E
0E
0E
0E
0E
0E
0E
0E
0E
0E
0E
ENDCHAR
STARTCHAR glyph607
ENCODING -1
SWIDTH 237 0
DWIDTH 7 0
BBX 5 21 0 -6
BITMAP
38
38
38
38
38
38
38
38
38
38
38
38
38
38
38
38
38
38
30
F0
E0
ENDCHAR
STARTCHAR glyph608
ENCODING -1
SWIDTH 238 0
DWIDTH 7 0
BBX 5 21 0 -6
BITMAP
38
38
38
38
38
38
38
38
38
38
38
38
38
38
38
38
38
38
30
F0
E0
ENDCHAR
STARTCHAR glyph609
ENCODING -1
SWIDTH 235 0
DWIDTH 7 0
BBX 2 15 2 0
BITMAP
C0
C0
C0
C0
C0
C0
C0
C0
C0
C0
C0
C0
C0
C0
C0
ENDCHAR
STARTCHAR glyph610
ENCODING -1
SWIDTH 235 0
DWIDTH 7 0
BBX 4 21 0 -6
BITMAP
30
30
30
30
30
30
30
30
30
30
30
30
30
30
30
70
60
C0
C0
F0
70
ENDCHAR
STARTCHAR glyph611
ENCODING -1
SWIDTH 235 0
DWIDTH 7 0
BBX 2 15 2 0
BITMAP
C0
C0
C0
C0
C0
C0
C0
C0
C0
C0
C0
C0
C0
C0
C0
ENDCHAR
STARTCHAR germandbls.sc
ENCODING -1
SWIDTH 475 0
DWIDTH 13 0
BBX 10 16 2 0
BITMAP
3C00
7F00
E380
C300
C700
CE00
CC00
CF00
CF80
C1C0
C1C0
C1C0
C1C0
D180
DF80
DE00
ENDCHAR
STARTCHAR zero.oldstyle.pnum
ENCODING -1
SWIDTH 545 0
DWIDTH 15 0
BBX 13 16 1 0
BITMAP
0F80
1FC0
38E0
7070
6030
6030
6030
E038
E038
6030
6030
6030
7070
38E0
1FC0
0F80
ENDCHAR
STARTCHAR seven.pnum
ENCODING -1
SWIDTH 458 0
DWIDTH 13 0
BBX 11 20 1 0
BITMAP
FFE0
FFE0
00C0
00C0
01C0
0180
0180
0300
0300
0700
0600
0600
0E00
0C00
0C00
1C00
1800
1800
3800
3000
ENDCHAR
STARTCHAR b.ss06
ENCODING -1
SWIDTH 493 0
DWIDTH 14 0
BBX 11 21 2 0
BITMAP
C000
C000
C000
C000
C000
C000
CF00
FF80
F1C0
E0C0
C0E0
C0E0
C0E0
C0E0
C0E0
C0E0
C0E0
E0C0
F1C0
FF80
CF00
ENDCHAR
STARTCHAR c.ss06
ENCODING -1
SWIDTH 460 0
DWIDTH 13 0
BBX 11 15 1 0
BITMAP
0F00
3FC0
71C0
70E0
6060
E000
E000
E000
E000
E000
6060
70E0
71C0
3F80
0F00
ENDCHAR
STARTCHAR d.ss06
ENCODING -1
SWIDTH 503 0
DWIDTH 14 0
BBX 11 21 1 0
BITMAP
0060
0060
0060
0060
0060
0060
1F60
3FE0
70E0
70E0
6060
E060
E060
E060
E060
E060
6060
70E0
70E0
3FE0
1F60
ENDCHAR
STARTCHAR g.ss06
ENCODING -1
SWIDTH 500 0
DWIDTH 14 0
BBX 11 21 1 -6
BITMAP
1F60
3FE0
78E0
7060
6060
E060
E060
E060
E060
E060
6060
7060
78E0
3FE0
1F60
0060
00E0
40E0
31C0
7F80
1F00
ENDCHAR
STARTCHAR o.ss06
ENCODING -1
SWIDTH 508 0
DWIDTH 14 0
BBX 12 15 1 0
BITMAP
0F00
3FC0
71E0
70E0
6060
E070
E070
E070
E070
E070
6060
70E0
70E0
3FC0
0F00
ENDCHAR
STARTCHAR p.ss06
ENCODING -1
SWIDTH 500 0
DWIDTH 14 0
BBX 11 21 2 -6
BITMAP
DF00
FF80
E3C0
C1C0
C0C0
C0E0
C0E0
C0E0
C0E0
C0E0
C0C0
C1C0
E3C0
FF80
DF00
C000
C000
C000
C000
C000
C000
ENDCHAR
STARTCHAR q.ss06
ENCODING -1
SWIDTH 508 0
DWIDTH 14 0
BBX 11 21 1 -6
BITMAP
1F60
3FE0
70E0
70E0
E060
E060
E060
E060
E060
E060
6060
70E0
70E0
3FE0
1E60
0060
0060
0060
0060
0060
0060
ENDCHAR
STARTCHAR e.ss07
ENCODING -1
SWIDTH 468 0
DWIDTH 13 0
BBX 11 15 1 0
BITMAP
0F00
3F80
31C0
60E0
60E0
E060
FFE0
FFE0
E000
E000
6000
7000
3840
3FC0
0F80
ENDCHAR
STARTCHAR g.ss07
ENCODING -1
SWIDTH 492 0
DWIDTH 14 0
BBX 11 21 1 -6
BITMAP
1F60
3FE0
70E0
70E0
6060
6060
E060
E060
E060
6060
6060
70E0
30E0
3FE0
1F60
0060
00E0
00E0
31C0
3F80
1F00
ENDCHAR
STARTCHAR one.pnum
ENCODING -1
SWIDTH 382 0
DWIDTH 11 0
BBX 7 20 1 0
BITMAP
06
1E
7E
FE
8E
0E
0E
0E
0E
0E
0E
0E
0E
0E
0E
0E
0E
0E
0E
0E
ENDCHAR
STARTCHAR ampersand.c2sc
ENCODING -1
SWIDTH 526 0
DWIDTH 15 0
BBX 13 16 1 0
BITMAP
1E00
3F00
3380
7180
3380
3B00
1F00
1E00
3E30
7730
63F0
61E0
E1E0
71E0
7FF0
1F38
ENDCHAR
STARTCHAR Lslash.c2sc
ENCODING -1
SWIDTH 411 0
DWIDTH 12 0
BBX 10 16 1 0
BITMAP
7000
7000
7000
7000
7000
7400
7C00
F800
F000
F000
7000
7000
7000
7000
7FC0
7FC0
ENDCHAR
STARTCHAR AE.c2sc
ENCODING -1
SWIDTH 676 0
DWIDTH 19 0
BBX 18 16 0 0
BITMAP
00FF80
01FF80
01E000
036000
036000
077000
067F80
0E7F80
0C7000
1C7000
1FF000
3FF000
387000
307000
707FC0
E07FC0
ENDCHAR
STARTCHAR Thorn.c2sc
ENCODING -1
SWIDTH 440 0
DWIDTH 12 0
BBX 9 16 2 0
BITMAP
C000
C000
C000
FC00
FF00
C380
C380
C180
C180
C380
C380
FF00
FE00
C000
C000
C000
ENDCHAR
STARTCHAR Oslash.c2sc
ENCODING -1
SWIDTH 519 0
DWIDTH 15 0
BBX 11 17 2 -1
BITMAP
1F60
3FC0
71C0
E1E0
C1E0
C360
C660
C660
CC60
CC60
D860
D860
F0E0
71C0
7F80
DF00
C000
ENDCHAR
STARTCHAR Hbar.c2sc
ENCODING -1
SWIDTH 533 0
DWIDTH 15 0
BBX 13 16 1 0
BITMAP
6030
6030
FFF8
FFF8
6030
6030
6030
7FF0
7FF0
6030
6030
6030
6030
6030
6030
6030
ENDCHAR
STARTCHAR Eng.c2sc
ENCODING -1
SWIDTH 533 0
DWIDTH 15 0
BBX 11 22 2 -6
BITMAP
E060
E060
F060
F060
D860
D860
CC60
CC60
C660
C660
C360
C360
C1E0
C1E0
C0E0
C0E0
0060
0060
0060
00E0
03C0
0380
ENDCHAR
STARTCHAR Dcroat.c2sc
ENCODING -1
SWIDTH 492 0
DWIDTH 14 0
BBX 14 16 -1 0
BITMAP
1FC0
1FE0
1870
1838
1818
1818
1818
FF1C
FF1C
1818
1818
1818
1838
1870
1FE0
1FC0
ENDCHAR
STARTCHAR Eth.c2sc
ENCODING -1
SWIDTH 492 0
DWIDTH 14 0
BBX 14 16 -1 0
BITMAP
1FC0
1FE0
1870
1838
1818
1818
1818
FF1C
FF1C
1818
1818
1818
1838
1870
1FE0
1FC0
ENDCHAR
STARTCHAR Tbar.c2sc
ENCODING -1
SWIDTH 456 0
DWIDTH 13 0
BBX 11 16 1 0
BITMAP
FFE0
FFE0
0E00
0E00
0E00
3F80
3F80
0E00
0E00
0E00
0E00
0E00
0E00
0E00
0E00
0E00
ENDCHAR
STARTCHAR Agrave.c2sc
ENCODING -1
SWIDTH 501 0
DWIDTH 14 0
BBX 14 22 0 0
BITMAP
1C00
0E00
0700
0380
0000
0000
0300
0780
0780
0780
0FC0
0CC0
0CC0
1CE0
1860
1860
3FF0
3FF0
3030
7038
6018
E01C
ENDCHAR
STARTCHAR Aacute.c2sc
ENCODING -1
SWIDTH 501 0
DWIDTH 14 0
BBX 14 22 0 0
BITMAP
00E0
01C0
0380
0300
0000
0000
0300
0780
0780
0780
0FC0
0CC0
0CC0
1CE0
1860
1860
3FF0
3FF0
3030
7038
6018
E01C
ENDCHAR
STARTCHAR Acircumflex.c2sc
ENCODING -1
SWIDTH 501 0
DWIDTH 14 0
BBX 14 22 0 0
BITMAP
0300
0780
0CC0
1CE0
0000
0000
0300
0780
0780
0780
0FC0
0CC0
0CC0
1CE0
1860
1860
3FF0
3FF0
3030
7038
6018
E01C
ENDCHAR
STARTCHAR Atilde.c2sc
ENCODING -1
SWIDTH 501 0
DWIDTH 14 0
BBX 14 21 0 0
BITMAP
0E60
1FE0
19C0
0000
0000
0300
0780
0780
0780
0FC0
0CC0
0CC0
1CE0
1860
1860
3FF0
3FF0
3030
7038
6018
E01C
ENDCHAR
STARTCHAR Adieresis.c2sc
ENCODING -1
SWIDTH 501 0
DWIDTH 14 0
BBX 14 21 0 0
BITMAP
1860
1C70
1860
0000
0000
0300
0780
0780
0780
0FC0
0CC0
0CC0
1CE0
1860
1860
3FF0
3FF0
3030
7038
6018
E01C
ENDCHAR
STARTCHAR Aring.c2sc
ENCODING -1
SWIDTH 501 0
DWIDTH 14 0
BBX 14 24 0 0
BITMAP
0780
0C80
08C0
08C0
0C80
0780
0000
0000
0300
0780
0780
0780
0FC0
0CC0
0CC0
1CE0
1860
1860
3FF0
3FF0
3030
7038
6018
E01C
ENDCHAR
STARTCHAR Aringacute.c2sc
ENCODING -1
SWIDTH 501 0
DWIDTH 14 0
BBX 14 24 0 0
BITMAP
00E0
0180
0100
0000
0300
0480
0480
0480
0300
0780
0780
0780
0FC0
0CC0
0CC0
1CE0
1860
1860
3FF0
3FF0
3030
7038
6018
E01C
ENDCHAR
STARTCHAR Ccedilla.c2sc
ENCODING -1
SWIDTH 490 0
DWIDTH 14 0
BBX 12 22 1 -6
BITMAP
0F80
3FC0
38E0
7060
6070
6000
E000
E000
E000
E000
6000
6070
7060
38E0
3FC0
0F80
0600
0700
0300
0300
0300
0600
ENDCHAR
STARTCHAR Egrave.c2sc
ENCODING -1
SWIDTH 428 0
DWIDTH 12 0
BBX 9 22 2 0
BITMAP
F000
7000
3800
1C00
0000
0000
FF80
FF80
C000
C000
C000
C000
C000
FF00
FF00
C000
C000
C000
C000
C000
FF80
FF80
ENDCHAR
STARTCHAR Eacute.c2sc
ENCODING -1
SWIDTH 428 0
DWIDTH 12 0
BBX 9 22 2 0
BITMAP
0780
0600
0C00
1C00
0000
0000
FF80
FF80
C000
C000
C000
C000
C000
FF00
FF00
C000
C000
C000
C000
C000
FF80
FF80
ENDCHAR
STARTCHAR Ecircumflex.c2sc
ENCODING -1
SWIDTH 428 0
DWIDTH 12 0
BBX 9 22 2 0
BITMAP
1C00
3C00
3600
6300
0000
0000
FF80
FF80
C000
C000
C000
C000
C000
FF00
FF00
C000
C000
C000
C000
C000
FF80
FF80
ENDCHAR
STARTCHAR Edieresis.c2sc
ENCODING -1
SWIDTH 428 0
DWIDTH 12 0
BBX 9 21 2 0
BITMAP
E380
E380
E380
0000
0000
FF80
FF80
C000
C000
C000
C000
C000
FF00
FF00
C000
C000
C000
C000
C000
FF80
FF80
ENDCHAR
STARTCHAR Igrave.c2sc
ENCODING -1
SWIDTH 221 0
DWIDTH 6 0
BBX 6 22 -1 0
BITMAP
E0
70
38
1C
00
00
18
18
18
18
18
18
18
18
18
18
18
18
18
18
18
18
ENDCHAR
ENDFONT
